<svg width="34" height="24" viewBox="0 0 34 24" fill="none" xmlns="http://www.w3.org/2000/svg">
<path d="M0.20752 11.499L10.8325 0.87404C11.1092 0.597325 11.5575 0.597325 11.8341 0.87404C12.1108 1.15076 12.1108 1.599 11.8341 1.87565L2.41825 11.2915H33.2916C33.6832 11.2915 34 11.6084 34 11.9999C34 12.3914 33.6832 12.7082 33.2916 12.7082H2.41825L11.8341 22.1241C12.1108 22.4008 12.1108 22.849 11.8341 23.1257C11.6958 23.264 11.5145 23.3332 11.3333 23.3332C11.1521 23.3332 10.9708 23.264 10.8325 23.1257L0.207451 12.5007C-0.0691948 12.224 -0.0691948 11.7758 0.20752 11.499Z" fill="#BDBDBD"/>
</svg>
