<svg width="16" height="16" viewBox="0 0 16 16" fill="none" xmlns="http://www.w3.org/2000/svg">
<g clip-path="url(#clip0)">
<path d="M7.06033 0.598845L14.4666 8.00446L7.06033 15.4101C6.92687 15.5482 6.93072 15.7684 7.06887 15.9019C7.20367 16.0321 7.41735 16.0321 7.55211 15.9019L15.204 8.25002C15.3397 8.11421 15.3397 7.89405 15.204 7.75821L7.55211 0.106344C7.41395 -0.0271168 7.19376 -0.0232697 7.0603 0.114887C6.9301 0.249686 6.9301 0.463363 7.0603 0.598161L7.06033 0.598845Z" fill="white"/>
<path d="M0.799772 0.598866L8.20606 8.00447L0.799772 15.4101C0.666311 15.5482 0.670159 15.7684 0.808316 15.9019C0.943114 16.0321 1.15679 16.0321 1.29159 15.9019L8.94344 8.25003C9.07921 8.11422 9.07921 7.89406 8.94344 7.75822L1.29159 0.106366C1.15813 -0.0317898 0.937961 -0.0356064 0.799772 0.0978231C0.661615 0.231285 0.6578 0.451449 0.791229 0.58964C0.794033 0.592542 0.79687 0.595378 0.799772 0.598182L0.799772 0.598866Z" fill="white"/>
<path d="M15.3065 8.00426C15.3066 8.09657 15.2701 8.18517 15.2049 8.25051L7.55303 15.9024C7.41487 16.0358 7.19468 16.032 7.06121 15.8938C6.93105 15.759 6.93105 15.5453 7.06121 15.4106L14.4668 8.0043L7.06053 0.598701C6.92707 0.460544 6.93091 0.240346 7.06907 0.106885C7.20387 -0.0233154 7.41755 -0.0233154 7.55234 0.106885L15.2042 7.7587C15.2694 7.82378 15.3062 7.91208 15.3065 8.00426Z" fill="white"/>
<path d="M9.0457 8.00426C9.04586 8.09657 9.00934 8.18516 8.94412 8.25051L1.29227 15.9024C1.15412 16.0358 0.933919 16.032 0.800457 15.8938C0.670289 15.759 0.670289 15.5453 0.800457 15.4105L8.20606 8.00426L0.799772 0.598659C0.661615 0.465197 0.6578 0.245032 0.791229 0.106843C0.924658 -0.0313473 1.14485 -0.0351296 1.28304 0.0983C1.28595 0.101104 1.28878 0.103941 1.29159 0.106843L8.94344 7.75869C9.00869 7.82378 9.04547 7.91208 9.0457 8.00426Z" fill="white"/>
</g>
<defs>
<clipPath id="clip0">
<rect width="16" height="16" fill="white" transform="translate(0 16) rotate(-90)"/>
</clipPath>
</defs>
</svg>
