<svg width="54" height="54" viewBox="0 0 54 54" fill="none" xmlns="http://www.w3.org/2000/svg">
<path d="M6.75 16.0312H13.5C13.966 16.0312 14.3438 15.6535 14.3438 15.1875V12.6562H12.6562V14.3438H7.59375V9.28125H10.125V7.59375H6.75C6.28404 7.59375 5.90625 7.97154 5.90625 8.4375V15.1875C5.90625 15.6535 6.28404 16.0312 6.75 16.0312Z" fill="#C76A1D"/>
<path d="M10.125 11.4633L9.03406 10.3723L7.84094 11.5654L9.52844 13.2529C9.69324 13.4177 9.90912 13.5001 10.125 13.5001C10.3409 13.5001 10.5568 13.4177 10.7216 13.2529L15.7841 8.19043L14.5909 6.99731L10.125 11.4633Z" fill="#EB5757"/>
<path d="M12.6562 25.3125H7.59375V20.25H10.125V18.5625H6.75C6.28404 18.5625 5.90625 18.9403 5.90625 19.4062V26.1562C5.90625 26.6222 6.28404 27 6.75 27H13.5C13.966 27 14.3438 26.6222 14.3438 26.1562V23.625H12.6562V25.3125Z" fill="#C76A1D"/>
<path d="M10.125 22.432L9.03406 21.3411L7.84094 22.5342L9.52844 24.2217C9.69324 24.3865 9.90912 24.4689 10.125 24.4689C10.3409 24.4689 10.5568 24.3865 10.7216 24.2217L15.7841 19.1592L14.5909 17.9661L10.125 22.432Z" fill="#EB5757"/>
<path d="M13.5 29.5312H6.75C6.28404 29.5312 5.90625 29.909 5.90625 30.375V37.125C5.90625 37.591 6.28404 37.9688 6.75 37.9688H13.5C13.966 37.9688 14.3438 37.591 14.3438 37.125V30.375C14.3438 29.909 13.966 29.5312 13.5 29.5312ZM12.6562 36.2812H7.59375V31.2188H12.6562V36.2812Z" fill="#C76A1D"/>
<path d="M13.5 40.5H6.75C6.28404 40.5 5.90625 40.8778 5.90625 41.3438V48.0938C5.90625 48.5597 6.28404 48.9375 6.75 48.9375H13.5C13.966 48.9375 14.3438 48.5597 14.3438 48.0938V41.3438C14.3438 40.8778 13.966 40.5 13.5 40.5ZM12.6562 47.25H7.59375V42.1875H12.6562V47.25Z" fill="#C76A1D"/>
<path d="M48.6903 4.46594C48.3607 4.13636 47.8268 4.13636 47.4972 4.46594L42.1875 9.77564L34.3466 1.93469C34.1884 1.77649 33.9737 1.6875 33.75 1.6875H2.53125C2.06529 1.6875 1.6875 2.06529 1.6875 2.53125V51.4688C1.6875 51.9347 2.06529 52.3125 2.53125 52.3125H42.1875C42.6535 52.3125 43.0312 51.9347 43.0312 51.4688V18.0681L52.0653 9.03406C52.3949 8.70447 52.3949 8.17053 52.0653 7.84094L48.6903 4.46594ZM41.3437 50.625H3.375V3.375H33.4006L40.1506 10.125H34.5937V5.90625H32.9062V10.9688C32.9062 11.4347 33.284 11.8125 33.75 11.8125H40.1506L20.4972 31.4659C20.4045 31.5586 20.3349 31.6715 20.2933 31.7955L18.6058 36.858C18.5048 37.1613 18.5835 37.4958 18.8097 37.7216C18.9704 37.8826 19.1862 37.9688 19.4062 37.9688C19.4957 37.9688 19.5855 37.9547 19.6732 37.9255L24.7357 36.238C24.8597 36.1964 24.9726 36.1268 25.0653 36.0341L41.3437 19.7556V50.625ZM21.4625 33.6243L22.9069 35.0688L20.7403 35.791L21.4625 33.6243ZM24.4687 34.2444L22.2869 32.0625L48.0937 6.25561L50.2756 8.4375L24.4687 34.2444Z" fill="#C76A1D"/>
<path d="M37.9688 47.25H39.6562V48.9375H37.9688V47.25Z" fill="#C76A1D"/>
<path d="M34.5938 47.25H36.2812V48.9375H34.5938V47.25Z" fill="#C76A1D"/>
<path d="M31.2188 47.25H32.9062V48.9375H31.2188V47.25Z" fill="#C76A1D"/>
</svg>
