<svg width="42" height="54" viewBox="0 0 42 54" fill="none" xmlns="http://www.w3.org/2000/svg">
<path d="M27.0754 18.0322H18.4853C18.0484 18.0322 17.6943 17.6782 17.6943 17.2412C17.6943 16.8043 18.0484 16.4502 18.4853 16.4502H27.0754C27.5122 16.4502 27.8664 16.8043 27.8664 17.2412C27.8664 17.6782 27.5124 18.0322 27.0754 18.0322Z" fill="#C76A1D"/>
<path d="M35.6656 13.9722H18.4853C18.0484 13.9722 17.6943 13.6181 17.6943 13.1812C17.6943 12.7442 18.0484 12.3901 18.4853 12.3901H35.6656C36.1025 12.3901 36.4566 12.7442 36.4566 13.1812C36.4566 13.6181 36.1025 13.9722 35.6656 13.9722Z" fill="#C76A1D"/>
<path d="M27.0754 31.2883H18.4853C18.0484 31.2883 17.6943 30.9343 17.6943 30.4973C17.6943 30.0604 18.0484 29.7063 18.4853 29.7063H27.0754C27.5122 29.7063 27.8664 30.0604 27.8664 30.4973C27.8664 30.9343 27.5124 31.2883 27.0754 31.2883Z" fill="#C76A1D"/>
<path d="M35.6656 27.228H18.4853C18.0484 27.228 17.6943 26.874 17.6943 26.437C17.6943 26.0001 18.0484 25.646 18.4853 25.646H35.6656C36.1025 25.646 36.4566 26.0001 36.4566 26.437C36.4566 26.874 36.1025 27.228 35.6656 27.228Z" fill="#C76A1D"/>
<path d="M27.0754 44.5444H18.4853C18.0484 44.5444 17.6943 44.1904 17.6943 43.7534C17.6943 43.3165 18.0484 42.9624 18.4853 42.9624H27.0754C27.5122 42.9624 27.8664 43.3165 27.8664 43.7534C27.8664 44.1904 27.5124 44.5444 27.0754 44.5444Z" fill="#C76A1D"/>
<path d="M35.6656 40.4841H18.4853C18.0484 40.4841 17.6943 40.1301 17.6943 39.6931C17.6943 39.2562 18.0484 38.9021 18.4853 38.9021H35.6656C36.1025 38.9021 36.4566 39.2562 36.4566 39.6931C36.4566 40.1301 36.1025 40.4841 35.6656 40.4841Z" fill="#C76A1D"/>
<path d="M27.8399 7.45147H14.1601C12.8599 7.45147 11.8021 6.39373 11.8021 5.09351V2.35807C11.8022 1.05785 12.8599 0 14.1601 0H27.8398C29.14 0 30.1978 1.05785 30.1978 2.35807V5.09351C30.1978 6.39373 29.1401 7.45147 27.8399 7.45147ZM14.1601 1.58203C13.7322 1.58203 13.3841 1.93018 13.3841 2.35807V5.09351C13.3841 5.52139 13.7322 5.86944 14.1601 5.86944H27.8398C28.2676 5.86944 28.6158 5.52129 28.6158 5.09351V2.35807C28.6158 1.93008 28.2676 1.58203 27.8398 1.58203H14.1601Z" fill="#C76A1D"/>
<path d="M11.1826 19.0927H7.66705C6.49603 19.0927 5.54333 18.14 5.54333 16.969V13.4536C5.54333 12.2825 6.49603 11.3298 7.66705 11.3298H11.1826C12.3537 11.3298 13.3064 12.2825 13.3064 13.4536V16.9691C13.3064 18.14 12.3537 19.0927 11.1826 19.0927ZM7.66705 12.9119C7.36837 12.9119 7.12537 13.1549 7.12537 13.4536V16.9691C7.12537 17.2678 7.36837 17.5108 7.66705 17.5108H11.1826C11.4813 17.5108 11.7243 17.2678 11.7243 16.9691V13.4536C11.7243 13.1549 11.4813 12.9119 11.1826 12.9119H7.66705Z" fill="#EB5757"/>
<path d="M11.1826 32.3487H7.66705C6.49603 32.3487 5.54333 31.396 5.54333 30.225V26.7094C5.54333 25.5384 6.49603 24.5857 7.66705 24.5857H11.1826C12.3537 24.5857 13.3064 25.5384 13.3064 26.7094V30.225C13.3064 31.396 12.3537 32.3487 11.1826 32.3487ZM7.66705 26.1677C7.36837 26.1677 7.12537 26.4107 7.12537 26.7094V30.225C7.12537 30.5237 7.36837 30.7667 7.66705 30.7667H11.1826C11.4813 30.7667 11.7243 30.5237 11.7243 30.225V26.7094C11.7243 26.4107 11.4813 26.1677 11.1826 26.1677H7.66705Z" fill="#EB5757"/>
<path d="M11.1826 45.6047H7.66705C6.49603 45.6047 5.54333 44.652 5.54333 43.4809V39.9654C5.54333 38.7943 6.49603 37.8416 7.66705 37.8416H11.1826C12.3537 37.8416 13.3064 38.7943 13.3064 39.9654V43.4809C13.3064 44.652 12.3537 45.6047 11.1826 45.6047ZM7.66705 39.4237C7.36837 39.4237 7.12537 39.6668 7.12537 39.9655V43.481C7.12537 43.7797 7.36837 44.0228 7.66705 44.0228H11.1826C11.4813 44.0228 11.7243 43.7797 11.7243 43.481V39.9655C11.7243 39.6668 11.4813 39.4237 11.1826 39.4237H7.66705Z" fill="#EB5757"/>
<path d="M37.8276 54H4.17233C2.28275 54 0.745544 52.4628 0.745544 50.5733V6.36149C0.745544 4.47202 2.28286 2.93481 4.17233 2.93481H8.91262C9.34947 2.93481 9.70364 3.28887 9.70364 3.72583C9.70364 4.16279 9.34947 4.51685 8.91262 4.51685H4.17233C3.15508 4.51685 2.32758 5.34435 2.32758 6.36149V50.5732C2.32758 51.5904 3.15519 52.4179 4.17233 52.4179H37.8276C38.8449 52.4179 39.6724 51.5903 39.6724 50.5732V6.36149C39.6724 5.34425 38.8448 4.51685 37.8276 4.51685H33.0873C32.6505 4.51685 32.2963 4.16279 32.2963 3.72583C32.2963 3.28887 32.6505 2.93481 33.0873 2.93481H37.8276C39.7172 2.93481 41.2544 4.47202 41.2544 6.36149V50.5732C41.2544 52.4628 39.7171 54 37.8276 54Z" fill="#C76A1D"/>
</svg>
