<svg width="54" height="54" viewBox="0 0 54 54" fill="none" xmlns="http://www.w3.org/2000/svg">
<path d="M48.1362 6.76361H43.0093V1.63645C43.0093 0.734062 42.2752 0 41.3728 0H39.682C38.7796 0 38.0455 0.734062 38.0455 1.63645V6.76361H14.3182C13.4158 6.76361 12.6817 7.49767 12.6817 8.40006V15.7904L5.57749 8.6862C5.35126 8.45986 5.01091 8.39236 4.71549 8.5147C4.41986 8.63715 4.22717 8.92561 4.22717 9.2455V41.3726C4.22717 41.8095 4.58134 42.1637 5.01819 42.1637H12.6817V44.7543C12.6817 45.1911 13.0358 45.5453 13.4727 45.5453C13.9095 45.5453 14.2637 45.1911 14.2637 44.7543V42.1637H37.1453C37.4653 42.1637 37.7537 41.971 37.8761 41.6753C37.9986 41.3797 37.9309 41.0396 37.7046 40.8133L14.2638 17.3724V8.40006C14.2638 8.37 14.2883 8.34564 14.3183 8.34564H38.0456V27C38.0456 27.0735 38.0559 27.1466 38.0761 27.2174L39.767 33.1355C39.864 33.4752 40.1744 33.7092 40.5275 33.7092C40.8806 33.7092 41.1911 33.475 41.288 33.1355L42.9789 27.2174C42.9991 27.1467 43.0094 27.0735 43.0094 27V12.6274C43.0094 12.1905 42.6552 11.8363 42.2184 11.8363C41.7815 11.8363 41.4274 12.1905 41.4274 12.6274V25.3635H39.6277V4.96378H41.4274V9.24529C41.4274 9.68214 41.7815 10.0363 42.2184 10.0363C42.6552 10.0363 43.0094 9.68214 43.0094 9.24529V8.34564H48.1363C48.1664 8.34564 48.1908 8.37 48.1908 8.40006V48.1363C48.1908 50.4972 46.2701 52.418 43.909 52.418C41.79 52.418 39.9676 50.8389 39.6702 48.7448C39.5568 47.9469 38.8633 47.3452 38.0571 47.3452H9.33123C8.83595 47.3452 8.37072 47.5649 8.05495 47.9479C7.74983 48.3181 7.62654 48.7966 7.71682 49.2609C8.2507 52.007 10.6715 54 13.4728 54H43.909C47.1423 54 49.7728 51.3696 49.7728 48.1363V8.40006C49.7727 7.49767 49.0386 6.76361 48.1362 6.76361ZM35.2357 40.5817H5.80931V40.5816V11.1552L35.2357 40.5817ZM41.4111 26.9456L40.5274 30.0389L39.6436 26.9456H41.4111ZM41.4273 3.38175H39.6275V1.63645C39.6275 1.60639 39.6519 1.58203 39.682 1.58203H41.3728C41.4029 1.58203 41.4273 1.60639 41.4273 1.63645V3.38175ZM13.4728 52.418C11.4271 52.418 9.65955 50.9632 9.26942 48.9644C9.27227 48.9554 9.29632 48.9273 9.33133 48.9273H38.0571C38.081 48.9273 38.1006 48.9441 38.1038 48.9673C38.2972 50.3281 38.96 51.5301 39.9134 52.418H13.4728Z" fill="#C76A1D"/>
<path d="M25.8684 35.7406L10.6502 20.5225C10.424 20.2961 10.0837 20.2286 9.78825 20.351C9.49262 20.4734 9.29993 20.7619 9.29993 21.0818V36.2999C9.29993 36.7367 9.65409 37.0909 10.0909 37.0909H25.3091C25.6291 37.0909 25.9175 36.8982 26.0399 36.6026C26.1624 36.3069 26.0947 35.9668 25.8684 35.7406ZM12.6817 35.5088H10.882V22.9915L12.6817 24.7912V35.5088ZM14.2638 35.5088V26.3733L23.3995 35.5088H14.2638Z" fill="#EB5757"/>
</svg>
