<svg width="90" height="90" viewBox="0 0 90 90" fill="none" xmlns="http://www.w3.org/2000/svg">
<circle cx="45" cy="45" r="44.5" stroke="white" stroke-opacity="0.3"/>
<path d="M61.4333 33.3832H55.2V28.8499C55.2 28.5369 54.9463 28.2832 54.6333 28.2832H35.3667C35.0537 28.2832 34.8 28.5369 34.8 28.8499V36.7832H28.5667C28.2537 36.7832 28 37.0369 28 37.3499V60.5832C28 60.8961 28.2537 61.1499 28.5667 61.1499C28.8796 61.1499 29.1333 60.8961 29.1333 60.5832V37.9165H34.8V61.1499C34.8 61.4628 35.0537 61.7165 35.3667 61.7165H54.6333C54.9463 61.7165 55.2 61.4628 55.2 61.1499V34.5165H60.8667V60.5832C60.8667 60.8961 61.1204 61.1499 61.4333 61.1499C61.7463 61.1499 62 60.8961 62 60.5832V33.9499C62 33.6369 61.7463 33.3832 61.4333 33.3832ZM44.4333 60.5832H42.1667V55.4832H44.4333V60.5832ZM47.8333 60.5832H45.5667V55.4832H47.8333V60.5832ZM54.0667 60.5832H48.9667V54.9165C48.9667 54.6036 48.7129 54.3499 48.4 54.3499H41.6C41.2871 54.3499 41.0333 54.6036 41.0333 54.9165V60.5832H35.9333V29.4165H54.0667V60.5832Z" fill="white"/>
<path d="M41.0333 30.5498H37.6333C37.3204 30.5498 37.0667 30.8035 37.0667 31.1165V34.5165C37.0667 34.8294 37.3204 35.0831 37.6333 35.0831H41.0333C41.3463 35.0831 41.6 34.8294 41.6 34.5165V31.1165C41.6 30.8035 41.3463 30.5498 41.0333 30.5498ZM40.4667 33.9498H38.2V31.6831H40.4667V33.9498Z" fill="white"/>
<path d="M46.7 30.5498H43.3C42.9871 30.5498 42.7333 30.8035 42.7333 31.1165V34.5165C42.7333 34.8294 42.9871 35.0831 43.3 35.0831H46.7C47.0129 35.0831 47.2667 34.8294 47.2667 34.5165V31.1165C47.2667 30.8035 47.0129 30.5498 46.7 30.5498ZM46.1333 33.9498H43.8667V31.6831H46.1333V33.9498Z" fill="white"/>
<path d="M52.3667 30.5498H48.9667C48.6537 30.5498 48.4 30.8035 48.4 31.1165V34.5165C48.4 34.8294 48.6537 35.0831 48.9667 35.0831H52.3667C52.6796 35.0831 52.9333 34.8294 52.9333 34.5165V31.1165C52.9333 30.8035 52.6796 30.5498 52.3667 30.5498ZM51.8 33.9498H49.5333V31.6831H51.8V33.9498Z" fill="white"/>
<path d="M41.0333 36.2168H37.6333C37.3204 36.2168 37.0667 36.4705 37.0667 36.7835V40.1835C37.0667 40.4964 37.3204 40.7501 37.6333 40.7501H41.0333C41.3463 40.7501 41.6 40.4964 41.6 40.1835V36.7835C41.6 36.4705 41.3463 36.2168 41.0333 36.2168ZM40.4667 39.6168H38.2V37.3501H40.4667V39.6168Z" fill="white"/>
<path d="M46.7 36.2168H43.3C42.9871 36.2168 42.7333 36.4705 42.7333 36.7835V40.1835C42.7333 40.4964 42.9871 40.7501 43.3 40.7501H46.7C47.0129 40.7501 47.2667 40.4964 47.2667 40.1835V36.7835C47.2667 36.4705 47.0129 36.2168 46.7 36.2168ZM46.1333 39.6168H43.8667V37.3501H46.1333V39.6168Z" fill="white"/>
<path d="M52.3667 36.2168H48.9667C48.6537 36.2168 48.4 36.4705 48.4 36.7835V40.1835C48.4 40.4964 48.6537 40.7501 48.9667 40.7501H52.3667C52.6796 40.7501 52.9333 40.4964 52.9333 40.1835V36.7835C52.9333 36.4705 52.6796 36.2168 52.3667 36.2168ZM51.8 39.6168H49.5333V37.3501H51.8V39.6168Z" fill="white"/>
<path d="M41.0333 41.8833H37.6333C37.3204 41.8833 37.0667 42.137 37.0667 42.45V45.85C37.0667 46.1629 37.3204 46.4166 37.6333 46.4166H41.0333C41.3463 46.4166 41.6 46.1629 41.6 45.85V42.45C41.6 42.137 41.3463 41.8833 41.0333 41.8833ZM40.4667 45.2833H38.2V43.0166H40.4667V45.2833Z" fill="white"/>
<path d="M46.7 41.8833H43.3C42.9871 41.8833 42.7333 42.137 42.7333 42.45V45.85C42.7333 46.1629 42.9871 46.4166 43.3 46.4166H46.7C47.0129 46.4166 47.2667 46.1629 47.2667 45.85V42.45C47.2667 42.137 47.0129 41.8833 46.7 41.8833ZM46.1333 45.2833H43.8667V43.0166H46.1333V45.2833Z" fill="white"/>
<path d="M52.3667 41.8833H48.9667C48.6537 41.8833 48.4 42.137 48.4 42.45V45.85C48.4 46.1629 48.6537 46.4166 48.9667 46.4166H52.3667C52.6796 46.4166 52.9333 46.1629 52.9333 45.85V42.45C52.9333 42.137 52.6796 41.8833 52.3667 41.8833ZM51.8 45.2833H49.5333V43.0166H51.8V45.2833Z" fill="white"/>
<path d="M41.0333 47.5498H37.6333C37.3204 47.5498 37.0667 47.8035 37.0667 48.1165V51.5165C37.0667 51.8294 37.3204 52.0831 37.6333 52.0831H41.0333C41.3463 52.0831 41.6 51.8294 41.6 51.5165V48.1165C41.6 47.8035 41.3463 47.5498 41.0333 47.5498ZM40.4667 50.9498H38.2V48.6831H40.4667V50.9498Z" fill="white"/>
<path d="M46.7 47.5498H43.3C42.9871 47.5498 42.7333 47.8035 42.7333 48.1165V51.5165C42.7333 51.8294 42.9871 52.0831 43.3 52.0831H46.7C47.0129 52.0831 47.2667 51.8294 47.2667 51.5165V48.1165C47.2667 47.8035 47.0129 47.5498 46.7 47.5498ZM46.1333 50.9498H43.8667V48.6831H46.1333V50.9498Z" fill="white"/>
<path d="M52.3667 47.5498H48.9667C48.6537 47.5498 48.4 47.8035 48.4 48.1165V51.5165C48.4 51.8294 48.6537 52.0831 48.9667 52.0831H52.3667C52.6796 52.0831 52.9333 51.8294 52.9333 51.5165V48.1165C52.9333 47.8035 52.6796 47.5498 52.3667 47.5498ZM51.8 50.9498H49.5333V48.6831H51.8V50.9498Z" fill="white"/>
<path d="M31.4 39.0498H30.8333C30.5204 39.0498 30.2667 39.3035 30.2667 39.6165V40.1831C30.2667 40.4961 30.5204 40.7498 30.8333 40.7498H31.4C31.7129 40.7498 31.9667 40.4961 31.9667 40.1831V39.6165C31.9667 39.3035 31.7129 39.0498 31.4 39.0498Z" fill="white"/>
<path d="M33.6667 39.0498H33.1C32.7871 39.0498 32.5333 39.3035 32.5333 39.6165V40.1831C32.5333 40.4961 32.7871 40.7498 33.1 40.7498H33.6667C33.9796 40.7498 34.2333 40.4961 34.2333 40.1831V39.6165C34.2333 39.3035 33.9796 39.0498 33.6667 39.0498Z" fill="white"/>
<path d="M31.4 41.3169H30.8333C30.5204 41.3169 30.2667 41.5706 30.2667 41.8836V42.4502C30.2667 42.7632 30.5204 43.0169 30.8333 43.0169H31.4C31.7129 43.0169 31.9667 42.7632 31.9667 42.4502V41.8836C31.9667 41.5706 31.7129 41.3169 31.4 41.3169Z" fill="white"/>
<path d="M33.6667 41.3169H33.1C32.7871 41.3169 32.5333 41.5706 32.5333 41.8836V42.4502C32.5333 42.7632 32.7871 43.0169 33.1 43.0169H33.6667C33.9796 43.0169 34.2333 42.7632 34.2333 42.4502V41.8836C34.2333 41.5706 33.9796 41.3169 33.6667 41.3169Z" fill="white"/>
<path d="M31.4 43.5835H30.8333C30.5204 43.5835 30.2667 43.8372 30.2667 44.1502V44.7168C30.2667 45.0298 30.5204 45.2835 30.8333 45.2835H31.4C31.7129 45.2835 31.9667 45.0298 31.9667 44.7168V44.1502C31.9667 43.8372 31.7129 43.5835 31.4 43.5835Z" fill="white"/>
<path d="M33.6667 43.5835H33.1C32.7871 43.5835 32.5333 43.8372 32.5333 44.1502V44.7168C32.5333 45.0298 32.7871 45.2835 33.1 45.2835H33.6667C33.9796 45.2835 34.2333 45.0298 34.2333 44.7168V44.1502C34.2333 43.8372 33.9796 43.5835 33.6667 43.5835Z" fill="white"/>
<path d="M31.4 45.8501H30.8333C30.5204 45.8501 30.2667 46.1038 30.2667 46.4168V46.9834C30.2667 47.2964 30.5204 47.5501 30.8333 47.5501H31.4C31.7129 47.5501 31.9667 47.2964 31.9667 46.9834V46.4168C31.9667 46.1038 31.7129 45.8501 31.4 45.8501Z" fill="white"/>
<path d="M33.6667 45.8501H33.1C32.7871 45.8501 32.5333 46.1038 32.5333 46.4168V46.9834C32.5333 47.2964 32.7871 47.5501 33.1 47.5501H33.6667C33.9796 47.5501 34.2333 47.2964 34.2333 46.9834V46.4168C34.2333 46.1038 33.9796 45.8501 33.6667 45.8501Z" fill="white"/>
<path d="M31.4 48.1167H30.8333C30.5204 48.1167 30.2667 48.3704 30.2667 48.6834V49.25C30.2667 49.563 30.5204 49.8167 30.8333 49.8167H31.4C31.7129 49.8167 31.9667 49.563 31.9667 49.25V48.6834C31.9667 48.3704 31.7129 48.1167 31.4 48.1167Z" fill="white"/>
<path d="M33.6667 48.1167H33.1C32.7871 48.1167 32.5333 48.3704 32.5333 48.6834V49.25C32.5333 49.563 32.7871 49.8167 33.1 49.8167H33.6667C33.9796 49.8167 34.2333 49.563 34.2333 49.25V48.6834C34.2333 48.3704 33.9796 48.1167 33.6667 48.1167Z" fill="white"/>
<path d="M31.4 50.3833H30.8333C30.5204 50.3833 30.2667 50.637 30.2667 50.95V51.5166C30.2667 51.8296 30.5204 52.0833 30.8333 52.0833H31.4C31.7129 52.0833 31.9667 51.8296 31.9667 51.5166V50.95C31.9667 50.637 31.7129 50.3833 31.4 50.3833Z" fill="white"/>
<path d="M33.6667 50.3833H33.1C32.7871 50.3833 32.5333 50.637 32.5333 50.95V51.5166C32.5333 51.8296 32.7871 52.0833 33.1 52.0833H33.6667C33.9796 52.0833 34.2333 51.8296 34.2333 51.5166V50.95C34.2333 50.637 33.9796 50.3833 33.6667 50.3833Z" fill="white"/>
<path d="M31.4 52.6499H30.8333C30.5204 52.6499 30.2667 52.9036 30.2667 53.2166V53.7832C30.2667 54.0962 30.5204 54.3499 30.8333 54.3499H31.4C31.7129 54.3499 31.9667 54.0962 31.9667 53.7832V53.2166C31.9667 52.9036 31.7129 52.6499 31.4 52.6499Z" fill="white"/>
<path d="M33.6667 52.6499H33.1C32.7871 52.6499 32.5333 52.9036 32.5333 53.2166V53.7832C32.5333 54.0962 32.7871 54.3499 33.1 54.3499H33.6667C33.9796 54.3499 34.2333 54.0962 34.2333 53.7832V53.2166C34.2333 52.9036 33.9796 52.6499 33.6667 52.6499Z" fill="white"/>
<path d="M31.4 54.9165H30.8333C30.5204 54.9165 30.2667 55.1702 30.2667 55.4832V56.0498C30.2667 56.3628 30.5204 56.6165 30.8333 56.6165H31.4C31.7129 56.6165 31.9667 56.3628 31.9667 56.0498V55.4832C31.9667 55.1702 31.7129 54.9165 31.4 54.9165Z" fill="white"/>
<path d="M33.6667 54.9165H33.1C32.7871 54.9165 32.5333 55.1702 32.5333 55.4832V56.0498C32.5333 56.3628 32.7871 56.6165 33.1 56.6165H33.6667C33.9796 56.6165 34.2333 56.3628 34.2333 56.0498V55.4832C34.2333 55.1702 33.9796 54.9165 33.6667 54.9165Z" fill="white"/>
<path d="M31.4 57.1831H30.8333C30.5204 57.1831 30.2667 57.4368 30.2667 57.7498V58.3164C30.2667 58.6294 30.5204 58.8831 30.8333 58.8831H31.4C31.7129 58.8831 31.9667 58.6294 31.9667 58.3164V57.7498C31.9667 57.4368 31.7129 57.1831 31.4 57.1831Z" fill="white"/>
<path d="M33.6667 57.1831H33.1C32.7871 57.1831 32.5333 57.4368 32.5333 57.7498V58.3164C32.5333 58.6294 32.7871 58.8831 33.1 58.8831H33.6667C33.9796 58.8831 34.2333 58.6294 34.2333 58.3164V57.7498C34.2333 57.4368 33.9796 57.1831 33.6667 57.1831Z" fill="white"/>
<path d="M59.1667 35.6499H56.9C56.5871 35.6499 56.3333 35.9036 56.3333 36.2166V38.4832C56.3333 38.7962 56.5871 39.0499 56.9 39.0499H59.1667C59.4796 39.0499 59.7333 38.7962 59.7333 38.4832V36.2166C59.7333 35.9036 59.4796 35.6499 59.1667 35.6499ZM58.6 37.9166H57.4667V36.7832H58.6V37.9166Z" fill="white"/>
<path d="M59.1667 40.1831H56.9C56.5871 40.1831 56.3333 40.4368 56.3333 40.7498V43.0164C56.3333 43.3294 56.5871 43.5831 56.9 43.5831H59.1667C59.4796 43.5831 59.7333 43.3294 59.7333 43.0164V40.7498C59.7333 40.4368 59.4796 40.1831 59.1667 40.1831ZM58.6 42.4498H57.4667V41.3164H58.6V42.4498Z" fill="white"/>
<path d="M59.1667 44.7168H56.9C56.5871 44.7168 56.3333 44.9705 56.3333 45.2835V47.5501C56.3333 47.8631 56.5871 48.1168 56.9 48.1168H59.1667C59.4796 48.1168 59.7333 47.8631 59.7333 47.5501V45.2835C59.7333 44.9705 59.4796 44.7168 59.1667 44.7168ZM58.6 46.9835H57.4667V45.8501H58.6V46.9835Z" fill="white"/>
<path d="M59.1667 49.25H56.9C56.5871 49.25 56.3333 49.5037 56.3333 49.8167V52.0833C56.3333 52.3963 56.5871 52.65 56.9 52.65H59.1667C59.4796 52.65 59.7333 52.3963 59.7333 52.0833V49.8167C59.7333 49.5037 59.4796 49.25 59.1667 49.25ZM58.6 51.5167H57.4667V50.3833H58.6V51.5167Z" fill="white"/>
<path d="M59.1667 53.7832H56.9C56.5871 53.7832 56.3333 54.0369 56.3333 54.3499V56.6165C56.3333 56.9295 56.5871 57.1832 56.9 57.1832H59.1667C59.4796 57.1832 59.7333 56.9295 59.7333 56.6165V54.3499C59.7333 54.0369 59.4796 53.7832 59.1667 53.7832ZM58.6 56.0499H57.4667V54.9165H58.6V56.0499Z" fill="white"/>
</svg>
