<svg width="90" height="90" viewBox="0 0 90 90" fill="none" xmlns="http://www.w3.org/2000/svg">
<circle cx="45" cy="45" r="44.5" stroke="white" stroke-opacity="0.3"/>
<path d="M63.4433 50.4096L63.3495 50.4797L63.3051 50.5024H63.2412L63.1989 50.5519L63.2247 50.5993L63.2804 50.6395L63.3289 50.6633L63.3949 50.6829L63.4351 50.6746L63.4598 50.6344L63.5176 50.4209L63.5073 50.3869L63.4433 50.4096ZM62.0677 50.1621L62.0027 50.1796L61.9893 50.1879L61.9604 50.2106L61.9481 50.2157H61.9285L61.9182 50.2106L61.9099 50.2023L61.7655 50.1425L61.6964 50.0961L61.6531 50.0414L61.617 49.9497L61.5748 49.8692L61.516 49.8321L61.4356 49.8764L61.3912 49.9796L61.3768 50.0383V50.093L61.3912 50.1477L61.4541 50.2858L61.483 50.3281L61.517 50.3456L61.5851 50.3611L61.615 50.3848L61.6263 50.4818L61.517 50.6529V50.7375L61.549 50.754L61.5861 50.7313L61.6212 50.6973L61.65 50.6767H61.6985L61.7109 50.7055L61.7171 50.7416L61.747 50.7705H61.7851L61.9058 50.7375H61.9924L62.0275 50.7241L62.0543 50.6839V50.5808L61.9419 50.4591L61.9357 50.3735L61.978 50.3333L62.0966 50.2497L62.1131 50.1982L62.0935 50.1662L62.0677 50.1621ZM66.9856 47.5603L66.9072 47.5428L66.7556 47.5521L66.704 47.515L66.669 47.4655L66.6277 47.4376L66.438 47.5253L66.3194 47.6078H66.2864L66.2936 47.5521L66.2823 47.449L66.1792 47.4211L65.8492 47.452L65.7388 47.4386L65.6357 47.3953L65.5563 47.3077L65.446 47.1365L65.3965 47.1169H65.3336L65.2871 47.0932V47.0158V46.9952V46.9839L65.2799 46.9705L65.2665 46.9602L65.1304 46.9468L65.0572 46.9251L65.0046 46.8921L64.9303 46.7766L64.8963 46.7539L64.8499 46.791L64.8365 46.8158L64.8076 46.9045L64.788 46.921L64.6932 46.9333L64.4684 47.0024L64.5034 46.922L64.521 46.8612V46.7952L64.4972 46.6178V46.5209L64.4859 46.4291L64.456 46.3641L64.391 46.3249L64.3281 46.3352L64.2693 46.3744L64.2136 46.4239L64.1456 46.4683L64.1012 46.4445L64.0621 46.3878L64.0002 46.3373L63.7939 46.3713L63.7269 46.3394L63.7135 46.1971L63.7197 46.0517L63.7042 45.9393L63.664 45.8361L63.4237 45.4814L63.4031 45.4618L63.3815 45.4535L63.365 45.468V45.5402L63.3443 45.5577L63.3206 45.5464L63.3062 45.4917L63.2794 45.4804L63.267 45.4989L63.2567 45.536L63.2412 45.5649L63.2175 45.5556V45.5144L63.2639 45.3226V45.2514L63.2505 45.1854L63.2175 45.1401L63.1618 45.1308L63.1051 45.1545L63.0742 45.1916L63.0226 45.3226L63.0484 45.3793L63.1206 45.4721L63.1298 45.534L63.1185 45.602L63.0824 45.7165L62.9968 45.9011L62.9257 45.9753L62.838 45.9929L62.7277 45.9444L62.5988 45.8289L62.5637 45.8217L62.5472 45.864L62.5699 46.4497L62.5565 46.5683L62.4987 46.6178L62.3234 46.4662L62.2595 46.5487L62.2317 46.6137H62.1976L62.1646 46.5786L62.1409 46.5312L62.1089 46.4043L62.0832 46.3651L62.0223 46.36L61.9697 46.3889L61.9625 46.4353L61.9749 46.4961L61.98 46.5673L61.9553 46.6333L61.914 46.6054L61.8501 46.4971L61.8088 46.4631L61.7129 46.4507L61.6665 46.4239L61.614 46.3827L61.5562 46.3569L61.4345 46.3342L61.3242 46.3507L61.2736 46.3456L61.2262 46.3012L61.1912 46.2527L61.1489 46.2084L61.1035 46.1754L61.0519 46.1589H60.9942L60.9447 46.1826L60.9034 46.1898L60.8715 46.1434V46.0836L60.9096 45.8774V45.8062L60.8849 45.7371L60.7415 45.4876L60.6982 45.4309L60.6498 45.3999L60.5621 45.4133L60.2527 45.5938L60.1651 45.6278H60.1032L60.0651 45.5928L60.0022 45.4742L59.965 45.4257L59.9217 45.3876L59.8269 45.3288L59.4659 45.2886L59.3711 45.238L59.3246 45.1349L59.3783 45.0452L59.7908 44.8018L59.9434 44.6812L60.0279 44.6409L60.1053 44.5884L60.1651 44.4986L60.2404 44.3367L60.3517 44.2058L60.6054 43.9882L60.6838 43.9418L60.9395 43.9129L61.0282 43.8778L61.0561 43.8211L61.0643 43.6231L61.1087 43.4984L61.2118 43.4695L61.3376 43.4757L61.4407 43.4499L61.8027 43.1797L62.0151 43.1178L62.11 43.0508L62.1481 42.9229L62.0574 42.892L61.6985 42.6342L61.617 42.6002L61.5356 42.6115L61.4221 42.695L61.3654 42.7476L61.2788 42.8188L61.1922 42.8899L61.1437 42.9157L61.0952 42.9394L61.0468 42.9467L60.9983 42.9539L60.9395 42.9374L60.8797 42.9209H60.8457H60.8148L60.7962 42.9446L60.7776 42.9704L60.7673 43.0013L60.757 43.0333L60.7436 43.057L60.7302 43.0797L60.6941 43.123L60.658 43.1663L60.6281 43.222L60.5982 43.2777L60.5508 43.4035L60.524 43.454L60.4971 43.5045L60.4569 43.5241L60.4167 43.5437H60.3868H60.3559L60.3291 43.5334L60.3022 43.5221L60.2826 43.5025L60.2631 43.4819L60.2538 43.4499L60.2445 43.4179L60.2352 43.3952L60.2259 43.3726L60.2053 43.3499L60.1847 43.3272L60.162 43.3107L60.1383 43.2931H60.1187H60.1001L59.9753 43.3478L59.8506 43.4014L59.7949 43.4499L59.7402 43.4973L59.7083 43.5664L59.6773 43.6365L59.668 43.6664L59.6588 43.6974L59.6423 43.7149L59.6258 43.7335L59.6051 43.7448L59.5835 43.7562L59.5608 43.7644L59.5371 43.7727L59.5154 43.785L59.4927 43.7974L59.4752 43.817L59.4566 43.8356L59.37 43.9861L59.2824 44.1367L59.2504 44.1748L59.2174 44.213L59.1143 44.2914L59.0112 44.3697L58.939 44.3966L58.8678 44.4223L58.8482 44.4388L58.8286 44.4543L58.8101 44.4811L58.7925 44.5079L58.7544 44.5533L58.7152 44.5997L58.6616 44.6224L58.609 44.6451H58.4656L58.3233 44.6502L58.1501 44.6987L57.9779 44.7472L57.9552 44.7637L57.9346 44.7812L57.8974 44.8235L57.8603 44.8658L57.7304 44.9689L57.6005 45.072L57.5272 45.0947L57.454 45.1184L57.42 45.1432L57.386 45.1679L57.3695 45.2122L57.353 45.2566L57.3581 45.2751V45.2927L57.3798 45.3319L57.4004 45.3711V45.3896V45.4071L57.3849 45.4154L57.3695 45.4247L57.2931 45.4102L57.2179 45.3958L57.1983 45.402L57.1787 45.4071L57.1302 45.4391L57.0807 45.47H57.0611H57.0426L57.0044 45.4566L56.9673 45.4422H56.9467H56.925L56.8559 45.4865L56.7858 45.5319L56.7538 45.5618L56.7229 45.5928L56.7105 45.6278L56.6971 45.6639L56.6734 45.6546L56.6497 45.6454L56.6249 45.6515L56.6012 45.6598L56.5424 45.6897L56.4826 45.7175L56.4723 45.7268L56.462 45.7351L56.4558 45.7474L56.4496 45.7598V45.7732V45.7877L56.461 45.8031L56.4733 45.8176H56.4795H56.4857V45.8238V45.8299V45.8495V45.8702V45.9258L56.4651 46.0867L56.4455 46.2486L56.4352 46.2682L56.4249 46.2878L56.4032 46.3095L56.3815 46.3311L56.3372 46.361L56.2939 46.392L56.2475 46.4146L56.2011 46.4363L56.1454 46.4435L56.0918 46.4518L56.065 46.459L56.0382 46.4683L56.0217 46.4899L56.0052 46.5116L55.999 46.5714L55.967 46.6271L55.8793 46.6652L55.7917 46.7034L55.7556 46.7436L55.7205 46.7828L55.6741 46.9189L55.6267 47.054L55.6009 47.086L55.5751 47.1179L55.4968 47.152L55.4174 47.186L55.3823 47.2118L55.3462 47.2355L55.3328 47.2747L55.3184 47.3149H55.3122L55.307 47.3097H55.2947L55.2833 47.3046H55.2771H55.272V47.3417V47.3799V47.417V47.4345V47.45L55.2637 47.4696L55.2555 47.4881L55.2472 47.4943L55.239 47.5005L55.2317 47.5098L55.2245 47.517L55.2194 47.5428V47.5696L55.2317 47.7109L55.2451 47.8522L55.2534 47.8831L55.2617 47.9151L55.273 47.9285L55.2833 47.9419L55.2957 47.9491L55.3081 47.9563L55.34 47.9635L55.372 47.9718V48.0141L55.3771 48.0347V48.0574L55.3854 48.077L55.3947 48.0976L55.406 48.1162L55.4163 48.1357V48.1471V48.1584L55.3854 48.209L55.3545 48.2605L55.3782 48.2729L55.404 48.2863L55.3957 48.308L55.3875 48.3306L55.3606 48.3461L55.3328 48.3626L55.2988 48.3575L55.2647 48.3523L55.2142 48.3276L55.1627 48.3028H55.1482H55.1327L55.1204 48.3111L55.109 48.3183L55.1018 48.3337L55.0946 48.3482L55.0853 48.3606L55.076 48.3719H55.0368L55.0214 48.3874L55.0059 48.4039V48.4121V48.4214L54.7048 48.2626L54.4026 48.1038L54.316 48.0357L54.2304 47.9677L54.1139 47.8522L53.9963 47.7367L53.9572 47.714L53.918 47.6923L53.8674 47.682L53.8169 47.6707L53.8087 47.6645L53.8004 47.6583V47.6449V47.6325L53.8128 47.6212L53.8241 47.6109L53.8695 47.5913L53.9138 47.5706L53.9355 47.5541L53.9561 47.5366L53.9757 47.516L53.9943 47.4943L54.0232 47.45L54.0417 47.4067L54.0623 47.3623L54.0809 47.3066L54.0995 47.252L54.1129 47.1942L54.1252 47.1386V47.0416L54.1139 47.022L54.1036 47.0014L54.0984 46.9942L54.0912 46.9859L54.0809 46.9808L54.0706 46.9746H54.0819L54.0922 46.9684L54.1222 46.9478L54.1521 46.9251H54.1407H54.1283V46.9096V46.8942V46.8859V46.8508L54.1232 46.8148H54.0953H54.0685L54.051 46.8529L54.0324 46.89L54.019 46.8725L54.0056 46.855H53.9891H53.9737L53.9572 46.8622L53.9407 46.8704L53.9252 46.8828L53.9108 46.8952L53.8932 46.8673L53.8767 46.8405L53.8664 46.7745L53.8561 46.7085L53.8427 46.6797L53.8303 46.6487L53.7736 46.5745L53.7169 46.5002L53.7086 46.4817L53.6983 46.4631L53.6829 46.4157L53.6674 46.3672L53.6344 46.3878L53.6024 46.4085L53.5282 46.458L53.4539 46.5075H53.4292H53.4044L53.3766 46.4971L53.3487 46.4879L53.2951 46.459L53.2405 46.4311L53.2116 46.4229L53.1817 46.4146L52.8548 46.4342L52.5217 46.4538L52.3155 46.4672L51.9896 46.4868L51.7153 46.5023L51.342 46.525L51.0914 46.5394L50.7944 46.558L50.6913 46.5312L50.5882 46.5023L50.5315 46.4332L50.4737 46.3631L50.3644 45.8629L50.2241 45.3226L50.1427 44.9008L50.0612 44.479L50.0169 44.0459L49.9725 43.6128H49.9653H49.9591H49.9509H49.9416H49.0331H48.7237L48.7124 43.6046L48.7021 43.5953V43.5778V43.5592L48.7114 42.8889L48.7206 42.2155L48.7289 42.1928L48.7361 42.1691L48.766 42.1567L48.7969 42.1454L48.8093 42.1155L48.8217 42.0856L48.8279 41.9938L48.8351 41.9031L48.8898 41.041L48.9454 40.1768L48.5742 40.3614L48.204 40.5615H48.1823H48.1597L47.9957 40.2232L47.8039 39.8283L47.6647 39.5426L47.4471 39.093L47.3966 39.0487L47.346 39.0043L47.081 38.8373L46.8211 38.6671L46.6933 38.533L46.5664 38.398L46.2901 38.0391L46.0137 37.6802L45.9704 37.641L45.924 37.5998L45.8425 37.5864L45.7961 37.605L45.7497 37.6214L45.5001 37.7607L45.2465 37.9092L44.999 38.0453L44.7422 38.1886L44.6968 38.201L44.6525 38.2144L44.5112 38.201L44.1565 38.169L43.8017 38.1371L43.446 38.1051L43.0912 38.0721L42.7014 38.037L42.3106 38.002L41.9208 37.9659L41.53 37.9308L41.2959 37.969L41.0618 38.0071L40.8277 38.0453L40.5946 38.0824L40.3606 38.1206L40.1265 38.1587L39.8924 38.1969L39.6583 38.235L39.5139 38.2618L39.3696 38.2886L39.2252 38.3144L39.0798 38.3412L38.9901 38.3577L38.8993 38.3742L38.8096 38.3907L38.7189 38.4083L38.5013 38.4485L38.4497 38.4258L38.3981 38.4031L38.2063 38.1824L38.062 38.0174L37.9186 37.8524L37.7743 37.6864L37.6309 37.5214L37.4835 37.3513L37.3339 37.178L37.1865 37.0089L37.039 36.8388L36.8596 36.6325L36.7193 36.4809L36.5791 36.3293L36.2852 36.0117L36.1346 35.7694L36.1088 35.6859L36.0965 35.5002L36.08 35.4136L36.0336 35.3187L35.9676 35.2445L35.8077 35.1414L35.5809 34.9908L35.2715 34.7846L34.8982 34.536L34.4702 34.2514L34 33.9421L33.503 33.61L32.9873 33.2666L32.4717 32.9232L31.9685 32.585L31.4972 32.2632L31.0569 31.9673L30.6661 31.7043L30.3392 31.4847L30.0896 31.3156L29.9298 31.2062L29.8741 31.1681L29.6782 31.0371L29.608 31.0062L29.5472 31L29.341 31.0598L29.1873 31.1031L29.0326 31.1475L28.8779 31.1939L28.7243 31.2392L28.5758 31.2826L28.4273 31.3269L28.2798 31.3702L28.1303 31.4125L27.8106 31.5156L27.4899 31.6136L27.1692 31.7167L26.8495 31.8198L26.6093 31.8848L26.369 31.9621L26.1287 32.0395L25.8874 32.1168L25.6471 32.1942L25.4069 32.2715L25.1656 32.3488L24.9253 32.4262L24.685 32.5025L24.4437 32.5798L24.2034 32.6572L23.9632 32.7335L23.7219 32.8108L23.4826 32.8871L23.2423 32.9645L23.0062 33.0418H23V45.9083L23.4125 45.931L23.8899 45.9568L24.5087 45.9908L25.081 46.0217L25.3233 46.0723L25.6327 46.1383L25.6822 46.1094L25.7606 45.9661L25.8111 45.9073L25.9307 45.8475L25.9854 45.8083L26.0142 45.7743L26.0194 45.7505L25.9998 45.7361L25.8874 45.7041L25.8482 45.6856L25.8121 45.6588L25.7554 45.5959L25.7069 45.5113L25.6719 45.4175L25.6605 45.3226V45.203L25.6502 45.0998L25.6214 45.0112L25.5646 44.9173L25.5182 44.7946V44.6915L25.5389 44.5811L25.545 44.4533L25.4883 44.1831V44.0501L25.5605 43.9469L25.8059 43.8314L25.9091 43.751L26.005 43.6087L26.1462 43.3447L26.3525 43.1385L26.5928 43.0209L26.8392 43.0106L27.2012 43.0745L27.3208 43.0508L27.4621 42.9807L27.5116 42.9683L27.6869 42.9766L27.7364 42.9663L27.7931 42.925L27.7849 42.892L27.7519 42.8559L27.7333 42.8013L27.7539 42.7559L27.8519 42.7239L27.889 42.6837L27.9921 42.4445L28.0148 42.363L28.0097 42.3094L27.955 42.1918L27.9406 42.1L27.9839 42.0629L28.054 42.032L28.119 41.9567L28.1417 41.9165L28.1695 41.8814L28.2159 41.8598L28.2726 41.8494H28.3304L28.3799 41.867L28.417 41.9041L28.4747 41.9917L28.516 42.0155H28.5572L28.65 41.9753L28.6964 41.968L28.7532 41.9783L29.0079 42.098L29.0945 42.1619L29.1605 42.2506L29.1863 42.3733L29.178 42.4362L29.1646 42.495V42.5496L29.1945 42.5971L29.2368 42.6074L29.4008 42.5826L29.4327 42.563L29.442 42.5352L29.4296 42.5053L29.4008 42.4775L29.2976 42.3547L29.1079 42.0454L29.0388 41.8845L28.9604 41.7628L28.8697 41.6927L28.549 41.5411L28.5015 41.4978L28.4871 41.4318L28.5108 41.3813L28.5572 41.3462L28.6542 41.3029L28.7903 41.2204L28.8377 41.2049H28.8996L29.1873 41.3235L29.3193 41.3534L29.4503 41.3627L29.5534 41.3307L29.608 41.2276L29.6431 40.9327L29.6905 40.8543L29.7524 40.8894L30.3041 41.5401L30.4753 41.6989L30.6558 41.7804L30.7702 41.7999H30.8445L30.9187 41.7793L30.993 41.7432L31.059 41.736L31.1208 41.7752L31.2838 41.9443L31.3199 42.0031L31.3436 42.0691L31.3745 42.3331L31.4086 42.395L31.4818 42.4341L31.6127 42.4496L31.6725 42.4692L31.7757 42.5795L31.8396 42.6043H31.9726L32.514 42.5208L32.7368 42.5414L32.8512 42.527L32.9667 42.5393L33.0482 42.629L33.1193 42.7404L33.2091 42.8219L33.3225 42.8662L33.3813 42.9013L33.4132 42.9467L33.404 43.0034L33.3617 43.0343L33.3101 43.056L33.2678 43.0869L33.2441 43.2467L33.2946 43.4159L33.3019 43.551L33.1503 43.6108L33.1049 43.6242L33.076 43.6582V43.7036L33.1039 43.752L33.141 43.7685H33.274L33.5432 43.8717L33.6185 43.9366L33.7061 44.0707L33.7453 44.1109L33.8659 44.1831L33.902 44.214L33.933 44.2532L33.9588 44.3006V44.3491L33.9288 44.3935L33.8886 44.3996L33.8391 44.377L33.7504 44.3202L33.6545 44.2903L33.5741 44.2976L33.504 44.346L33.437 44.4399L33.4607 44.5595L33.5401 44.7121L33.7102 44.9534L33.7339 45.0153L33.6989 45.0586L33.5958 45.1122L33.5514 45.1514L33.5184 45.1978L33.4988 45.2566L33.4658 45.5299L33.4844 45.6103L33.5566 45.6814L33.8371 45.8258L34.0825 45.9527L34.2382 46.0661L34.3764 46.2063L34.4506 46.2589L34.5393 46.2847H34.693L35.0023 46.1816L35.518 46.1507L35.6974 46.194L35.8191 46.3218L35.8366 46.3074L35.8531 46.2888L35.9016 46.2043L35.9119 46.2125L35.9201 46.2424L35.9335 46.2734L36.0851 46.2476H36.1315L36.3945 46.4353L36.4976 46.4786H36.5956L36.6843 46.4342L36.7564 46.3548L36.8049 46.2517L36.8678 46.2156L36.8926 46.096L36.9276 46.0248L36.9843 45.997L37.0792 46.0073L37.3277 46.0733L37.5515 46.1692L38.1238 46.591L38.1744 46.6456L38.3621 46.9622L38.3837 47.0179L38.393 47.088L38.3992 47.3262L38.4115 47.3757L38.393 47.4005L38.4208 47.4675L38.5013 47.7501L38.5312 47.9048L38.5518 47.9759L38.5796 48.0203L38.6642 48.1131L38.6931 48.1605L38.7457 48.3667L38.7807 48.4379L38.8756 48.5647L38.8911 48.5967L38.9117 48.673L38.9282 48.7019L38.9839 48.7442L39.1056 48.7803L39.317 48.903L39.3417 48.9329L39.35 49.0742L39.3654 49.136L39.4314 49.268L39.4531 49.3299L39.4624 49.3959V49.4846L39.4727 49.5526L39.551 49.7238L39.5614 49.795L39.5469 49.8538L39.5263 49.9146L39.515 49.9868L39.5222 50.0641L39.5665 50.2508L39.5954 50.3405L39.7789 50.5715L39.8068 50.587L39.9543 50.7365L40.2543 50.951L40.6039 51.2005L41.0164 51.4975L41.862 52.0987L42.2178 52.3514L42.3797 52.506L42.655 52.8907L42.8107 53.0505L43.0953 53.2568L43.4532 53.5125L43.8657 53.8064L43.943 53.8466L44.0183 53.86L44.0843 53.8466L44.2833 53.7435L44.3606 53.7332L44.4215 53.7714L44.6442 54.0601L45.1836 54.5149L45.5125 54.7036L45.893 54.8211L46.0652 54.9294L46.4066 55.2388L46.6489 55.4574L46.9944 55.6925L47.2491 55.8637L47.6698 56.1483L47.8431 56.2061L48.0194 56.1906L48.0844 56.1555L48.2092 56.0524L48.2813 56.0235L48.369 56.0307L48.6268 56.1555L48.7959 56.1823L48.8681 56.2195L49.0269 56.3473L49.1929 56.3948L49.2765 56.434L49.3517 56.5061L49.4714 56.6557L49.7292 56.7804L49.8096 56.8052H50.0055L50.1035 56.831L50.1963 56.8753L50.2819 56.9382L50.3366 57.0929L50.2427 57.2775L50.1014 57.4621L50.0179 57.626L50.0086 57.7529L50.0282 58.0055L50.0189 58.1344L49.9622 58.35L49.9529 58.4655L49.988 58.5572L50.0385 58.5995L50.0787 58.6439L50.0891 58.6944L50.0488 58.7614L50.0014 58.8109L49.9622 58.8656L49.956 58.9254L50.02 58.9728L50.0695 58.9584L50.1355 58.9532L50.1963 58.9594L50.3665 59.0316L50.3974 59.0378H50.4665L50.4943 59.0285L50.5449 58.9842L50.5717 58.9749L50.9068 58.9604L51.143 58.9037H51.2657L51.3131 58.9254L51.4162 58.9996L51.4699 59.0161L51.5008 59.045L51.5441 59.1832L51.5678 59.2327L51.6194 59.2657L51.7328 59.309L51.7844 59.3554L51.8102 59.4111L51.8287 59.4719L51.8586 59.5204L51.9153 59.5431L51.9731 59.5317L52.07 59.4688L52.136 59.4534H52.1989L52.2536 59.4369L52.3051 59.4111L52.3567 59.3719L52.4402 59.2884L52.4877 59.2523L52.5413 59.2368L52.6001 59.2667L52.6485 59.3987L52.6908 59.4369L52.7176 59.4255L52.7372 59.3956L52.7537 59.3626L52.7692 59.3482H52.796L52.8455 59.3327H52.8744L52.9033 59.3399L52.9589 59.3832L52.9878 59.3977H53.0198H53.1116L53.1642 59.41L53.2095 59.4379L53.2405 59.4812L53.2518 59.54L53.2631 59.4936L53.3116 59.3977L53.3415 59.2894L53.3539 59.1739L53.3456 59.0378L53.2951 58.7841L53.3044 58.649L53.3766 58.451L53.4859 58.2633L53.6179 58.0942L53.7561 57.9633L53.9427 57.7024L54.018 57.5539L54.1273 57.2259L54.1727 57.1775L54.2521 57.1517L54.3717 57.1362L54.4109 57.1228L54.4511 57.0939L54.4707 57.0527L54.482 57.0032L54.5016 56.9485L54.5326 56.8856L54.6357 56.734L54.6996 56.5536L54.7409 56.3649L54.7295 56.2391L54.6677 56.1411L54.4521 55.9555L54.3191 55.8802L54.2758 55.8358L54.1809 55.6626L54.0778 55.5657L54.0541 55.5203L54.0448 55.4729L54.0397 55.3697L54.0252 55.3202L53.9633 55.2254L53.9438 55.1831L53.9376 55.1119L53.9458 54.9232L53.9407 54.8583L53.9056 54.7355L53.8994 54.6747L53.919 54.6262L53.984 54.5798L53.9974 54.5613V54.5231L53.986 54.4932L53.9706 54.4643L53.9623 54.4313L53.9716 54.3591L54.0005 54.3416H54.0458L54.1057 54.3292L54.149 54.3035L54.1882 54.2694L54.2201 54.2251L54.2428 54.1694V54.0972L54.217 54.0322L54.1428 53.9229L54.0562 53.7311L54.017 53.6837L53.9974 53.6785H53.9768H53.9561L53.9355 53.6837L53.8932 53.7157L53.8499 53.7311L53.8087 53.7229L53.7684 53.6847L53.7489 53.6724L53.7055 53.6579H53.6684L53.6323 53.6662L53.5983 53.6837L53.4044 53.7487H53.3353L53.0074 53.695L52.961 53.6486L52.9476 53.5682L52.9775 53.3125V53.2671L52.9548 53.2279L52.9373 53.2217L52.895 53.231H52.8775L52.863 53.2166L52.8424 53.1794L52.8321 53.1671L52.729 53.1258L52.5227 53.1186L52.2134 53.0082L52.1422 52.9412L52.1226 52.8092V52.7628L52.1278 52.7401L52.1402 52.7257L52.1649 52.704L52.1917 52.6948L52.2154 52.702L52.2319 52.6958L52.2515 52.5865L52.2835 52.4751V52.3534L52.301 52.2204L52.333 52.0936L52.3567 52.0637L52.3959 52.0585L52.4619 52.0678H52.4743L52.4866 52.0616L52.497 52.0523L52.5052 52.0399L52.4877 51.8935L52.5392 51.844L52.7455 51.812L52.9837 51.6419L53.0796 51.611H53.1992L54.0747 51.8378L54.4583 51.8502L54.6646 51.9244L54.7904 51.9337L54.9172 51.9224L55.075 51.8801L55.1255 51.8564L55.0977 51.7935L55.1327 51.744L55.2421 51.6739L55.3039 51.6099L55.338 51.5439L55.3514 51.4645L55.3771 50.9303L55.404 50.8582H55.4339L55.4679 50.8726L55.5545 50.7953L55.5968 50.8262L55.6659 50.9376L55.6999 50.9561L55.7174 50.9345V50.9004V50.8798L55.735 50.8303L55.7443 50.8241H55.7711L55.7804 50.8169L55.8123 50.753V50.7066L55.7556 50.5849L55.7309 50.5127L55.7216 50.4508L55.7391 50.424L55.7917 50.4611L55.8443 50.5756L55.8835 50.72L55.9423 50.8107L56.0505 50.7643L56.0423 50.6911L55.8175 50.3817L55.8041 50.3487V50.3168L55.8092 50.2487L55.7999 50.2229L55.7546 50.1868L55.7494 50.1569L55.7824 50.0951L55.8226 50.1281L55.8804 50.2312L55.9144 50.2209L56.0052 50.1415L56.0567 50.1239L56.2434 50.1538L56.3011 50.1446L56.3228 50.1033V50.0548L56.3145 50.0043L56.298 49.9569L56.1784 49.8713L55.5545 49.993L55.4648 49.9579L55.3493 49.8857L55.2833 49.8125L55.3369 49.7754L55.5834 49.7104H55.6401L55.7886 49.7362L55.8484 49.7279L55.9381 49.6764L55.9887 49.6558L56.4063 49.5908L56.4641 49.6011L56.6332 49.6867L56.8642 49.7558H56.991L57.0879 49.7114V49.632L56.9147 49.4588L56.9044 49.3557L56.9714 49.3474L57.0694 49.3846L57.1519 49.3701L57.1715 49.2062L57.155 49.1319L57.1271 49.069L57.0601 48.9483L57.0353 48.8885L56.9807 48.6998L56.8776 48.5255V48.4565L56.9693 48.3925L57.1251 48.3801L57.1612 48.3575L57.1725 48.3121L57.1539 48.1337V48.0099L57.1725 47.9068L57.2117 47.8192L57.2766 47.7346L57.3127 47.7037L57.354 47.681L57.4375 47.6542L57.4839 47.6593L57.518 47.6872L57.5499 47.7212L57.5901 47.7459L57.6716 47.7532L57.7294 47.8078L57.8325 47.9625L57.8624 47.9903L57.9273 48.0326L57.9552 48.0667L58.0026 48.1461L58.0294 48.1821L58.0614 48.211L58.1398 48.2409L58.2089 48.2193L58.2697 48.1646L58.3728 48.0285L58.4244 47.9862L58.4811 47.9584L58.9534 47.8099L59.1957 47.6232L59.4608 47.5201L59.6464 47.4077L59.7887 47.2417L59.8598 46.8849L59.9558 46.8591L60.0702 46.9076L60.1507 46.9952L60.1579 47.0066L60.1661 47.0169L60.2455 47.088L60.7137 47.616L60.7343 47.6449V47.7078L60.6828 47.6882L60.5941 47.6109L60.5435 47.617L60.5188 47.6593L60.525 47.7171L60.5652 47.7686L60.7993 47.8233L60.9024 47.881L60.8797 47.9945L60.8735 48.0233L60.8344 48.0481L60.8251 48.0625V48.078L60.8158 48.0914L60.7735 48.1017L60.7529 48.111L60.7158 48.1409L60.6776 48.176L60.5219 48.3038L60.4322 48.4152L60.3992 48.442L60.36 48.4616L60.3229 48.4719L60.2868 48.4874L60.2527 48.5225L60.1909 48.6256L60.1651 48.6586L60.1403 48.6689L59.964 48.7101L59.8877 48.7596L59.8475 48.8246V48.8947V48.9112V48.9205L59.8815 48.969L59.9032 48.9948L59.9104 49.0092L59.8753 49.1257L60.0032 49.1835L60.0568 49.1989L60.1135 49.1927L60.162 49.1783H60.2105L60.2661 49.202L60.3342 49.3134L60.3693 49.4691L60.4146 49.6104L60.5178 49.6846L60.626 49.6919L60.7354 49.6826L61.1014 49.5702L61.3283 49.5495H61.3809L61.4737 49.4557L61.6222 49.4299L61.9202 49.4722L62.0017 49.465L62.0367 49.4083L62.0605 49.334L62.0997 49.2732L62.1368 49.2618L62.1626 49.2825L62.1852 49.3175L62.2121 49.3485L62.2471 49.3639H62.2894L62.3698 49.3557H62.4214L62.5018 49.432L62.6173 49.467L62.6421 49.5073L62.6617 49.5568L62.7091 49.6011L62.7638 49.6351L62.8215 49.6578L62.9422 49.6826L63.0051 49.6764L63.0278 49.6382L63.0339 49.5795L63.0494 49.5155L63.0958 49.4743L63.1412 49.5135L63.1773 49.5887L63.1958 49.6568V49.7939L63.2123 49.8445L63.2639 49.8672L63.299 49.8568L63.4341 49.7774L63.4753 49.7383L63.5031 49.6919L63.5506 49.5887L63.631 49.5093H63.7238L63.8269 49.5341L63.9301 49.5423L63.96 49.533H63.9744H63.995L64.0249 49.5454L64.0662 49.5526L64.1023 49.5434L64.1188 49.5062L64.1043 49.4805L64.0693 49.4567L63.995 49.4227L63.9466 49.3876L63.928 49.3371L63.9424 49.2897L64.1642 49.1773L64.2322 49.1102L64.2683 49.0164L64.2848 48.9535L64.3075 48.9195L64.4787 48.8246L64.522 48.8133L64.6581 48.8071L64.7045 48.8122L64.7293 48.8318L64.7189 48.8658L64.6818 48.8782H64.6375L64.6086 48.8875L64.5962 48.9184L64.6282 48.9288L64.7447 48.9236L64.7819 48.938L64.9334 49.0267L65.0025 49.0525L65.0634 49.0401L65.1149 48.9679L65.1428 48.8834V48.806L65.1149 48.739L65.0036 48.6575L64.9819 48.6276V48.5895L64.9994 48.5348V48.475L64.9438 48.3822L64.953 48.3265L65.0293 48.2925L65.1139 48.3667L65.1995 48.4699L65.2727 48.507L65.3758 48.5194L65.5563 48.6441L65.6594 48.6379L65.6986 48.606L65.7234 48.5658L65.7357 48.5173V48.4678L65.7553 48.4121H65.8017L65.8966 48.4554L65.9708 48.4214L66.0008 48.1966L66.0616 48.1027L66.1513 48.0646L66.3359 48.0172L66.5555 47.879L66.7969 47.7903L66.9185 47.7212L66.9969 47.6181L66.9856 47.5603ZM60.5363 47.2066L60.493 47.1654L60.4177 47.0622L60.3755 47.0189L60.3456 46.9488L60.3878 46.9375L60.458 46.9684L60.5178 47.022L60.5528 47.0798L60.5858 47.1612V47.219L60.5363 47.2066Z" fill="white"/>
</svg>
