<svg width="90" height="90" viewBox="0 0 90 90" fill="none" xmlns="http://www.w3.org/2000/svg">
<circle cx="45" cy="45" r="44.5" stroke="white" stroke-opacity="0.3"/>
<path d="M57.9704 56.1411C57.8948 51.5203 53.1704 50.1551 49.7207 49.1583C49.3182 49.042 48.9311 48.9301 48.5684 48.8184V46.9122C49.2737 46.4702 49.8916 45.9013 50.3901 45.2377H52.4915C53.5198 45.2377 54.3565 44.401 54.3565 43.3727V41.1152C54.4811 40.8246 54.5504 40.5047 54.5504 40.1689V39.4668C54.5504 39.1313 54.4811 38.8117 54.3565 38.5213V37.3567C54.3565 32.1974 50.1592 28 45 28C39.8418 28 35.6454 32.1974 35.6454 37.3567V38.488C35.6454 38.4969 35.6464 38.5055 35.6467 38.5143C35.5201 38.8067 35.4496 39.1286 35.4496 39.4669V40.169C35.4496 41.4963 36.5286 42.5761 37.8548 42.5761H38.4036C38.7837 44.3988 39.9027 45.9534 41.4316 46.9119V48.8184C41.0688 48.9301 40.6818 49.042 40.2793 49.1583C36.8296 50.1551 32.1052 51.5204 32.0296 56.1411C32.0295 56.1447 32.0295 56.1483 32.0295 56.152V61.3359C32.0295 61.7027 32.3269 62 32.6936 62H34.6624C35.0291 62 35.3265 61.7027 35.3265 61.3359C35.3265 60.9692 35.0291 60.6719 34.6624 60.6719H33.3576V56.1575C33.3856 54.5453 34.1261 53.3368 35.6881 52.3543C36.7188 51.706 37.9788 51.2441 39.2209 50.8577L40.8253 53.9837C41.0042 54.3321 41.4621 54.4505 41.7874 54.231L42.5028 53.7484L43.117 56.0569L42.0647 60.6718H40.6255C40.2588 60.6718 39.9615 60.9691 39.9615 61.3359C39.9615 61.7026 40.2588 61.9999 40.6255 61.9999H57.3064C57.6731 61.9999 57.9704 61.7026 57.9704 61.3359V56.1519C57.9704 56.1483 57.9704 56.1447 57.9704 56.1411ZM49.352 50.4342C49.3958 50.4468 49.4403 50.4597 49.4844 50.4725L48.3364 52.7113L46.1881 51.2627L48.0083 50.0349C48.4312 50.168 48.8809 50.298 49.352 50.4342ZM45.0005 52.0637L46.332 52.9617L45.6885 55.3806H44.3115L43.6681 52.9624L45.0005 52.0637ZM45.0003 50.4618L42.7596 48.9509V47.5529C43.461 47.8009 44.2147 47.937 44.9999 47.937C45.7851 47.937 46.539 47.8014 47.2402 47.5533V48.9509L45.0003 50.4618ZM50.4101 37.4782C50.401 37.4724 50.3919 37.4666 50.3828 37.4609C49.0202 36.5935 47.8434 35.8443 45.9994 36.3719C45.9823 36.3768 45.9653 36.3824 45.9486 36.3887C45.5577 36.5355 45.2022 36.6724 44.8583 36.8047C42.7584 37.6131 41.6118 38.0545 39.5899 37.9977V37.4659C39.5899 34.4827 42.0168 32.0556 44.9999 32.0556C47.983 32.0556 50.41 34.4827 50.41 37.4659V37.4782H50.4101ZM53.0283 43.3727C53.0283 43.6687 52.7876 43.9095 52.4915 43.9095H51.1682C51.355 43.4859 51.4998 43.0397 51.5965 42.576H52.1453C52.457 42.576 52.7547 42.5157 53.0284 42.4072V43.3727H53.0283ZM53.2222 40.1689C53.2222 40.7639 52.7391 41.2479 52.1452 41.2479H51.7376C51.7377 41.2314 51.7383 38.3897 51.7383 38.3897H52.1453C52.7391 38.3897 53.2223 38.8729 53.2223 39.4668V40.1689H53.2222ZM37.8548 41.248C37.2609 41.248 36.7777 40.7639 36.7777 40.169V39.4669C36.7777 38.8729 37.2608 38.3898 37.8548 38.3898H38.2618C38.2618 38.3898 38.2623 41.2315 38.2625 41.248H37.8548ZM38.2742 37.0616H37.8547C37.5443 37.0616 37.2478 37.1213 36.9751 37.2289C37.0437 32.8607 40.6169 29.3281 45 29.3281C49.3844 29.3281 52.9585 32.8611 53.0267 37.2296C52.7536 37.1216 52.4563 37.0616 52.1452 37.0616H51.7257C51.5159 33.5335 48.5796 30.7275 45 30.7275C41.4203 30.7275 38.4841 33.5336 38.2742 37.0616ZM39.6298 41.8446C39.6298 41.844 39.6296 41.8433 39.6296 41.8426C39.6044 41.6313 39.5899 41.4166 39.5899 41.1986V39.3258C41.8619 39.3811 43.2172 38.8597 45.3355 38.0443C45.6691 37.9158 46.014 37.7831 46.3896 37.6418C47.644 37.2917 48.3658 37.7513 49.6696 38.5813C49.8959 38.7253 50.144 38.8832 50.4101 39.0453V41.1986C50.4101 42.1862 50.1428 43.1119 49.6789 43.9096H45C44.6333 43.9096 44.3359 44.2069 44.3359 44.5737C44.3359 44.9404 44.6333 45.2377 45 45.2377H48.5942C47.6378 46.0898 46.3786 46.6089 45 46.6089C42.2356 46.6088 39.9502 44.5242 39.6298 41.8446ZM41.6652 52.7114L40.516 50.4724C40.5599 50.4597 40.6043 50.4468 40.648 50.4342C41.1191 50.298 41.5688 50.1679 41.9918 50.0348L43.8128 51.2628L41.6652 52.7114ZM43.427 60.6719L44.3307 56.7087H45.6695L46.5746 60.6719H43.427ZM56.6423 60.6719H47.937L46.883 56.0568L47.4974 53.7475L48.2145 54.231C48.5401 54.4505 48.9979 54.3321 49.1767 53.9835L50.7794 50.8578C52.0214 51.2442 53.2814 51.7061 54.312 52.3543C55.8739 53.3367 56.6145 54.5453 56.6425 56.1575V60.6719H56.6423Z" fill="white"/>
<path d="M54.02 57.3516H50.6733C50.3066 57.3516 50.0092 57.6489 50.0092 58.0156C50.0092 58.3824 50.3066 58.6797 50.6733 58.6797H54.02C54.3867 58.6797 54.684 58.3824 54.684 58.0156C54.684 57.6489 54.3867 57.3516 54.02 57.3516Z" fill="white"/>
<path d="M37.644 60.6719C37.2773 60.6719 36.9799 60.9692 36.9799 61.3359C36.9799 61.7027 37.2773 62 37.644 62H37.6459C38.0126 62 38.3089 61.7027 38.3089 61.3359C38.3089 60.9692 38.0107 60.6719 37.644 60.6719Z" fill="white"/>
</svg>
