<svg width="120" height="67" viewBox="0 0 120 67" fill="none" xmlns="http://www.w3.org/2000/svg">
<path fill-rule="evenodd" clip-rule="evenodd" d="M91.5902 65.8159L89.5021 65.6506L88.4851 66.7295C87.6185 66.3104 86.7794 65.8342 85.9732 65.304L83.9622 66.3751L83.0684 66.2018L82.3749 62.7051C82.5522 62.3034 82.7294 61.9175 82.9143 61.4923L82.5367 60.7047L81.0959 60.8386L78.0601 59.7911L76.9891 59.9093L75.2169 60.1377L65.863 56.066L64.7842 56.57L62.5344 55.3966L51.624 50.2538C51.4776 49.8916 51.3389 49.5293 51.2002 49.167C51.0384 48.6472 50.8766 48.1274 50.7071 47.5919L50.1138 46.9303L49.1121 46.1428C48.4787 45.6514 47.9777 45.0038 47.6559 44.2605L46.7313 42.3862L44.6663 40.9213L43.2563 40.6142L42.6399 40.9055C42.5705 41.1969 42.5089 41.4883 42.4472 41.7876L42.1005 42.2838L40.6982 41.9215L39.8738 41.827L38.9337 42.0318L37.5468 42.4807L36.707 42.7012C36.707 42.7012 35.8748 42.4807 35.7747 42.4177C35.6745 42.3547 34.041 41.7167 34.041 41.7167L33.6635 41.1891C33.6635 41.0552 33.7174 40.9134 33.7405 40.7717L34.0179 39.7321L33.2474 39.1808C33.2474 38.976 33.2474 38.7713 33.2089 38.5586L33.9254 38.2515L34.6959 38.4641L33.1549 37.4639L32.0223 36.9993C32.0685 36.8181 32.1225 36.6291 32.1687 36.4401C32.1687 36.4401 32.1687 35.5738 32.0993 35.4084C31.9584 35.14 31.7877 34.8889 31.5908 34.6602L30.8203 34.1798L29.5721 34.6839L27.8847 34.928L26.8445 34.5657L25.9892 33.5261L24.7025 33.4159L23.2385 32.5575L21.9209 31.7699L21.5357 31.825C21.5896 32.2188 21.6358 32.6126 21.6898 32.9985L21.2121 33.3214L20.0486 33.2111L19.1009 33.4001C19.1058 33.6061 19.1395 33.8103 19.201 34.0066C19.2704 34.0774 20.927 35.5817 21.0194 35.5817C21.305 35.7553 21.5645 35.9702 21.7899 36.2196C21.6567 36.348 21.4956 36.4424 21.3199 36.4952L20.2027 35.243L18.9391 35.1249L18.5384 34.8335L17.9605 35.7313L18.1455 37.3064C18.0684 37.6529 17.9836 37.9995 17.9066 38.346C17.6458 38.5765 17.3453 38.7554 17.0205 38.8737L14.709 39.4486L14.054 40.307L13.6919 41.575C13.4222 41.7719 12.9214 41.9451 12.8675 42.1578C12.9908 42.6854 13.114 43.221 13.2296 43.7329C13.4993 44.3708 13.7613 45.0166 14.0001 45.6545L14.578 46.6153C14.6782 46.7335 14.8862 46.8358 14.8862 46.9776C14.8862 47.1194 14.6705 47.4501 14.5703 47.6864L7.57409 48.7969C5.0571 37.6923 2.5324 26.5904 0 15.4911L15.1251 6.46573L15.7415 6.35547L16.9743 6.7965L20.7652 7.84395L25.473 9.30093L28.3393 10.7815L33.1164 13.1442L34.8038 14.5539L36.1368 15.9164L41.9618 20.1377L45.3598 19.1533L49.3587 17.2237L50.7225 16.6173L53.8045 16.4126L57.8343 15.625L59.514 14.4515C59.514 14.4515 60.1304 13.538 60.2845 13.538C60.5504 13.5972 60.8089 13.687 61.055 13.8057L62.7809 15.5226L65.1387 16.4283C65.1387 16.4283 67.8355 20.1377 68.0435 19.9802C68.5033 19.571 69.0074 19.2169 69.546 18.9249C69.6153 19.0194 70.2626 22.4531 70.617 24.2251L69.9775 24.4062C70.2626 25.6427 70.5399 26.8792 70.825 28.1156L74.3925 27.7219L76.9275 33.8175H77.7365L81.6584 32.8173L82.4289 32.2503L83.6925 31.8959H84.6248L85.2027 31.951C85.486 32.2808 85.7952 32.5864 86.1273 32.8646C86.2121 32.8646 86.4817 33.0772 86.4817 33.0772L86.2275 34.361L85.7729 34.7626L88.6083 35.8888L89.4482 36.0227C89.7456 36.0023 90.0401 35.9495 90.3266 35.8652C90.3728 35.8101 90.5423 35.5974 90.5115 35.5029C90.4408 35.3389 90.3529 35.1831 90.2495 35.0383C90.0892 34.9089 89.9556 34.7483 89.8566 34.5657C89.8103 34.424 89.6948 33.9042 89.6948 33.9042L89.3711 32.7386C89.3711 32.7386 88.9782 32.3606 89.0707 32.3054L90.0723 31.6281C90.4938 31.2986 90.8719 30.9147 91.1972 30.4862C91.2666 30.2578 91.5517 29.4939 91.5671 29.3285C91.6144 29.0374 91.6919 28.7523 91.7982 28.4779C91.9376 28.2337 92.0893 27.9971 92.2529 27.7691C92.3971 27.5555 92.5937 27.3844 92.823 27.273L93.686 26.8713C93.8227 26.5506 93.9236 26.215 93.9865 25.8711C94.2647 25.5571 94.5605 25.2599 94.8726 24.9812C94.9882 24.9339 96.2132 23.8943 96.2903 23.855C96.3674 23.8156 97.3228 22.6658 97.3228 22.6658L98.4169 21.1615C98.4169 21.1615 98.7328 20.3031 98.8099 20.2007C98.8869 20.0983 99.1181 19.7439 99.2568 19.7597C99.3955 19.7754 99.6728 20.0117 99.7884 20.0511C99.904 20.0904 100.235 20.4685 100.374 20.2401C100.513 20.0117 100.721 19.5864 100.767 19.4525C100.792 19.1643 100.792 18.8744 100.767 18.5862C100.767 18.5862 101.368 17.9877 101.484 17.8932C101.599 17.7987 102.254 17.2946 102.346 17.2552C102.439 17.2159 102.847 16.9245 103.032 16.9796C103.217 17.0347 103.757 17.3025 103.757 17.3025C103.757 17.3025 104.049 17.6805 104.034 17.775C104.018 17.8695 103.263 18.8619 103.263 18.8619C103.263 18.8619 102.231 19.9329 102.154 19.9802C101.989 20.1839 101.847 20.4058 101.73 20.6417C101.594 20.8315 101.417 20.9876 101.214 21.0985C101.061 21.2089 100.931 21.3479 100.829 21.508L98.9717 24.2881C98.8086 24.4431 98.6615 24.6146 98.5325 24.8C98.5325 24.8867 98.3938 25.1308 98.6481 25.2174C98.8963 25.3014 99.1573 25.3388 99.4186 25.3277C99.5727 25.3277 99.5804 25.2096 99.9271 25.3277C100.173 25.408 100.413 25.5081 100.644 25.627C100.72 25.661 100.803 25.6786 100.886 25.6786C100.97 25.6786 101.053 25.661 101.129 25.627C101.268 25.5213 101.397 25.4026 101.514 25.2726C101.622 25.1544 101.722 25.0127 101.807 24.989C101.932 24.9692 102.06 24.9855 102.177 25.0363C102.239 25.0914 102.439 25.1151 102.462 25.2411C102.485 25.3671 103.302 27.0052 103.302 27.0052C103.302 27.0052 104.257 27.1627 104.358 27.1391C104.458 27.1154 105.29 27.0209 105.629 26.9422L106.692 26.6902C106.892 26.6429 107.039 26.761 107.178 26.6429C107.314 26.5021 107.394 26.3136 107.401 26.1152C107.401 25.879 107.44 25.7451 107.478 25.5403C107.48 25.3979 107.532 25.2608 107.624 25.1544C107.773 25.004 107.93 24.862 108.094 24.7292C108.152 24.6041 108.201 24.4751 108.241 24.3432C108.281 24.1777 108.281 24.0048 108.241 23.8392C108.207 23.6325 108.228 23.4202 108.303 23.2249C108.403 23.0517 108.503 22.902 108.611 22.9808C108.818 23.1512 109.004 23.3469 109.165 23.5636C109.258 23.7329 109.391 23.8763 109.551 23.981C109.713 24.0597 109.921 24.0282 109.99 24.2409C110.062 24.5278 110.111 24.8201 110.136 25.1151C110.17 25.2707 110.239 25.4163 110.337 25.5403C110.337 25.5403 110.452 25.9105 110.714 25.8475C110.976 25.7845 111.824 25.6191 111.824 25.6191C111.824 25.6191 112.016 25.3986 112.178 25.5325C112.394 25.7492 112.594 25.9808 112.779 26.2255L113.904 26.0601L114.521 26.509L115.445 27.4068L117.063 27.0209H118.396C118.666 26.9501 119.167 26.6114 119.167 26.8004C119.167 26.9894 119.167 27.1076 119.167 27.2572C118.798 27.5583 118.361 27.7588 117.895 27.84C117.68 28.0763 117.464 28.3204 117.24 28.5567C117.1 28.7654 117.003 29.0013 116.955 29.2497C116.945 29.4355 116.892 29.6161 116.801 29.7774C116.801 29.7774 116.524 30.3365 116.323 30.3523C115.997 30.2947 115.677 30.2051 115.368 30.0845L114.813 30.0452L114.875 30.9036L114.983 31.5415L113.835 31.2895L113.403 31.3289C113.218 31.636 113.041 31.9432 112.864 32.2582C112.687 32.5732 112.671 32.9119 112.571 33.2348C112.571 33.2348 112.818 33.5576 112.633 33.6364C112.448 33.7152 111.485 34.1562 111.485 34.1562C111.485 34.1562 111.539 34.8414 111.292 34.7941C111.046 34.7469 110.876 33.8097 110.66 33.8333C110.445 33.8569 110.383 34.1089 110.244 34.2428L109.666 34.4161L108.711 33.9829L107.886 33.7939L107.116 34.1168C107.116 34.1168 106.299 34.3058 106.276 34.487C106.21 34.7371 106.103 34.974 105.96 35.1879C105.837 35.3927 105.845 35.6053 105.59 35.6604L103.803 36.0542C103.649 35.6998 103.495 35.3375 103.348 34.9752L102.439 34.739L101.946 34.3137L102.531 33.5813C102.855 33.1402 103.171 32.6992 103.495 32.2661C103.595 31.951 103.695 31.636 103.787 31.321L103.063 30.6909C102.894 30.3741 102.701 30.0713 102.485 29.7853C102.308 29.612 101.846 29.234 101.846 29.234L101.021 29.0528V30.1003L99.6651 31.5021L97.3536 33.5183L96.2595 33.2269C96.2595 33.2269 95.5275 32.6992 95.3272 32.7465C95.0804 32.892 94.857 33.0752 94.6645 33.2899L95.0113 34.6287L94.5798 35.1485C94.5808 35.3666 94.6093 35.5836 94.6645 35.7943C94.7416 35.9833 95.3426 37.2749 95.3426 37.2749V37.9443C95.1674 38.1173 94.9439 38.2302 94.7031 38.2672C94.3949 38.2672 93.0002 38.5744 92.7691 38.6295C92.5379 38.6846 92.091 39.2438 91.8984 39.2911L90.8659 39.5667L91.2204 40.2204L93.1312 39.7636C93.4548 39.5903 93.8632 39.1729 94.1098 39.2517C94.1098 39.4722 93.9017 39.6455 93.8016 39.8502L93.1235 40.181C93.1774 40.5826 93.2314 40.9686 93.2776 41.386L92.2837 41.953L92.1758 42.2995C92.1296 42.4098 92.1758 43.0162 92.1758 43.158C92.1758 43.2997 92.1758 43.9928 92.1758 44.1503C92.1266 44.3934 92.0296 44.6238 91.8907 44.8276C91.7982 44.9063 89.1169 45.1269 89.1169 45.1269C89.1169 45.1269 86.8054 45.1899 86.6127 45.2371C86.3295 45.3691 86.0587 45.5273 85.8037 45.7096L85.1102 46.1192C85.1102 46.1192 84.6402 46.3003 84.6865 46.4972C84.8149 46.927 84.988 47.3415 85.2027 47.7337C85.3207 47.9308 85.4066 48.1463 85.457 48.3716C85.2643 48.5448 84.9099 48.6551 84.8868 48.8914C84.9114 49.1108 85.0193 49.3116 85.1873 49.4505L87.1367 49.6159C87.1367 49.6159 87.5219 49.9388 87.5296 50.1121C87.5622 50.3496 87.6137 50.584 87.6837 50.813L88.5005 50.6476C88.5005 50.6476 89.9722 50.1987 90.134 50.1593C90.2693 50.1378 90.407 50.1378 90.5423 50.1593L90.8428 50.5767C90.8428 50.5767 91.1125 50.6949 91.1279 50.9311C91.1433 51.1674 90.7581 51.5454 90.735 51.7581C90.7118 51.9707 91.1587 54.7902 91.1587 54.7902L92.0833 55.5777C92.4781 55.7258 92.8555 55.9187 93.2083 56.1526C93.3696 56.4897 93.4862 56.8473 93.555 57.2158C93.5609 57.5604 93.5115 57.9036 93.4086 58.2318C93.3496 58.4616 93.2775 58.6878 93.1929 58.9091C93.0619 59.1138 92.4224 59.8226 92.4224 59.8226C92.4224 59.8226 92.0756 60.8465 92.0217 61.1772C91.9163 61.5116 91.7822 61.8357 91.621 62.1459C91.4856 62.5468 91.4102 62.9663 91.3976 63.3903C91.4438 63.5872 91.6519 64.3983 91.7212 64.8079C91.7905 65.2174 91.9292 65.6112 91.5902 65.8159Z" fill="#D9A86B"/>
<path fill-rule="evenodd" clip-rule="evenodd" d="M21.6974 19.4841C27.0909 20.7757 31.452 17.2711 33.3089 12.6009C35.1658 7.93069 34.9809 3.56763 32.6232 0C35.2477 2.72159 36.9629 6.22189 37.5234 10.0002C38.0839 13.7784 37.461 17.6411 35.7437 21.0356C33.9251 24.5883 31.0373 27.4493 27.5064 29.1964C23.9755 30.9435 19.9887 31.484 16.1343 30.7383C8.35989 29.2498 9.37696 16.5151 21.6974 19.4763V19.4841ZM17.0743 7.67079C16.3903 9.03635 16.1185 10.5789 16.2937 12.1025C16.4689 13.6262 17.083 15.0624 18.0581 16.2287C19.0332 17.395 20.3254 18.2388 21.7705 18.6531C23.2157 19.0675 24.7487 19.0336 26.175 18.5558C27.6013 18.0779 28.8566 17.1777 29.7814 15.9694C30.7063 14.7611 31.259 13.2992 31.3696 11.7692C31.4801 10.2392 31.1434 8.71013 30.4022 7.37609C29.661 6.04205 28.5487 4.96318 27.2065 4.27643C25.4162 3.3617 23.3446 3.2077 21.4436 3.848C19.5426 4.48831 17.9665 5.87098 17.0589 7.69442L17.0743 7.67079Z" fill="#44A1D1"/>
<path fill-rule="evenodd" clip-rule="evenodd" d="M21.6894 19.5013C27.0368 20.7929 31.3362 17.241 33.301 12.6181C34.8639 9.03567 35.0075 4.97353 33.7017 1.28516C35.8894 4.0203 37.2468 7.34965 37.6069 10.8633C37.9669 14.377 37.3139 17.9216 35.7281 21.0607C33.9095 24.6134 31.0216 27.4744 27.4908 29.2215C23.9599 30.9685 19.9731 31.5091 16.1187 30.7634C8.34426 29.2749 9.36133 16.5401 21.6894 19.5013ZM17.0664 7.68798C16.3855 9.05219 16.1161 10.5923 16.2925 12.1131C16.4689 13.634 17.0831 15.067 18.0573 16.2307C19.0314 17.3943 20.3216 18.2362 21.7643 18.6495C23.207 19.0628 24.7374 19.029 26.1613 18.5523C27.5852 18.0757 28.8386 17.1776 29.7626 15.972C30.6866 14.7664 31.2396 13.3076 31.3515 11.7804C31.4635 10.2532 31.1293 8.72637 30.3913 7.39353C29.6533 6.06068 28.5448 4.9818 27.2063 4.29362C25.4159 3.37214 23.3409 3.21451 21.4369 3.85535C19.5329 4.49618 17.9555 5.88311 17.051 7.71161L17.0664 7.68798Z" fill="#44A1D1"/>
<path fill-rule="evenodd" clip-rule="evenodd" d="M24.4875 24.3984C29.881 25.6821 34.1342 22.1381 36.099 17.5151C37.6663 13.931 37.81 9.86466 36.4997 6.17432C38.6902 8.90939 40.0499 12.2398 40.4114 15.7551C40.7728 19.2704 40.1202 22.8169 38.5338 25.9577C36.711 29.5085 33.8214 32.3676 30.29 34.1142C26.7586 35.8608 22.772 36.4028 18.9167 35.6604C11.15 34.1641 12.1671 21.4293 24.4875 24.3984ZM19.8644 12.585C19.1882 13.9517 18.9238 15.4926 19.1046 17.0129C19.2854 18.5332 19.9032 19.9645 20.88 21.1258C21.8568 22.2871 23.1486 23.1261 24.5921 23.5369C26.0355 23.9476 27.5657 23.9115 28.989 23.4332C30.4124 22.9548 31.665 22.0557 32.5883 20.8496C33.5116 19.6435 34.0643 18.1846 34.1763 16.6574C34.2882 15.1302 33.9546 13.6034 33.2174 12.2701C32.4803 10.9368 31.3728 9.85688 30.0351 9.16703C29.146 8.70747 28.1769 8.43173 27.1833 8.35562C26.1897 8.27952 25.1912 8.40453 24.245 8.72351C23.2988 9.04248 22.4234 9.54914 21.6691 10.2145C20.9147 10.8798 20.2962 11.6907 19.849 12.6008L19.8644 12.585Z" fill="white"/>
<path fill-rule="evenodd" clip-rule="evenodd" d="M27.2535 29.2655C32.6008 30.5571 36.9002 27.0052 38.865 22.3822C40.4279 18.7998 40.5715 14.7377 39.2657 11.0493C41.4534 13.7845 42.8109 17.1138 43.1709 20.6275C43.531 24.1411 42.8779 27.6857 41.2921 30.8248C39.4735 34.3776 36.5856 37.2386 33.0548 38.9856C29.5239 40.7327 25.5371 41.2733 21.6827 40.5275C13.916 39.0391 14.9331 26.3043 27.2535 29.2655ZM22.6304 17.4521C21.9566 18.8175 21.6939 20.3564 21.8755 21.8743C22.0572 23.3923 22.675 24.8211 23.651 25.9802C24.6269 27.1393 25.9172 27.9766 27.3586 28.3863C28.8 28.7961 30.3279 28.7599 31.7492 28.2822C33.1705 27.8046 34.4214 26.907 35.3436 25.7029C36.2659 24.4988 36.8183 23.0422 36.9309 21.5173C37.0434 19.9924 36.7112 18.4676 35.9762 17.1356C35.2411 15.8037 34.1362 14.7244 32.8011 14.0342C31.9103 13.5689 30.9379 13.2888 29.9405 13.2101C28.943 13.1314 27.9402 13.2557 26.99 13.5758C26.0399 13.8959 25.1612 14.4054 24.405 15.0748C23.6487 15.7442 23.0299 16.5603 22.5842 17.4758L22.6304 17.4521Z" fill="#4BA55E"/>
<path fill-rule="evenodd" clip-rule="evenodd" d="M48.1181 6.74921C48.1082 7.18505 48.1835 7.61852 48.3397 8.02422C48.4958 8.42992 48.7296 8.79969 49.0273 9.11187C49.3111 9.4236 49.6562 9.67039 50.04 9.83599C50.4238 10.0016 50.8375 10.0823 51.254 10.0727C51.6646 10.0807 52.0722 9.99912 52.4495 9.83345C52.8268 9.66777 53.1653 9.42178 53.4423 9.11187C54.0322 8.47487 54.3533 7.62618 54.3361 6.74921C54.3502 6.31074 54.2745 5.8741 54.114 5.46724C53.9534 5.06039 53.7115 4.69229 53.4037 4.38654C53.1193 4.07776 52.7752 3.83287 52.3931 3.66746C52.0111 3.50204 51.5995 3.41971 51.1847 3.42572C50.8398 3.4251 50.4976 3.48916 50.1753 3.61473C49.8428 3.73359 49.5365 3.91824 49.2738 4.15815C48.9091 4.4787 48.6168 4.87643 48.4173 5.3238C48.2177 5.77118 48.1156 6.25753 48.1181 6.74921ZM47.3476 6.74921C47.3409 6.20865 47.4432 5.67248 47.6481 5.17409C48.0557 4.20061 48.8145 3.42501 49.767 3.00831C50.2292 2.81617 50.7242 2.7198 51.2232 2.72479C51.9916 2.72401 52.7431 2.95534 53.3833 3.38971C54.0235 3.82408 54.5238 4.44213 54.8215 5.16622C55.0204 5.66617 55.12 6.20163 55.1143 6.74133C55.1203 7.25955 55.0342 7.77458 54.86 8.26131C54.6871 8.72922 54.4252 9.15749 54.0895 9.5214C53.7288 9.94218 53.2828 10.2778 52.7825 10.5049C52.2823 10.732 51.7397 10.8452 51.1924 10.8366C50.6774 10.8474 50.1659 10.7478 49.6909 10.5443C49.2158 10.3409 48.7876 10.038 48.434 9.65529C48.0685 9.26955 47.7822 8.8131 47.5916 8.31271C47.4011 7.81232 47.3102 7.27808 47.3244 6.74133L47.3476 6.74921ZM61.3708 10.687H57.395V9.89943L60.3999 5.44186H57.734V4.73306H61.2167V5.52062L58.2734 9.89943H61.3554V10.687H61.3708ZM62.9118 2.91381V5.80414C63.1916 5.45068 63.5407 5.16096 63.9366 4.95358C64.4813 4.70021 65.089 4.62401 65.6774 4.73529C66.2659 4.84657 66.8067 5.13996 67.2266 5.57575C67.7682 6.17041 68.0693 6.9527 68.0693 7.76515C68.0693 8.5776 67.7682 9.35989 67.2266 9.95456C66.9476 10.2462 66.6127 10.4759 66.2427 10.629C65.8728 10.7821 65.4759 10.8555 65.0769 10.8445C64.6724 10.849 64.2721 10.7602 63.9058 10.5846C63.532 10.3941 63.2013 10.1258 62.9349 9.79705V10.6791H62.2106V2.85868L62.9118 2.91381ZM62.9118 7.8124C62.9093 8.42554 63.1448 9.01466 63.5667 9.45052C63.7539 9.66737 63.9839 9.84125 64.2415 9.96071C64.4991 10.0802 64.7786 10.1425 65.0615 10.1436C65.3517 10.1408 65.6381 10.0772 65.9032 9.95659C66.1683 9.83602 66.4063 9.66109 66.6025 9.44264C66.8167 9.2116 66.9841 8.93961 67.0951 8.64229C67.2062 8.34496 67.2588 8.02815 67.2498 7.71002C67.2561 7.40523 67.202 7.10228 67.0907 6.81942C66.9795 6.53655 66.8134 6.2796 66.6025 6.06403C66.406 5.84761 66.1674 5.67556 65.9021 5.55892C65.6367 5.44228 65.3504 5.38363 65.0615 5.38673C64.7705 5.3836 64.4822 5.44458 64.2163 5.56553C63.9503 5.68648 63.7131 5.86456 63.5205 6.08766C63.097 6.55632 62.8678 7.17456 62.881 7.8124H62.9118ZM74.585 7.99355H69.3995C69.4175 8.58849 69.6606 9.1531 70.0775 9.56866C70.2834 9.76646 70.5255 9.92053 70.7901 10.0219C71.0546 10.1233 71.3362 10.17 71.6185 10.1593C72.0314 10.1644 72.4364 10.0438 72.782 9.8128C73.1225 9.57674 73.3898 9.2461 73.5525 8.85986H74.3924C74.1639 9.45548 73.7769 9.97384 73.2751 10.3562C72.6981 10.7545 72.0026 10.9333 71.3099 10.8613C70.6171 10.7894 69.9711 10.4713 69.4842 9.96243C69.0476 9.53332 68.7481 8.97936 68.6249 8.3732C68.5017 7.76704 68.5606 7.13698 68.7938 6.56562C69.0271 5.99427 69.4238 5.5083 69.932 5.17144C70.4402 4.83458 71.0361 4.66256 71.6417 4.67793C72.0368 4.66349 72.4302 4.73701 72.7947 4.89339C73.1593 5.04978 73.4862 5.28529 73.7528 5.58362C74.3106 6.23547 74.6029 7.08096 74.5696 7.94629V8.00142L74.585 7.99355ZM73.8145 7.35562C73.7209 6.78541 73.4509 6.26092 73.044 5.85927C72.6355 5.515 72.1165 5.33817 71.5877 5.36311C71.0658 5.35129 70.559 5.54273 70.17 5.89864C69.7724 6.28319 69.5212 6.79949 69.4611 7.35562H73.8145ZM76.2185 10.687H75.4865V2.85868H76.2185V7.48163L78.2988 4.75669H79.1464L77.0583 7.48163L79.5933 10.6319H78.5993L76.1568 7.53676V10.6004L76.2185 10.687ZM80.6489 4.12664H79.9169V2.85868H80.6489V4.07151V4.12664ZM79.9169 10.687V4.75669H80.6489V10.6319L79.9169 10.687ZM81.4579 8.83623H82.2284C82.2156 9.16946 82.3255 9.49549 82.5366 9.74979C82.6283 9.8563 82.7398 9.94299 82.8647 10.0048C82.9896 10.0665 83.1254 10.1021 83.2639 10.1095C83.4025 10.1168 83.5411 10.0957 83.6716 10.0475C83.8021 9.99925 83.9218 9.9248 84.0237 9.82855C84.1033 9.72945 84.1621 9.61471 84.1966 9.49144C84.231 9.36817 84.2404 9.23898 84.224 9.11187C84.233 8.86579 84.1535 8.62487 84.0006 8.43457C83.7623 8.21634 83.4813 8.05256 83.1762 7.95416C82.7084 7.82899 82.279 7.5852 81.9279 7.24537C81.72 6.96871 81.6161 6.62499 81.6351 6.27667C81.6316 6.05731 81.673 5.83961 81.7566 5.63754C81.8402 5.43546 81.9641 5.25347 82.1205 5.10321C82.2757 4.9468 82.46 4.82371 82.6625 4.7412C82.8649 4.6587 83.0815 4.61844 83.2994 4.6228C83.5125 4.61085 83.7257 4.6423 83.9268 4.7153C84.1278 4.78831 84.3127 4.90143 84.4706 5.04808C84.7749 5.36857 84.9438 5.79855 84.9406 6.24517H84.1701C84.17 6.00211 84.079 5.76827 83.9158 5.5915C83.7402 5.43254 83.5105 5.35052 83.2763 5.36311C83.1646 5.36086 83.0536 5.38207 82.9502 5.42541C82.8469 5.46876 82.7533 5.53333 82.6753 5.61513C82.5194 5.77957 82.4335 6.00043 82.4365 6.22942C82.4341 6.38259 82.4685 6.53402 82.5366 6.67045C82.6193 6.80435 82.7332 6.91527 82.8679 6.99335C83.0586 7.10729 83.2633 7.19469 83.4766 7.25324C83.657 7.30354 83.8345 7.36401 84.0083 7.43438C84.3273 7.54397 84.6024 7.75727 84.7916 8.04169C84.9808 8.32611 85.0737 8.66601 85.0562 9.00949C85.0639 9.24513 85.0218 9.47969 84.9327 9.69717C84.8436 9.91464 84.7096 10.1099 84.5399 10.2696C84.1836 10.6037 83.7134 10.7818 83.2301 10.7657C82.9876 10.7762 82.7457 10.7331 82.521 10.6393C82.2962 10.5455 82.094 10.4033 81.9279 10.2223C81.5822 9.81751 81.3979 9.29466 81.4117 8.75747L81.4579 8.83623ZM86.4893 10.687V5.56787H85.3952V4.78032H86.4893V2.85868H87.2213V4.75669H88.3154V5.54425H87.2213V10.6634L86.4893 10.687ZM89.371 7.74152C89.3544 8.37235 89.5782 8.98512 89.9951 9.45052C90.1959 9.67257 90.4406 9.84849 90.7129 9.96661C90.9852 10.0847 91.2789 10.1424 91.5747 10.1357C91.8645 10.1403 92.1519 10.0815 92.4176 9.96337C92.6834 9.8452 92.9214 9.67035 93.1157 9.45052C93.5338 8.9827 93.7576 8.36704 93.7398 7.73365C93.7507 7.42018 93.7005 7.10762 93.592 6.81421C93.4836 6.52079 93.319 6.25239 93.108 6.02466C92.9002 5.80422 92.6496 5.63076 92.3722 5.51545C92.0949 5.40015 91.7969 5.34557 91.4976 5.35523C91.2076 5.34908 90.9197 5.40713 90.6537 5.5254C90.3877 5.64367 90.1499 5.81936 89.9566 6.0404C89.7479 6.26783 89.5853 6.53523 89.4782 6.8272C89.3711 7.11916 89.3216 7.42991 89.3325 7.74152H89.371ZM88.6005 7.74152C88.5939 7.33194 88.6676 6.92515 88.8171 6.54509C88.9666 6.16504 89.189 5.81939 89.4712 5.52849C89.7302 5.23621 90.0466 5.00307 90.3998 4.84429C90.753 4.68551 91.1349 4.60467 91.5207 4.60705C91.9169 4.6018 92.3099 4.67944 92.6756 4.83519C93.0413 4.99095 93.372 5.22152 93.6473 5.51274C93.9316 5.78969 94.157 6.12352 94.3094 6.49344C94.4619 6.86335 94.5381 7.2614 94.5334 7.66277C94.5337 8.07846 94.4536 8.49011 94.2975 8.87398C94.1415 9.25786 93.9127 9.60637 93.6242 9.89943C93.3607 10.1969 93.0381 10.4337 92.6781 10.5939C92.3181 10.7542 91.9288 10.8342 91.5361 10.8287C91.1388 10.8352 90.7447 10.7557 90.3795 10.5955C90.0144 10.4354 89.6864 10.1982 89.4172 9.89943C89.1388 9.61266 88.9191 9.27204 88.7709 8.89747C88.6227 8.5229 88.5491 8.12189 88.5543 7.7179L88.6005 7.74152ZM95.3964 4.79607H96.113V5.46549C96.3231 5.21197 96.5865 5.01008 96.8835 4.87482C97.2271 4.73735 97.594 4.67075 97.9629 4.67886C98.3319 4.68697 98.6956 4.76963 99.0332 4.92208C99.3476 5.07237 99.6146 5.30974 99.8037 5.60725C99.9399 5.83528 100.036 6.08578 100.089 6.34755C100.154 6.76151 100.182 7.18061 100.174 7.59977V10.6712H99.4416V7.34775C99.4904 6.81314 99.354 6.27799 99.0563 5.83564C98.896 5.66653 98.7007 5.53629 98.4847 5.45452C98.2687 5.37274 98.0375 5.34151 97.8081 5.36311C97.5034 5.35821 97.2021 5.42845 96.9297 5.56787C96.6771 5.7003 96.4681 5.9057 96.3287 6.15854C96.2325 6.32892 96.1672 6.51569 96.1361 6.70983C96.0938 7.06251 96.0758 7.41778 96.0821 7.77303V10.6319H95.3656V4.75669L95.3964 4.79607ZM48.3955 21.0827H47.6249V13.2702H48.3955V17.8931L50.4681 15.1682H51.3157L49.2353 17.8931L51.7626 21.0433H50.838L48.3955 17.9876V21.0433V21.0827ZM56.7477 18.1136C56.7505 17.811 56.694 17.5108 56.5815 17.2308C56.469 16.9509 56.3029 16.6967 56.0928 16.4834C55.9055 16.2641 55.6746 16.0882 55.4155 15.9673C55.1565 15.8464 54.8751 15.7834 54.5903 15.7825C54.2937 15.7798 53.9998 15.8408 53.7277 15.9615C53.4557 16.0823 53.2114 16.2601 53.0108 16.4834C52.7972 16.7132 52.6301 16.9839 52.5191 17.2799C52.408 17.5758 52.3552 17.8913 52.3636 18.2081C52.3567 18.5142 52.4105 18.8185 52.5217 19.1027C52.6329 19.387 52.7993 19.6453 53.0108 19.862C53.2073 20.0784 53.4459 20.2505 53.7113 20.3671C53.9766 20.4838 54.2629 20.5424 54.5518 20.5393C54.8435 20.542 55.1323 20.48 55.3984 20.3577C55.6644 20.2353 55.9013 20.0554 56.0928 19.8305C56.5243 19.369 56.7597 18.7519 56.7477 18.1136ZM56.7477 20.1534V21.0827H57.4643V15.1682H56.7477V16.1132C56.5068 15.7778 56.1894 15.5075 55.8232 15.3257C55.4432 15.1403 55.0268 15.046 54.6057 15.05C54.0171 15.071 53.4466 15.2639 52.9619 15.6059C52.4772 15.9479 52.0985 16.4248 51.8707 16.98C51.6429 17.5352 51.5755 18.1454 51.6765 18.7386C51.7775 19.3317 52.0427 19.8828 52.4406 20.3267C52.7119 20.6152 53.039 20.8428 53.4013 20.9947C53.7635 21.1465 54.1527 21.2195 54.5441 21.2087C54.9832 21.2121 55.4176 21.1152 55.8154 20.9252C56.1891 20.7519 56.5109 20.4801 56.7477 20.1377V20.1534ZM58.2888 19.2398H59.0593C59.0498 19.5702 59.1595 19.8925 59.3675 20.1455C59.4611 20.2611 59.5789 20.3537 59.7123 20.4164C59.8457 20.4791 59.9912 20.5104 60.138 20.5078C60.4027 20.514 60.6595 20.4152 60.8546 20.2322C61.0264 20.049 61.1274 19.8084 61.1387 19.5549C61.1501 19.3014 61.071 19.0523 60.9162 18.8539C60.6811 18.6312 60.399 18.4669 60.0917 18.3735C59.6271 18.2404 59.1996 17.9976 58.8435 17.6647C58.6375 17.3841 58.5339 17.0386 58.5507 16.6882C58.5483 16.4701 58.5902 16.2539 58.6738 16.0533C58.7573 15.8527 58.8807 15.6719 59.0362 15.5226C59.1924 15.3649 59.3778 15.2405 59.5815 15.1567C59.7852 15.0728 60.0032 15.0312 60.2227 15.0343C60.4362 15.0243 60.6496 15.0574 60.8505 15.1317C61.0515 15.206 61.2361 15.3201 61.3939 15.4674C61.6943 15.7868 61.8602 16.2137 61.8562 16.6567H61.0857C61.0831 16.4149 60.9893 16.1835 60.8237 16.0109C60.7391 15.9309 60.6395 15.8694 60.5308 15.8301C60.4222 15.7909 60.3069 15.7746 60.1919 15.7825C60.0801 15.7792 59.9688 15.7993 59.8649 15.8418C59.761 15.8843 59.6668 15.9481 59.5881 16.0293C59.5093 16.1106 59.4477 16.2075 59.4071 16.314C59.3665 16.4206 59.3478 16.5345 59.3521 16.6488C59.3466 16.8023 59.3812 16.9545 59.4522 17.0898C59.5318 17.2236 59.6431 17.3347 59.7758 17.4127C59.9678 17.5221 60.1722 17.6068 60.3845 17.6647C60.6542 17.7514 60.8314 17.8065 60.9239 17.8459C61.231 17.9731 61.4897 18.1981 61.6618 18.4875C61.8339 18.7769 61.9102 19.1153 61.8793 19.4525C61.8859 19.6868 61.8433 19.9199 61.7542 20.1359C61.6652 20.3519 61.5318 20.5459 61.3631 20.7047C61.008 21.041 60.5369 21.2194 60.0532 21.2009C59.8108 21.2108 59.569 21.1675 59.3444 21.0737C59.1198 20.98 58.9174 20.838 58.7511 20.6574C58.4084 20.2539 58.2245 19.7347 58.2348 19.2005L58.2888 19.2398ZM67.6735 18.1136C67.6763 17.811 67.6198 17.5108 67.5073 17.2308C67.3948 16.9509 67.2287 16.6967 67.0186 16.4834C66.832 16.2633 66.6012 16.0868 66.342 15.9659C66.0827 15.845 65.8011 15.7824 65.5161 15.7825C65.2257 15.7833 64.9386 15.8461 64.6733 15.9668C64.4079 16.0875 64.1702 16.2634 63.9751 16.4834C63.758 16.7111 63.5881 16.9812 63.4756 17.2775C63.3631 17.5739 63.3102 17.8904 63.3202 18.2081C63.3133 18.5142 63.3671 18.8185 63.4783 19.1027C63.5895 19.387 63.7559 19.6453 63.9674 19.862C64.1645 20.0777 64.4032 20.2492 64.6684 20.3658C64.9337 20.4824 65.2197 20.5414 65.5084 20.5393C65.7998 20.5399 66.088 20.477 66.3537 20.3548C66.6194 20.2326 66.8566 20.0538 67.0494 19.8305C67.476 19.3664 67.7082 18.7503 67.6966 18.1136H67.6735ZM67.6735 20.1534C67.4367 20.4958 67.1149 20.7677 66.7412 20.941C66.3434 21.131 65.909 21.2278 65.4699 21.2245C65.0785 21.2352 64.6893 21.1623 64.3271 21.0104C63.9649 20.8585 63.6376 20.631 63.3664 20.3424C62.8192 19.7491 62.5144 18.9645 62.5144 18.1491C62.5144 17.3337 62.8192 16.5491 63.3664 15.9557C63.6454 15.664 63.9804 15.4344 64.3503 15.2813C64.7203 15.1281 65.1172 15.0548 65.5161 15.0658C65.9371 15.0626 66.3533 15.1568 66.7335 15.3414C67.0975 15.5235 67.4123 15.7939 67.6504 16.129V15.1839H68.3747V21.0591H67.6504V20.1377L67.6735 20.1534ZM70.2624 13.3095V16.1999C70.5414 15.8508 70.8876 15.5639 71.2795 15.3572C71.6674 15.1709 72.0915 15.0767 72.52 15.0815C72.9046 15.0755 73.2862 15.1516 73.6405 15.3048C73.9947 15.458 74.3138 15.6851 74.5773 15.9715C75.1189 16.5661 75.42 17.3484 75.42 18.1609C75.42 18.9733 75.1189 19.7556 74.5773 20.3503C74.2983 20.642 73.9633 20.8716 73.5933 21.0247C73.2234 21.1779 72.8265 21.2512 72.4276 21.2402C72.0229 21.2456 71.6224 21.1567 71.2564 20.9803C70.8826 20.7898 70.552 20.5216 70.2856 20.1928V21.0748H69.5613V13.2702L70.2624 13.3095ZM70.2624 18.2081C70.2591 18.5121 70.3153 18.8136 70.4278 19.0949C70.5403 19.3763 70.7067 19.6317 70.9174 19.8463C71.1045 20.0631 71.3345 20.237 71.5921 20.3564C71.8498 20.4759 72.1293 20.5382 72.4122 20.5393C72.7028 20.5399 72.9903 20.4778 73.2559 20.357C73.5214 20.2362 73.7591 20.0595 73.9532 19.8384C74.1703 19.6107 74.3401 19.3406 74.4527 19.0443C74.5652 18.7479 74.6181 18.4314 74.6081 18.1136C74.615 17.8076 74.5612 17.5033 74.45 17.219C74.3388 16.9348 74.1724 16.6765 73.9609 16.4598C73.7632 16.2449 73.5244 16.0738 73.2593 15.9573C72.9942 15.8408 72.7084 15.7813 72.4199 15.7825C72.128 15.7787 71.8389 15.8402 71.5727 15.9627C71.3065 16.0851 71.0697 16.2655 70.8788 16.4913C70.4544 16.9562 70.2249 17.5724 70.2393 18.2081H70.2624ZM81.1574 18.1136C81.1585 17.8112 81.1012 17.5116 80.9888 17.2318C80.8764 16.9521 80.7112 16.6978 80.5025 16.4834C80.3152 16.2641 80.0843 16.0882 79.8252 15.9673C79.5661 15.8464 79.2848 15.7834 79 15.7825C78.7032 15.7788 78.4091 15.8394 78.1368 15.9602C77.8646 16.081 77.6205 16.2593 77.4205 16.4834C77.2069 16.7132 77.0398 16.9839 76.9287 17.2799C76.8177 17.5758 76.7648 17.8913 76.7732 18.2081C76.7663 18.5142 76.8201 18.8185 76.9314 19.1027C77.0426 19.387 77.209 19.6453 77.4205 19.862C77.617 20.0784 77.8555 20.2505 78.1209 20.3671C78.3863 20.4838 78.6726 20.5424 78.9615 20.5393C79.2532 20.542 79.542 20.48 79.808 20.3577C80.0741 20.2353 80.311 20.0554 80.5025 19.8305C80.9311 19.3672 81.1661 18.7512 81.1574 18.1136ZM81.1574 20.1534C80.9205 20.4958 80.5988 20.7677 80.2251 20.941C79.8272 21.131 79.3929 21.2278 78.9538 21.2245C78.5624 21.2352 78.1732 21.1623 77.8109 21.0104C77.4487 20.8585 77.1215 20.631 76.8503 20.3424C76.4277 19.9077 76.1409 19.3546 76.0261 18.7531C75.9114 18.1516 75.9739 17.5289 76.2058 16.9638C76.4377 16.3987 76.8285 15.9166 77.3287 15.5787C77.8288 15.2408 78.4159 15.0623 79.0154 15.0658C79.4364 15.0618 79.8528 15.1561 80.2328 15.3414C80.5991 15.5232 80.9164 15.7936 81.1574 16.129V15.1839H81.874V21.0591H81.1574V20.1377V20.1534ZM47.6481 25.6663H48.3723V28.8165C48.323 29.4108 48.4578 30.0059 48.7576 30.5176C48.9166 30.6921 49.1122 30.8274 49.3297 30.9133C49.5473 30.9993 49.7811 31.0336 50.0135 31.0138C50.3157 31.019 50.6146 30.9487 50.8842 30.809C51.1344 30.6703 51.3443 30.4666 51.4929 30.2184C51.582 30.0482 51.6444 29.8649 51.6778 29.675C51.7272 29.315 51.7478 28.9515 51.7395 28.5881V25.5875H52.4714V31.4627H51.7395V30.8248C51.5315 31.0846 51.2679 31.2921 50.9689 31.4312C50.6517 31.5652 50.3104 31.6296 49.9673 31.6202C49.6364 31.6494 49.3033 31.6023 48.9926 31.4823C48.6819 31.3624 48.4014 31.1727 48.172 30.9272C47.749 30.2509 47.5567 29.4507 47.6249 28.6511V25.5875L47.6481 25.6663ZM52.8798 25.6663H53.7274L55.5072 30.3916L57.3642 25.6663H58.2194L55.1374 33.4395H54.3669L55.1374 31.5257L52.9183 25.6663H52.8798ZM58.5584 25.6663H59.2827V28.8165C59.2315 29.3534 59.3304 29.8941 59.5678 30.3759C59.7268 30.5503 59.9224 30.6856 60.1399 30.7716C60.3575 30.8575 60.5913 30.8919 60.8237 30.872C61.126 30.8779 61.425 30.8076 61.6944 30.6673C61.9469 30.5317 62.1576 30.3273 62.3031 30.0766C62.3948 29.9069 62.4598 29.7235 62.4957 29.5332C62.5414 29.1729 62.5595 28.8095 62.5497 28.4464V25.5875H63.3202V31.4627H62.5497V30.8248C62.3435 31.0865 62.0794 31.2944 61.7792 31.4312C61.4619 31.5652 61.1207 31.6296 60.7775 31.6202C60.4478 31.6493 60.1158 31.6021 59.8064 31.4822C59.4969 31.3622 59.2178 31.1725 58.9899 30.9272C58.567 30.2509 58.3746 29.4507 58.4429 28.6511V25.5875L58.5584 25.6663ZM64.1831 29.6907H64.9536C64.9404 30.0216 65.0506 30.3453 65.2619 30.5964C65.3539 30.7138 65.4715 30.8077 65.6052 30.8706C65.739 30.9334 65.8852 30.9636 66.0324 30.9587C66.2971 30.9649 66.5539 30.8661 66.7489 30.683C66.8434 30.594 66.9184 30.4855 66.9689 30.3647C67.0193 30.2438 67.0442 30.1135 67.0417 29.9821C67.0531 29.7343 66.9703 29.4916 66.8106 29.3048C66.5768 29.0802 66.2943 28.9156 65.9861 28.8244C65.5205 28.6938 65.0924 28.4507 64.7379 28.1156C64.5319 27.8349 64.4283 27.4895 64.4451 27.139C64.4437 26.9204 64.4868 26.7039 64.5717 26.5032C64.6566 26.3025 64.7814 26.1221 64.9382 25.9734C65.1575 25.7218 65.4471 25.5451 65.7678 25.467C66.0886 25.389 66.425 25.4135 66.7317 25.5372C67.0384 25.6608 67.3005 25.8777 67.4827 26.1586C67.665 26.4394 67.7584 26.7706 67.7506 27.1075H66.9801C66.978 26.8672 66.8872 26.6365 66.7258 26.4617C66.5494 26.3042 66.3203 26.2224 66.0863 26.2333C65.9751 26.2301 65.8645 26.25 65.7611 26.292C65.6578 26.334 65.5639 26.3971 65.4853 26.4775C65.4068 26.5596 65.3452 26.657 65.3042 26.7638C65.2632 26.8707 65.2435 26.9849 65.2464 27.0996C65.2402 27.2532 65.2749 27.4056 65.3466 27.5407C65.4262 27.6745 65.5375 27.7855 65.6702 27.8636C65.8659 27.9727 66.0726 28.0599 66.2866 28.1235L66.8183 28.2967C67.1294 28.426 67.3971 28.6449 67.5888 28.9268C67.7683 29.2243 67.8568 29.5698 67.843 29.9191C67.8384 30.1557 67.7852 30.3887 67.687 30.603C67.5888 30.8174 67.4477 31.0083 67.2729 31.1634C66.9124 31.4958 66.4406 31.6735 65.9553 31.6596C65.7131 31.6675 65.472 31.6232 65.2476 31.5296C65.0233 31.436 64.8207 31.2951 64.6532 31.1162C64.3138 30.7076 64.1304 30.1873 64.1369 29.6513L64.1831 29.6907ZM68.706 23.7604H69.4303V26.3593C69.6347 26.0958 69.8993 25.8876 70.2008 25.7529C70.516 25.6104 70.8579 25.5405 71.2025 25.5482C71.5303 25.5175 71.8606 25.5657 72.1669 25.6887C72.4733 25.8118 72.7473 26.0064 72.9669 26.257C73.3938 26.9405 73.5887 27.7486 73.5217 28.5566V31.5415H72.7897V28.4621C72.8472 27.8457 72.7153 27.2263 72.4122 26.6901C72.2558 26.5123 72.0605 26.3746 71.8423 26.2884C71.6241 26.2022 71.389 26.1698 71.1562 26.194C70.8511 26.1841 70.5486 26.2546 70.2778 26.3987C70.0252 26.5312 69.8162 26.7366 69.6769 26.9894C69.5819 27.1576 69.5167 27.3415 69.4842 27.5328C69.4384 27.8878 69.4203 28.246 69.4303 28.6039V31.4627H68.706V23.6817V23.7604ZM79.2003 26.5877C79.4257 26.2586 79.724 25.9888 80.071 25.8002C80.4342 25.6237 80.8323 25.5348 81.2345 25.5403C81.5538 25.5105 81.8755 25.5601 82.172 25.6849C82.4685 25.8097 82.731 26.006 82.9373 26.257C83.3492 26.9494 83.5379 27.7566 83.4766 28.5645V31.5336H82.683V28.3834C82.7339 27.8025 82.6016 27.2202 82.3055 26.7216C82.1534 26.5472 81.9632 26.4121 81.7502 26.3272C81.5373 26.2423 81.3078 26.2102 81.0804 26.2333C80.7802 26.2233 80.4826 26.2939 80.2174 26.4381C79.9668 26.5706 79.7603 26.7762 79.6241 27.0288C79.5292 27.1969 79.464 27.3809 79.4315 27.5722C79.3856 27.9272 79.3676 28.2853 79.3775 28.6433V31.5021H78.6841V28.1707C78.7252 27.6383 78.5805 27.1082 78.2757 26.6744C78.1178 26.506 77.9254 26.3756 77.7122 26.2925C77.499 26.2094 77.2704 26.1758 77.0429 26.194C76.7379 26.1851 76.4357 26.2556 76.1645 26.3987C75.9119 26.5312 75.7029 26.7366 75.5635 26.9894C75.4712 27.158 75.4086 27.342 75.3786 27.5328C75.3291 27.8875 75.3085 28.2457 75.317 28.6039V31.4627H74.5927V25.5875H75.317V26.257C75.5277 26.004 75.7909 25.8022 76.0875 25.6663C76.4068 25.5294 76.7506 25.4623 77.0968 25.4694C77.5115 25.4642 77.9212 25.5615 78.2911 25.7529C78.6361 25.9234 78.9212 26.1984 79.1079 26.5405L79.2003 26.5877ZM89.5097 28.5645C89.5125 28.2618 89.456 27.9617 89.3435 27.6817C89.231 27.4017 89.0648 27.1476 88.8548 26.9343C88.6668 26.7158 88.4358 26.5404 88.1769 26.4196C87.9179 26.2988 87.6369 26.2353 87.3523 26.2333C87.0619 26.2342 86.7748 26.297 86.5095 26.4177C86.2441 26.5384 86.0063 26.7143 85.8113 26.9343C85.5942 27.1619 85.4243 27.432 85.3118 27.7284C85.1992 28.0247 85.1464 28.3413 85.1563 28.659C85.1493 28.9663 85.203 29.2718 85.3142 29.5573C85.4254 29.8429 85.5918 30.1025 85.8036 30.3208C86.0012 30.5357 86.2401 30.7067 86.5052 30.8232C86.7703 30.9397 87.056 30.9992 87.3446 30.9981C87.6367 30.9987 87.9256 30.935 88.1915 30.8114C88.4574 30.6877 88.6941 30.5069 88.8856 30.2814C89.3128 29.8177 89.5452 29.2013 89.5328 28.5645H89.5097ZM89.5097 30.6122C89.2704 30.9523 88.9493 31.2236 88.5774 31.3997C88.1801 31.5924 87.7458 31.692 87.3061 31.6911C86.9144 31.6984 86.5255 31.6232 86.1636 31.4701C85.8017 31.3169 85.4746 31.0892 85.2026 30.8012C84.6553 30.2078 84.3506 29.4232 84.3506 28.6078C84.3506 27.7924 84.6553 27.0078 85.2026 26.4145C85.4706 26.1169 85.7957 25.8787 86.1575 25.7148C86.5194 25.5508 86.9103 25.4647 87.3061 25.4615C87.7264 25.4559 88.1426 25.5474 88.5235 25.7293C88.8861 25.9135 89.2004 26.1835 89.4404 26.5169V25.5875H90.1646V31.4627H89.4404V30.5334L89.5097 30.6122ZM91.4052 31.5415V23.6817H92.1757V31.4627L91.4052 31.5415ZM98.0932 28.4857C98.0957 28.1838 98.0398 27.8844 97.9287 27.6046C97.8176 27.3249 97.6536 27.0703 97.4459 26.8555C97.2528 26.6332 97.0153 26.4557 96.7495 26.3348C96.4838 26.2139 96.1958 26.1525 95.9049 26.1546C95.6145 26.1554 95.3274 26.2182 95.0621 26.3389C94.7967 26.4596 94.559 26.6356 94.3639 26.8555C93.9305 27.3189 93.6949 27.9393 93.709 28.5803C93.7019 28.8875 93.7556 29.193 93.8668 29.4786C93.978 29.7641 94.1445 30.0238 94.3562 30.242C94.5544 30.4562 94.7934 30.6267 95.0583 30.7432C95.3233 30.8596 95.6088 30.9196 95.8972 30.9193C96.1895 30.921 96.4787 30.8578 96.7448 30.7341C97.0108 30.6103 97.2474 30.429 97.4382 30.2026C97.8683 29.7402 98.1035 29.1237 98.0932 28.4857ZM98.0932 30.5334C97.8563 30.8758 97.5345 31.1477 97.1609 31.3209C96.7663 31.5135 96.3345 31.6131 95.8972 31.6123C95.5055 31.6206 95.1163 31.5458 94.7543 31.3926C94.3922 31.2395 94.0652 31.0113 93.7937 30.7224C93.2359 30.1346 92.924 29.3479 92.924 28.5291C92.924 27.7102 93.2359 26.9235 93.7937 26.3357C94.0731 26.0451 94.4084 25.8167 94.7783 25.6649C95.1483 25.5131 95.545 25.4411 95.9434 25.4537C96.3639 25.4472 96.7802 25.5387 97.1609 25.7214C97.5262 25.9012 97.8415 26.1721 98.0778 26.509V25.5875H98.8637V31.4627H98.0932V30.5334ZM100.721 31.4627H99.9501V25.5875H100.644V26.2648C100.797 26.0304 101 25.8339 101.237 25.6899C101.475 25.5638 101.739 25.499 102.007 25.5009V26.2885C101.822 26.288 101.639 26.3254 101.468 26.3984C101.298 26.4714 101.143 26.5787 101.013 26.7137C100.784 27.0547 100.677 27.4669 100.713 27.8793V31.4312L100.721 31.4627ZM103.433 24.863H102.716V23.6817H103.448V24.863H103.433ZM102.716 31.4627V25.5875H103.448V31.4627H102.716ZM47.7251 41.8742V34.101H51.4852V34.8886H48.4648V37.6056H51.4852V38.3932H48.4648V41.8742H47.7251ZM58.1886 39.1808H53.0031C53.0212 39.7757 53.2642 40.3403 53.6811 40.7559C53.887 40.9537 54.1292 41.1077 54.3937 41.2091C54.6582 41.3105 54.9398 41.3572 55.2221 41.3465C55.6349 41.3507 56.0396 41.2301 56.3856 41C56.7241 40.7617 56.9909 40.4317 57.1561 40.0471H58.0268C57.8038 40.6436 57.4189 41.1627 56.9173 41.5434C56.3402 41.9417 55.6447 42.1205 54.952 42.0485C54.2593 41.9766 53.6132 41.6585 53.1264 41.1496C52.5776 40.5524 52.2721 39.7638 52.2721 38.9445C52.2721 38.1251 52.5776 37.3366 53.1264 36.7393C53.4102 36.4487 53.7497 36.221 54.1236 36.0706C54.4975 35.9202 54.8977 35.8502 55.2992 35.8651C55.6942 35.8512 56.0875 35.925 56.452 36.0813C56.8164 36.2377 57.1434 36.4729 57.4104 36.7708C57.9682 37.4227 58.2605 38.2682 58.2271 39.1335V39.1886L58.1886 39.1808ZM57.3719 38.5428C57.2788 37.9724 57.0087 37.4478 56.6013 37.0465C56.1895 36.703 55.6684 36.5264 55.1374 36.5503C54.6177 36.5381 54.1132 36.7297 53.7274 37.0859C53.3258 37.4674 53.0739 37.9853 53.0185 38.5428H57.3719ZM63.8903 38.9996C63.9027 38.3628 63.6704 37.7464 63.2431 37.2827C63.0503 37.0594 62.8131 36.8807 62.5474 36.7585C62.2817 36.6362 61.9935 36.5733 61.7021 36.5739C61.4134 36.5718 61.1274 36.6309 60.8621 36.7475C60.5969 36.864 60.3582 37.0356 60.1611 37.2512C59.9502 37.4668 59.7841 37.7238 59.6729 38.0066C59.5617 38.2895 59.5076 38.5924 59.5139 38.8972C59.5028 39.2163 59.5552 39.5343 59.6678 39.8321C59.7803 40.1299 59.9508 40.4013 60.1688 40.6299C60.3638 40.8498 60.6016 41.0258 60.867 41.1464C61.1323 41.2671 61.4194 41.3299 61.7098 41.3308C62.0007 41.3329 62.2887 41.2715 62.5544 41.1506C62.8202 41.0297 63.0576 40.8521 63.2508 40.6299C63.4585 40.4151 63.6225 40.1605 63.7336 39.8808C63.8447 39.601 63.9005 39.3015 63.8981 38.9996H63.8903ZM63.8903 36.9283V34.101H64.6608V41.8742H63.8903V40.9921C63.6357 41.3266 63.3087 41.5962 62.9349 41.7797C62.5536 41.961 62.1381 42.0551 61.7175 42.0553C61.3154 42.0693 60.915 41.9942 60.544 41.8352C60.1729 41.6761 59.8399 41.4369 59.5678 41.1339C59.2885 40.8449 59.0689 40.5015 58.922 40.124C58.7751 39.7465 58.7038 39.3428 58.7126 38.9366C58.7042 38.5329 58.7756 38.1316 58.9225 37.7567C59.0695 37.3818 59.289 37.0412 59.5678 36.7551C60.0006 36.3217 60.5509 36.0313 61.1473 35.9218C61.7436 35.8122 62.3584 35.8885 62.9118 36.1408C63.2833 36.321 63.6061 36.5914 63.8518 36.9283H63.8903ZM71.4413 39.1808H66.2481C66.2662 39.7757 66.5092 40.3403 66.9261 40.7559C67.2894 41.0891 67.7486 41.293 68.2348 41.337C68.721 41.381 69.208 41.2628 69.6229 41C69.962 40.7623 70.2289 40.4322 70.3934 40.0471H71.2333C71.0075 40.6442 70.6199 41.1632 70.1161 41.5434C69.5402 41.9412 68.846 42.1196 68.1546 42.0476C67.4632 41.9757 66.8184 41.6579 66.3329 41.1496C65.8968 40.721 65.5975 40.1678 65.4741 39.5624C65.3507 38.957 65.4089 38.3276 65.6412 37.7566C65.8735 37.1856 66.269 36.6996 66.7759 36.3621C67.2829 36.0246 67.8777 35.8514 68.4826 35.8651C68.8777 35.8507 69.2711 35.9242 69.6356 36.0806C70.0002 36.237 70.3271 36.4725 70.5938 36.7708C71.1543 37.4215 71.4494 38.2671 71.4182 39.1335V39.1886L71.4413 39.1808ZM70.6246 38.5428C70.531 37.9726 70.261 37.4481 69.8541 37.0465C69.4457 36.7022 68.9266 36.5254 68.3978 36.5503C67.8759 36.5385 67.3691 36.7299 66.9801 37.0859C66.5825 37.4704 66.3313 37.9867 66.2712 38.5428H70.6246ZM73.0209 41.8742H72.2503V35.999H72.9515V36.6763C73.1021 36.4444 73.3024 36.2505 73.5371 36.1093C73.7735 35.978 74.0386 35.9102 74.3076 35.9124V36.7C74.1213 36.6989 73.9367 36.7359 73.7647 36.809C73.5926 36.882 73.4366 36.9896 73.3059 37.1252C73.075 37.4686 72.9688 37.8837 73.0055 38.2987V41.8427L73.0209 41.8742ZM79.8167 38.8972C79.8195 38.5946 79.763 38.2944 79.6505 38.0144C79.538 37.7345 79.3719 37.4803 79.1618 37.267C78.9732 37.0499 78.7418 36.876 78.4829 36.7566C78.224 36.6372 77.9434 36.5749 77.6593 36.5739C77.3632 36.5698 77.0695 36.6293 76.7974 36.7487C76.5253 36.8681 76.2808 37.0447 76.0798 37.267C75.8656 37.498 75.6982 37.77 75.5872 38.0674C75.4761 38.3647 75.4236 38.6815 75.4325 38.9996C75.4256 39.3057 75.4794 39.61 75.5907 39.8942C75.7019 40.1784 75.8683 40.4367 76.0798 40.6535C76.2774 40.8684 76.5163 41.0394 76.7814 41.1559C77.0465 41.2725 77.3322 41.332 77.6208 41.3308C77.9133 41.3336 78.2028 41.2708 78.469 41.147C78.7352 41.0232 78.9717 40.8413 79.1618 40.6141C79.3762 40.3861 79.5444 40.117 79.6567 39.8224C79.7691 39.5278 79.8235 39.2134 79.8167 38.8972ZM79.8167 40.9449C79.5799 41.2873 79.2581 41.5591 78.8844 41.7324C78.3304 41.9991 77.7097 42.0855 77.1061 41.9798C76.5025 41.8742 75.9452 41.5817 75.5096 41.1418C74.9653 40.5454 74.6625 39.7601 74.6625 38.9445C74.6625 38.1289 74.9653 37.3436 75.5096 36.7472C75.791 36.4571 76.1277 36.2291 76.4988 36.0774C76.8699 35.9257 77.2675 35.8534 77.667 35.8651C78.0883 35.8583 78.5054 35.9527 78.8844 36.1408C79.2486 36.3226 79.5634 36.593 79.8013 36.9283V35.9833H80.5179V41.8742H79.8013V40.9449H79.8167ZM82.2053 41.8742V36.7551H81.1112V35.9675H82.2053V34.101H82.9373V35.999H84.0314V36.7866H82.9142V41.9057L82.2053 41.8742ZM84.224 40.0234H84.9945C84.9817 40.3567 85.0917 40.6827 85.3027 40.937C85.3967 41.0522 85.5147 41.1445 85.6479 41.2071C85.7812 41.2698 85.9265 41.3013 86.0732 41.2993C86.2051 41.303 86.3364 41.2798 86.4594 41.2312C86.5824 41.1825 86.6948 41.1093 86.7898 41.0158C86.8851 40.9274 86.9606 40.819 87.0112 40.698C87.0617 40.577 87.0861 40.4463 87.0826 40.3148C87.0932 40.0672 87.0105 39.8248 86.8515 39.6375C86.6157 39.4158 86.3338 39.2515 86.027 39.1571C85.5608 39.028 85.1324 38.7847 84.7788 38.4483C84.5739 38.1701 84.4703 37.8275 84.486 37.4796C84.4835 37.2597 84.5261 37.0416 84.611 36.8395C84.6959 36.6374 84.8213 36.4557 84.9791 36.3062C85.2003 36.0558 85.4914 35.881 85.8131 35.8053C86.1347 35.7296 86.4713 35.7568 86.7773 35.8831C87.0834 36.0094 87.344 36.2288 87.524 36.5115C87.704 36.7943 87.7947 37.1267 87.7838 37.4639H87.0133C87.0144 37.2229 86.9231 36.9911 86.759 36.8181C86.6731 36.7372 86.5723 36.6747 86.4625 36.6341C86.3527 36.5936 86.2361 36.5758 86.1195 36.5818C86.0082 36.5807 85.8979 36.6025 85.7951 36.6457C85.6922 36.689 85.5988 36.7529 85.5205 36.8337C85.4422 36.9144 85.3806 37.0104 85.3392 37.116C85.2978 37.2215 85.2776 37.3345 85.2796 37.4481C85.2734 37.6017 85.308 37.7541 85.3798 37.8892C85.4604 38.0248 85.5747 38.1363 85.7111 38.2121C85.9018 38.326 86.1065 38.4134 86.3198 38.472C86.5818 38.5507 86.759 38.6137 86.8515 38.6531C87.1704 38.7627 87.4455 38.976 87.6347 39.2604C87.824 39.5448 87.9169 39.8847 87.8993 40.2282C87.9051 40.4636 87.8621 40.6975 87.7731 40.9147C87.6841 41.1319 87.5512 41.3273 87.3831 41.4883C87.0268 41.8224 86.5565 42.0005 86.0732 41.9845C85.8306 41.996 85.5884 41.9534 85.3635 41.8595C85.1387 41.7657 84.9365 41.6229 84.7711 41.441C84.4258 41.0354 84.2392 40.5138 84.2472 39.9762L84.224 40.0234ZM89.502 35.2981H88.77V34.101H89.502V35.3139V35.2981ZM88.77 41.8584V35.999H89.502V41.8742L88.77 41.8584ZM89.9335 35.9833H90.7811L92.5532 40.7559L94.4179 35.9833H95.2731L92.1911 43.7643H91.4206L92.1911 41.8506L89.9797 35.9833H89.9335ZM100.482 38.8815C100.484 38.5796 100.428 38.2801 100.317 38.0004C100.206 37.7206 100.042 37.466 99.8345 37.2512C99.6409 37.03 99.4032 36.8537 99.1374 36.7341C98.8716 36.6146 98.5839 36.5546 98.2935 36.5582C98.0036 36.5576 97.7167 36.6189 97.4513 36.7383C97.1859 36.8576 96.9479 37.0323 96.7525 37.2512C96.537 37.4817 96.3681 37.7534 96.2557 38.0507C96.1433 38.3481 96.0896 38.6652 96.0976 38.9839C96.0907 39.2899 96.1445 39.5942 96.2557 39.8785C96.3669 40.1627 96.5333 40.421 96.7448 40.6377C96.943 40.8519 97.1819 41.0224 97.4469 41.1389C97.7119 41.2554 97.9973 41.3153 98.2858 41.315C98.5781 41.3167 98.8673 41.2535 99.1334 41.1298C99.3994 41.0061 99.636 40.8247 99.8268 40.5984C100.254 40.1347 100.486 39.5183 100.474 38.8815H100.482ZM100.482 40.9291C100.247 41.2732 99.9243 41.5454 99.5494 41.7167C98.9968 41.9839 98.3771 42.0705 97.7746 41.9648C97.1721 41.8591 96.6161 41.5662 96.1823 41.126C95.6328 40.5323 95.3266 39.746 95.3266 38.9287C95.3266 38.1115 95.6328 37.3252 96.1823 36.7315C96.4677 36.4449 96.8082 36.222 97.1822 36.077C97.5562 35.9319 97.9556 35.8678 98.3551 35.8888C98.7765 35.8819 99.1935 35.9763 99.5725 36.1644C99.9394 36.3419 100.255 36.6132 100.489 36.952V36.0069H101.214V41.8742H100.489V40.9449L100.482 40.9291ZM102.023 40.0077H102.793C102.78 40.3409 102.89 40.667 103.101 40.9213C103.193 41.0278 103.305 41.1145 103.43 41.1762C103.554 41.238 103.69 41.2736 103.829 41.2809C103.967 41.2883 104.106 41.2672 104.236 41.219C104.367 41.1707 104.487 41.0963 104.589 41C104.681 40.91 104.755 40.8011 104.804 40.6804C104.853 40.5597 104.877 40.4298 104.874 40.2991C104.883 40.053 104.803 39.8121 104.65 39.6218C104.412 39.4036 104.131 39.2398 103.826 39.1414C103.358 39.0162 102.929 38.7724 102.578 38.4326C102.37 38.1559 102.266 37.8122 102.285 37.4639C102.281 37.2445 102.323 37.0268 102.406 36.8248C102.49 36.6227 102.614 36.4407 102.77 36.2904C102.925 36.134 103.11 36.0109 103.312 35.9284C103.515 35.8459 103.731 35.8057 103.949 35.81C104.162 35.7981 104.375 35.8295 104.576 35.9025C104.777 35.9755 104.962 36.0886 105.12 36.2353C105.27 36.3997 105.387 36.5929 105.464 36.8038C105.541 37.0147 105.576 37.2391 105.567 37.4639H104.797C104.798 37.2229 104.706 36.9911 104.542 36.8181C104.457 36.7369 104.356 36.6741 104.246 36.6335C104.136 36.5929 104.019 36.5753 103.903 36.5818C103.791 36.5796 103.68 36.6008 103.577 36.6441C103.473 36.6875 103.38 36.752 103.302 36.8338C103.146 36.9983 103.06 37.2192 103.063 37.4481C103.061 37.6013 103.095 37.7527 103.163 37.8892C103.238 38.0365 103.35 38.1613 103.487 38.2514C103.677 38.3654 103.882 38.4528 104.095 38.5113C104.276 38.5616 104.453 38.6221 104.627 38.6925C104.946 38.8021 105.221 39.0154 105.41 39.2998C105.6 39.5842 105.692 39.9241 105.675 40.2676C105.683 40.5032 105.641 40.7378 105.551 40.9553C105.462 41.1727 105.328 41.368 105.159 41.5277C104.802 41.8617 104.332 42.0399 103.849 42.0238C103.606 42.0343 103.364 41.9912 103.14 41.8974C102.915 41.8036 102.713 41.6614 102.547 41.4804C102.201 41.0756 102.017 40.5527 102.03 40.0156L102.023 40.0077ZM107.301 35.2824H106.53V34.101H107.301V35.3139V35.2824ZM106.53 41.8427V35.999H107.301V41.8742L106.53 41.8427Z" fill="#2F2F2F"/>
<path fill-rule="evenodd" clip-rule="evenodd" d="M56.6792 4.09559V5.17454H55.716V4.32398C55.694 3.97204 55.7492 3.61953 55.8778 3.29228C56.0291 3.00162 56.2741 2.77344 56.5713 2.64648L56.8025 3.01663C56.625 3.0887 56.476 3.21888 56.3787 3.38679C56.2767 3.60822 56.2265 3.8509 56.2323 4.09559H56.6792Z" fill="#204D77"/>
</svg>
