<svg width="119" height="31" viewBox="0 0 119 31" fill="none" xmlns="http://www.w3.org/2000/svg">
<path d="M53.8599 14.1216L53.9689 13.3992L54.9933 13.1556L58.8558 5.73522L60.051 5.6748L61.4957 13.1944L62.3165 13.3999L62.1957 14.1222H59.0023L59.1106 13.3999L60.1488 13.1582L59.9072 11.8305H56.832L56.1654 13.1681L57.1793 13.3973L57.0585 14.1196L53.8599 14.1216ZM57.3002 10.8625H59.7384L59.1224 7.22915L57.3002 10.8625Z" fill="#253676"/>
<path d="M64.9516 14.1219L63.8169 8.6781L62.9724 8.44892L63.0808 7.78503L64.9155 7.72461L65.712 12.0698L65.8329 12.9747L67.8246 8.66628L66.8586 8.44892L66.9676 7.78503L69.6711 7.72461L69.5503 8.44695L68.9468 8.64001L66.2545 14.1199L64.9516 14.1219Z" fill="#253676"/>
<path d="M71.4461 14.2417C70.634 14.2417 70.228 13.763 70.228 12.8056C70.2298 12.5457 70.2537 12.2865 70.2995 12.0307L70.8301 8.68694H69.637L69.7683 7.90287L70.9753 7.78204L71.2163 6.26119L72.4114 6.01953L72.1218 7.78204H73.7878L73.6427 8.68956H71.9767L71.4579 11.9125C71.4155 12.1639 71.3914 12.4181 71.3857 12.6729C71.3857 12.8918 71.4218 13.0468 71.494 13.1379C71.5669 13.2305 71.6871 13.2764 71.8565 13.2764C71.9897 13.2715 72.122 13.2513 72.2505 13.216C72.3913 13.1831 72.5303 13.1427 72.6669 13.0952L72.8363 13.0348L73.0293 13.6868C72.4248 14.0572 71.897 14.2422 71.4461 14.2417Z" fill="#253676"/>
<path d="M76.1532 14.2423C75.469 14.2423 74.9279 14.0252 74.5299 13.5909C74.132 13.1566 73.9328 12.5772 73.9324 11.8527C73.9324 10.5892 74.2622 9.56527 74.922 8.78076C75.5817 7.99626 76.4354 7.604 77.483 7.604C78.2075 7.604 78.7668 7.82289 79.1608 8.26068C79.5548 8.69846 79.7518 9.27173 79.7518 9.9805C79.7518 11.2763 79.4158 12.3104 78.7438 13.0826C78.0718 13.8549 77.2083 14.2414 76.1532 14.2423ZM76.3706 13.277C77.054 13.277 77.5892 12.9706 77.9762 12.3577C78.3632 11.7448 78.5562 10.9441 78.5553 9.95555C78.5553 9.03052 78.1248 8.568 77.2637 8.568C76.5882 8.568 76.0652 8.8878 75.6949 9.5274C75.3245 10.167 75.1393 10.9535 75.1393 11.8868C75.1393 12.3539 75.2501 12.702 75.4716 12.9309C75.6931 13.1599 75.9928 13.2759 76.3706 13.279V13.277Z" fill="#253676"/>
<path d="M82.2245 14.2422C81.9273 14.2418 81.6307 14.2176 81.3373 14.17C81.1034 14.1362 80.8718 14.0879 80.6439 14.0255L80.4141 13.9408L80.7037 12.1907H81.4917L81.5041 13.2165C81.794 13.3213 82.101 13.3706 82.409 13.3616C82.8114 13.3616 83.1333 13.2771 83.375 13.1081C83.616 12.9387 83.7368 12.6937 83.7368 12.3713C83.7354 12.2645 83.7102 12.1593 83.6632 12.0633C83.6162 11.9674 83.5485 11.8831 83.465 11.8164C83.2659 11.6435 83.0421 11.5012 82.8011 11.3942C82.5384 11.2734 82.277 11.1405 82.017 10.9956C81.7559 10.851 81.5294 10.6513 81.3531 10.4105C81.1681 10.1569 81.0714 9.84963 81.078 9.5358C81.078 8.90014 81.3074 8.41858 81.7662 8.09112C82.2249 7.76366 82.8083 7.6008 83.5162 7.60255C83.7952 7.60449 84.0736 7.62865 84.3488 7.67479C84.5847 7.71003 84.8184 7.75849 85.0489 7.81991L85.3023 7.90462L85.0127 9.5358H84.2287L84.1558 8.59413C83.9791 8.5219 83.7171 8.48578 83.3717 8.48578C83.0263 8.48578 82.7479 8.55801 82.5384 8.70314C82.3289 8.84826 82.2245 9.06497 82.2245 9.35456C82.2266 9.46631 82.2525 9.57633 82.3004 9.67732C82.3483 9.77832 82.4171 9.86796 82.5023 9.94031C82.7055 10.1239 82.9356 10.2754 83.1846 10.3895C83.4538 10.5182 83.7213 10.655 83.987 10.7999C84.2482 10.9416 84.478 11.1345 84.6627 11.3673C84.8479 11.6003 84.9461 11.8905 84.9405 12.1881C84.9405 12.8155 84.6932 13.3143 84.1985 13.6847C83.7038 14.055 83.0458 14.2409 82.2245 14.2422Z" fill="#253676"/>
<path d="M87.6684 14.2418C87.2175 14.2418 86.8412 14.0407 86.5396 13.6384C86.238 13.236 86.0872 12.7326 86.0872 12.128C86.0872 10.7271 86.4433 9.62259 87.1556 8.81444C87.8678 8.00629 88.7106 7.602 89.6838 7.60156C89.9163 7.60289 90.1477 7.63491 90.372 7.69678C90.5461 7.73915 90.7158 7.79786 90.8789 7.87211L91.0358 7.96864L91.3983 7.72699H92.0616L91.1928 13.1583L92.2435 13.3396L92.1345 14.0008L89.8893 14.1217L90.372 11.8995C90.3155 12.0118 90.2616 12.1162 90.2091 12.2134C90.1566 12.3106 90.0357 12.4964 89.8473 12.7742C89.6803 13.0251 89.4904 13.2599 89.2799 13.4755C89.0651 13.6838 88.8219 13.8606 88.5576 14.0008C88.2865 14.1556 87.9805 14.2385 87.6684 14.2418ZM88.0303 13.2161C88.3039 13.2161 88.5755 13.1034 88.8452 12.8779C89.12 12.6468 89.3546 12.3716 89.5393 12.0637C89.7324 11.7458 89.9075 11.428 90.0646 11.1102C90.198 10.8452 90.3169 10.5732 90.4205 10.2952L90.5289 9.95705L90.7706 8.68967C90.4227 8.5622 90.0541 8.50095 89.6838 8.50909C89.0402 8.50909 88.4812 8.80065 88.0066 9.38377C87.5321 9.9669 87.2946 10.8219 87.2941 11.9487C87.2941 12.3594 87.3626 12.6733 87.4997 12.8904C87.6367 13.1076 87.8136 13.2161 88.0303 13.2161Z" fill="#253676"/>
<path d="M93.642 14.1221L94.5107 8.69014L93.4968 8.44914L93.6052 7.78525L95.8142 7.72483L95.2705 10.0665C95.3191 9.96212 95.3716 9.85508 95.4274 9.74673C95.4833 9.63838 95.6087 9.44072 95.8018 9.15572C95.9771 8.89194 96.1772 8.64545 96.3993 8.41959C96.6346 8.19282 96.9032 8.00347 97.1959 7.85814C97.5057 7.69321 97.8509 7.606 98.2019 7.604C99.095 7.604 99.5415 8.09892 99.5415 9.08874C99.5382 9.31931 99.518 9.54932 99.4811 9.77693L98.9262 13.1562L99.9519 13.3374L99.8436 14.0013L97.6227 14.1221L98.2984 9.95752C98.3251 9.78177 98.3413 9.6046 98.347 9.42693C98.347 8.89546 98.1378 8.62973 97.7192 8.62973C97.4294 8.62973 97.1418 8.74442 96.8564 8.97382C96.5694 9.20539 96.325 9.48515 96.134 9.80057C95.9407 10.1154 95.7634 10.4397 95.6028 10.7724C95.4679 11.0435 95.3529 11.324 95.2587 11.6117L95.1379 11.9492L94.7872 14.1221H93.642Z" fill="#253676"/>
<path d="M103.153 14.2423C102.469 14.2423 101.928 14.0252 101.53 13.5909C101.132 13.1566 100.933 12.5772 100.932 11.8527C100.932 10.5892 101.262 9.56527 101.922 8.78076C102.581 7.99626 103.435 7.604 104.483 7.604C105.207 7.604 105.766 7.82289 106.161 8.26068C106.555 8.69846 106.752 9.27173 106.752 9.9805C106.752 11.2763 106.416 12.3104 105.744 13.0826C105.072 13.8549 104.208 14.2414 103.153 14.2423ZM103.37 13.277C104.054 13.277 104.589 12.9706 104.975 12.3577C105.361 11.7448 105.555 10.9447 105.556 9.95752C105.556 9.03248 105.126 8.56997 104.265 8.56997C103.589 8.56997 103.066 8.88977 102.695 9.52937C102.324 10.169 102.14 10.9554 102.142 11.8888C102.142 12.3559 102.251 12.7039 102.47 12.9329C102.689 13.1619 102.989 13.2772 103.37 13.279V13.277Z" fill="#253676"/>
<path d="M109.116 14.2418C108.664 14.2418 108.288 14.0407 107.987 13.6384C107.686 13.236 107.535 12.7326 107.534 12.128C107.534 10.7271 107.89 9.62259 108.602 8.81444C109.314 8.00629 110.157 7.602 111.131 7.60156C111.364 7.60294 111.595 7.63495 111.819 7.69678C111.993 7.73915 112.163 7.79786 112.326 7.87211L112.483 7.96864L112.845 7.72699H113.509L112.64 13.1583L113.691 13.3396L113.581 14.0008L111.335 14.1217L111.819 11.8995C111.763 12.012 111.708 12.1166 111.656 12.2134C111.604 12.3101 111.483 12.4971 111.294 12.7742C111.127 13.0252 110.937 13.26 110.727 13.4755C110.512 13.6838 110.269 13.8607 110.004 14.0008C109.733 14.1555 109.428 14.2384 109.116 14.2418ZM109.478 13.2161C109.751 13.2161 110.022 13.1034 110.292 12.8779C110.567 12.6466 110.802 12.3715 110.987 12.0637C111.18 11.7458 111.355 11.428 111.512 11.1102C111.646 10.8455 111.765 10.5734 111.868 10.2952L111.977 9.95705L112.218 8.68967C111.87 8.56213 111.502 8.50088 111.132 8.50909C110.488 8.50909 109.929 8.80065 109.454 9.38377C108.979 9.9669 108.741 10.8219 108.741 11.9487C108.741 12.3594 108.81 12.6733 108.946 12.8904C109.083 13.1076 109.26 13.2161 109.478 13.2161Z" fill="#253676"/>
<path d="M116.66 14.242C115.847 14.242 115.441 13.7633 115.441 12.8059C115.443 12.5469 115.468 12.2886 115.513 12.0336L116.045 8.68987H114.849L114.981 7.9058L116.188 7.78497L116.429 6.26412L117.624 6.02246L117.335 7.78497H119L118.855 8.68987H117.191L116.672 11.9128C116.629 12.1642 116.605 12.4183 116.599 12.6732C116.599 12.8921 116.636 13.0471 116.708 13.1382C116.781 13.2292 116.902 13.2754 117.07 13.2767C117.203 13.2718 117.336 13.2516 117.464 13.2163C117.605 13.1834 117.744 13.1431 117.881 13.0955L118.05 13.0351L118.243 13.6871C117.638 14.0575 117.111 14.2425 116.66 14.242Z" fill="#253676"/>
<path d="M52.5632 23.8654L52.6506 23.34L53.4386 23.1654L54.1918 18.4373L53.4563 18.2626L53.5351 17.7806L55.9247 17.7373L55.8374 18.2626L55.0671 18.4373L54.3054 23.1654L55.0409 23.34L54.9535 23.8654H52.5632Z" fill="#21519E"/>
<path d="M57.7031 23.8654L57.799 23.34L58.5785 23.1654L59.331 18.4373L58.6054 18.2626L58.6842 17.7806L60.5229 17.7373L62.571 22.6308L63.2369 18.4373L62.5362 18.2626L62.615 17.7806L64.8477 17.7373L64.7597 18.2626L64.0157 18.4373L63.1581 23.8654H62.1678L60.0317 18.9364L59.3573 23.1654L60.0757 23.34L59.9792 23.8654H57.7031Z" fill="#21519E"/>
<path d="M66.3536 25.1787L65.8105 25.1347L65.9944 24.4781H66.4193C66.9328 24.4781 67.2364 24.2009 67.3301 23.6467L68.1614 18.4373L67.4174 18.2626L67.4962 17.7806L69.8865 17.7373L69.7985 18.2626L69.0374 18.4373L68.2317 23.4714C68.1498 24.0024 67.9425 24.4198 67.6098 24.7236C67.2771 25.0275 66.8584 25.1792 66.3536 25.1787Z" fill="#21519E"/>
<path d="M71.6223 23.8654L71.7103 23.34L72.4983 23.1654L73.2515 18.4373L72.516 18.2626L72.5948 17.7806L74.9851 17.7373L74.8971 18.2626L74.1269 18.4373L73.3651 23.1654L74.1006 23.34L74.0133 23.8654H71.6223Z" fill="#21519E"/>
<path d="M76.7605 23.8654L76.857 23.34L77.6358 23.1654L78.389 18.4373L77.6621 18.2626L77.7409 17.7806L79.5796 17.7373L81.6278 22.6308L82.2936 18.4373L81.5929 18.2626L81.6718 17.7806L83.9044 17.7373L83.8164 18.2626L83.0724 18.4373L82.2148 23.8654H81.2252L79.0923 18.9364L78.4186 23.1654L79.1363 23.34L79.0398 23.8654H76.7605Z" fill="#21519E"/>
<path d="M85.6392 23.8654L85.7265 23.34L86.5145 23.1654L87.267 18.4373L86.5316 18.2626L86.6104 17.7806L89.0007 17.7373L88.9133 18.2626L88.1424 18.4373L87.3813 23.1654L88.1161 23.34L88.0288 23.8654H85.6392Z" fill="#21519E"/>
<path d="M90.7773 23.8654L90.8653 23.34L91.6356 23.1654L92.3882 18.4373L91.679 18.2626L91.7492 17.7806L93.3778 17.7373H94.3234C94.8014 17.7373 95.2055 17.8511 95.5356 18.0788C95.8657 18.3064 96.0305 18.6361 96.0301 19.0677C96.0301 19.5703 95.89 19.989 95.6098 20.3239C95.3176 20.668 94.9311 20.9191 94.498 21.0463C94.6732 21.1921 94.8454 21.5189 95.0148 22.0267L95.3996 23.1654L96.0301 23.34L95.9427 23.8654H94.6819L94.192 22.246C94.0633 21.8196 93.9217 21.5379 93.7672 21.4009C93.6126 21.2639 93.3837 21.1953 93.0803 21.1953H92.8268L92.5201 23.1654L93.2733 23.34L93.186 23.8654H90.7773ZM92.9312 20.5387H93.5787C94.0344 20.5387 94.4037 20.4233 94.6865 20.1926C94.9693 19.9619 95.1109 19.6395 95.1114 19.2253C95.1114 18.7 94.7962 18.4373 94.1658 18.4373H93.2642L92.9312 20.5387Z" fill="#21519E"/>
<path d="M98.3418 23.8654L98.4291 23.34L99.2171 23.1654L99.9703 18.4373L99.2349 18.2626L99.3137 17.7806L101.703 17.7373L101.616 18.2626L100.846 18.4373L100.084 23.1654L100.819 23.34L100.732 23.8654H98.3418Z" fill="#21519E"/>
<path d="M103.481 23.8654L103.577 23.34L104.356 23.1654L105.109 18.4373L104.382 18.2626L104.461 17.7806L106.3 17.7373L108.349 22.6308L109.014 18.4373L108.315 18.2626L108.394 17.7806L110.627 17.7373L110.539 18.2626L109.795 18.4373L108.937 23.8654H107.945L105.809 18.9364L105.135 23.1654L105.853 23.34L105.757 23.8654H103.481Z" fill="#21519E"/>
<path d="M115.159 23.9528C114.447 23.9528 113.885 23.7501 113.474 23.3447C113.062 22.9393 112.856 22.4009 112.856 21.7293C112.856 20.5329 113.18 19.5538 113.828 18.792C114.476 18.0303 115.296 17.6494 116.288 17.6494C116.589 17.6509 116.888 17.6877 117.18 17.7591C117.422 17.8111 117.658 17.8859 117.885 17.9823L118.139 18.0874L117.902 19.4973H117.395L117.29 18.5865C116.923 18.4504 116.534 18.3851 116.143 18.3941C115.696 18.3932 115.263 18.5549 114.926 18.8492C114.555 19.1648 114.272 19.5702 114.103 20.0266C113.915 20.5169 113.82 21.038 113.823 21.5632C113.823 22.0767 113.953 22.4779 114.212 22.7669C114.472 23.0558 114.862 23.2003 115.381 23.2003C115.844 23.204 116.304 23.1239 116.738 22.9639L116.974 21.5021L116.23 21.3708L116.309 20.8888L118.585 20.8454L118.498 21.3708L117.824 21.5021L117.518 23.4281C116.78 23.7749 115.974 23.9541 115.159 23.9528Z" fill="#21519E"/>
<path d="M14.0806 25.6592V28.1724L40.0906 30.1392L14.0806 25.6592Z" fill="url(#paint0_linear)" stroke="#161616" stroke-width="0.0892204" stroke-miterlimit="10"/>
<path d="M14.0569 25.6592V28.1724L1.62793 30.1392L14.0569 25.6592Z" fill="url(#paint1_linear)" stroke="#161616" stroke-width="0.0892204" stroke-miterlimit="10"/>
<path d="M14.0806 17.6553V23.4631L39.934 27.8987L14.0806 17.6553Z" fill="url(#paint2_linear)" stroke="#161616" stroke-width="0.0892204" stroke-miterlimit="10"/>
<path d="M14.0569 17.6553V23.4631L1.71118 27.7496L14.0569 17.6553Z" fill="url(#paint3_linear)" stroke="#161616" stroke-width="0.0892204" stroke-miterlimit="10"/>
<path d="M14.0806 9.88672V14.4691L39.934 24.7723L14.0806 9.88672Z" fill="url(#paint4_linear)" stroke="#161616" stroke-width="0.0892204" stroke-miterlimit="10"/>
<path d="M14.057 9.88672V14.4691L1.58643 24.7723L14.057 9.88672Z" fill="url(#paint5_linear)" stroke="#161616" stroke-width="0.0892204" stroke-miterlimit="10"/>
<path d="M40.5571 17.6553V30.0777L46.6019 30.597V20.0441L40.5571 17.6553Z" fill="#23346B" stroke="#111110" stroke-width="0.0892204" stroke-miterlimit="10"/>
<path d="M46.6019 20.0182L40.5571 17.6555V14.7646L46.6019 17.1829V20.0182Z" fill="white" stroke="#0B0C0C" stroke-width="0.0892204" stroke-miterlimit="10"/>
<path d="M46.6019 17.1636L40.5571 14.8009V10.0405L46.6019 13.3936V17.1636Z" fill="#23346B" stroke="#111110" stroke-width="0.0892204" stroke-miterlimit="10"/>
<path d="M37.0054 20.7524L40.5576 17.64V14.7959L37.0058 17.7741L37.0054 20.7524Z" fill="white" stroke="#0B0C0C" stroke-width="0.0892204" stroke-miterlimit="10"/>
<path d="M40.557 17.6328L36.9702 20.7975V22.6807L40.0905 24.3843L40.1555 29.929L40.557 30.0692V17.6328Z" fill="#C6C8CE" stroke="#161616" stroke-width="0.0892204" stroke-miterlimit="10"/>
<path d="M37.0054 17.7483L40.5576 14.8009V10.0405L37.0054 14.3298V17.7483Z" fill="#C6C8CE" stroke="#161616" stroke-width="0.0892204" stroke-miterlimit="10"/>
<path d="M38.7186 10.6026L32.6733 8.23996V5.34912L38.7186 7.76742V10.6026Z" fill="white" stroke="#0B0C0C" stroke-width="0.0892204" stroke-miterlimit="10"/>
<path d="M38.7186 7.74907L32.6733 5.38592V0.625977L38.7186 3.97907V7.74907Z" fill="#23346B" stroke="#111110" stroke-width="0.0892204" stroke-miterlimit="10"/>
<path d="M29.1211 11.3368L32.6733 8.224V5.38037L29.122 8.35861L29.1211 11.3368Z" fill="white" stroke="#0B0C0C" stroke-width="0.0892204" stroke-miterlimit="10"/>
<path d="M29.1211 8.33378L32.6733 5.38592V0.625977L29.1211 4.91479V8.33378Z" fill="#C6C8CE" stroke="#161616" stroke-width="0.0892204" stroke-miterlimit="10"/>
<path d="M32.677 8.22266L38.7634 10.6601L38.7807 11.7403L36.6653 14.1221V22.4315L32.677 20.1604V8.22266Z" fill="#23346B" stroke="#111110" stroke-width="0.0892204" stroke-miterlimit="10"/>
<path d="M29.0762 11.214V18.1109L32.677 20.1604V8.22266L29.0762 11.214Z" fill="#C6C8CE" stroke="#161616" stroke-width="0.0892204" stroke-miterlimit="10"/>
<defs>
<linearGradient id="paint0_linear" x1="14.0806" y1="27.8989" x2="40.0906" y2="27.8989" gradientUnits="userSpaceOnUse">
<stop stop-color="#4662AB"/>
<stop offset="1" stop-color="#5264AA"/>
</linearGradient>
<linearGradient id="paint1_linear" x1="-14332.5" y1="2646" x2="-17637.6" y2="2646" gradientUnits="userSpaceOnUse">
<stop stop-color="#4662AB"/>
<stop offset="1" stop-color="#5264AA"/>
</linearGradient>
<linearGradient id="paint2_linear" x1="14.0806" y1="22.777" x2="39.934" y2="22.777" gradientUnits="userSpaceOnUse">
<stop stop-color="#5F7BBC"/>
<stop offset="1" stop-color="#4969B0"/>
</linearGradient>
<linearGradient id="paint3_linear" x1="14.1196" y1="22.7027" x2="1.77335" y2="22.7027" gradientUnits="userSpaceOnUse">
<stop offset="0.05" stop-color="#637ABB"/>
<stop offset="1" stop-color="#506CB2"/>
</linearGradient>
<linearGradient id="paint4_linear" x1="7802.7" y1="5350.24" x2="22103.3" y2="5350.24" gradientUnits="userSpaceOnUse">
<stop stop-color="#5F7BBC"/>
<stop offset="1" stop-color="#4969B0"/>
</linearGradient>
<linearGradient id="paint5_linear" x1="14432" y1="5350.24" x2="17759.3" y2="5350.24" gradientUnits="userSpaceOnUse">
<stop offset="0.05" stop-color="#637ABB"/>
<stop offset="1" stop-color="#506CB2"/>
</linearGradient>
</defs>
</svg>
