<svg width="54" height="54" viewBox="0 0 54 54" fill="none" xmlns="http://www.w3.org/2000/svg">
<g clip-path="url(#clip0)">
<path d="M15.3836 46.0819L12.1802 44.4804C12.1616 44.4711 12.15 44.4524 12.15 44.4316L12.1502 42.8217C13.4652 41.9162 14.396 40.4848 14.6288 38.8049C15.2203 37.7828 15.532 36.6283 15.532 35.4545C15.532 33.2655 14.4779 31.3183 12.851 30.093C12.9464 29.7754 12.9956 29.4477 12.9956 29.1136C12.9956 27.0458 11.1237 25.3635 8.82288 25.3635C6.52208 25.3635 4.65011 27.0458 4.65011 29.1136C4.65011 29.4482 4.69884 29.776 4.79418 30.0934C3.16765 31.3188 2.1138 33.2658 2.1138 35.4545C2.1138 36.6283 2.42567 37.783 3.01693 38.8049C3.24981 40.4848 4.18057 41.9162 5.49555 42.8217V44.4315C5.49555 44.4523 5.48405 44.471 5.46549 44.4803L2.2622 46.0819C1.12767 46.6491 0.422928 47.7896 0.422928 49.058V53.2089C0.422928 53.6457 0.777092 53.9999 1.21394 53.9999C1.65079 53.9999 2.00496 53.6457 2.00496 53.2089V49.058C2.00496 48.3926 2.37463 47.7945 2.96968 47.497L5.61188 46.1759L8.03197 48.4757V53.2089C8.03197 53.6457 8.38613 53.9999 8.82298 53.9999C9.25983 53.9999 9.614 53.6457 9.614 53.2089V48.4756L12.034 46.1759L14.6762 47.4969C15.2713 47.7944 15.641 48.3926 15.641 49.058V53.2089C15.641 53.6457 15.9952 53.9999 16.432 53.9999C16.8689 53.9999 17.223 53.6457 17.223 53.2089V49.058C17.2229 47.7896 16.5182 46.6491 15.3836 46.0819ZM8.82288 26.9455C10.2513 26.9455 11.4136 27.9181 11.4136 29.1135C11.4136 29.1636 11.4096 29.2132 11.4056 29.2629C10.6102 28.9298 9.73771 28.7453 8.82288 28.7453C7.90815 28.7453 7.03582 28.9298 6.24058 29.2628C6.23657 29.2131 6.23214 29.1637 6.23214 29.1135C6.23214 27.918 7.39441 26.9455 8.82288 26.9455ZM8.82288 47.0448L6.88531 45.2036C7.00934 44.9711 7.07748 44.7076 7.07748 44.4314V43.5897C7.63003 43.7612 8.21601 43.8544 8.82288 43.8544C9.42964 43.8544 10.0157 43.7612 10.5681 43.5898L10.568 44.4313C10.568 44.7075 10.6361 44.9712 10.7602 45.2038L8.82288 47.0448ZM8.82288 42.2723C6.63282 42.2724 4.80357 40.6323 4.56795 38.4575C4.5553 38.3409 4.51701 38.2287 4.45563 38.1288C3.95856 37.3193 3.69573 36.3944 3.69573 35.4544C3.69573 32.6273 5.99579 30.3272 8.82288 30.3272C11.65 30.3272 13.95 32.6273 13.95 35.4544C13.95 35.9994 13.8611 36.5391 13.6899 37.0545C11.4439 34.7726 7.49271 33.8784 7.30223 33.8365C7.06229 33.7835 6.81064 33.8275 6.62227 33.9858C6.43623 34.1424 6.33223 34.3583 6.34067 34.6007C6.33466 34.6775 6.27486 35.1928 5.72727 35.7405C5.41835 36.0494 5.41835 36.5502 5.72727 36.8591C6.03618 37.168 6.53705 37.168 6.84587 36.8591C7.29073 36.4142 7.55198 35.9627 7.70544 35.5814C9.03645 35.9768 11.799 36.9754 13.0388 38.7281C12.6869 40.7667 10.921 42.2723 8.82288 42.2723Z" fill="#C76A1D"/>
<path d="M4.59569 50.0815C4.15884 50.0815 3.80467 50.4357 3.80467 50.8726V53.2091C3.80467 53.646 4.15884 54.0001 4.59569 54.0001C5.03254 54.0001 5.3867 53.646 5.3867 53.2091V50.8726C5.3867 50.4357 5.03254 50.0815 4.59569 50.0815Z" fill="#C76A1D"/>
<path d="M13.0502 50.0815C12.6133 50.0815 12.2592 50.4357 12.2592 50.8726V53.2091C12.2592 53.646 12.6133 54.0001 13.0502 54.0001C13.487 54.0001 13.8412 53.646 13.8412 53.2091V50.8726C13.8412 50.4357 13.487 50.0815 13.0502 50.0815Z" fill="#C76A1D"/>
<path d="M36.302 42.396L27.3684 36.711V27.8452C27.3684 27.4084 27.0142 27.0542 26.5774 27.0542C26.1405 27.0542 25.7864 27.4084 25.7864 27.8452V36.711L16.8527 42.396C16.4841 42.6306 16.3755 43.1194 16.6101 43.488C16.7609 43.7249 17.0168 43.8544 17.2782 43.8544C17.4234 43.8544 17.5705 43.8144 17.7021 43.7306L26.5774 38.0828L35.4527 43.7306C35.8213 43.9653 36.3101 43.8565 36.5447 43.488C36.7793 43.1194 36.6705 42.6306 36.302 42.396Z" fill="#EB5757"/>
<path d="M33.138 17.3367L31.0952 16.3155C32.2931 16.0403 33.1911 15.6975 33.7899 15.4217C34.5749 15.0603 34.9376 14.1705 34.6336 13.3521C33.9385 11.4804 33.3946 8.20294 33.2845 6.65318C33.015 2.86021 30.1315 0 26.5774 0C23.0233 0 20.1398 2.86021 19.8702 6.65307C19.7601 8.20294 19.2162 11.4803 18.521 13.352C18.2171 14.1704 18.5798 15.0602 19.3648 15.4216C19.9641 15.6977 20.8619 16.0403 22.0592 16.3154L20.0166 17.3367C18.8821 17.9041 18.1773 19.0444 18.1773 20.3129V24.4637C18.1773 24.9005 18.5315 25.2547 18.9683 25.2547C19.4052 25.2547 19.7594 24.9005 19.7594 24.4637V20.3129C19.7594 19.6476 20.129 19.0493 20.7241 18.7518L23.3663 17.4307L24.2852 18.304C24.9278 18.9147 25.7526 19.2201 26.5773 19.2201C27.402 19.2201 28.2268 18.9148 28.8694 18.304L29.7883 17.4307L32.4305 18.7517C33.0256 19.0492 33.3953 19.6475 33.3953 20.3129V24.4637C33.3953 24.9005 33.7495 25.2547 34.1863 25.2547C34.6232 25.2547 34.9773 24.9005 34.9773 24.4637V20.3129C34.9773 19.0444 34.2725 17.904 33.138 17.3367ZM23.2499 14.9425C21.7501 14.6811 20.683 14.2869 20.0265 13.9845C19.9836 13.9649 20.0002 13.9131 20.004 13.9029C20.3412 12.995 20.641 11.8122 20.8804 10.6307C21.2249 12.0473 22.0847 13.2639 23.2499 14.07V14.9425ZM27.7796 17.1571C27.1056 17.7979 26.0493 17.7979 25.375 17.1571L24.6398 16.4584C24.7638 16.2259 24.832 15.9624 24.832 15.6863V14.8439C25.3835 15.0162 25.9698 15.1091 26.5773 15.1091C27.1841 15.1091 27.7701 15.0158 28.3226 14.8444L28.3225 15.6862C28.3225 15.9624 28.3906 16.2261 28.5146 16.4586L27.7796 17.1571ZM26.5773 13.5271C24.2164 13.5271 22.2956 11.6063 22.2956 9.24539C22.2956 8.80854 21.9414 8.45438 21.5045 8.45438C21.4157 8.45438 21.3306 8.46967 21.251 8.49667C21.3474 7.83084 21.415 7.23146 21.4481 6.76508C21.5492 5.34463 22.1169 4.03534 23.0467 3.07884C23.985 2.11359 25.2388 1.58203 26.5774 1.58203C27.916 1.58203 29.1698 2.11359 30.1081 3.07884C31.0379 4.03545 31.6056 5.34463 31.7065 6.76529C31.7421 7.26532 31.8174 7.91859 31.9252 8.64243C31.0732 7.19508 29.6904 6.13375 27.8722 5.54955C26.2861 5.03993 24.9216 5.07125 24.8645 5.07305C24.6573 5.07874 24.4607 5.16554 24.317 5.31468L22.8903 6.79419C22.5871 7.1087 22.5961 7.60947 22.9107 7.91269C23.2252 8.21591 23.7259 8.20673 24.0292 7.89233L25.2157 6.66183C25.6535 6.68366 26.5049 6.76593 27.4319 7.06978C29.0597 7.60345 30.1939 8.55847 30.8063 9.91005C30.4846 11.9857 28.7005 13.5271 26.5773 13.5271ZM29.9047 14.0773C31.0682 13.2763 31.9296 12.0628 32.2742 10.6303C32.5136 11.8119 32.8133 12.995 33.1506 13.9031C33.1545 13.9131 33.1712 13.9649 33.1282 13.9847C32.4723 14.2868 31.4051 14.681 29.9046 14.9426L29.9047 14.0773Z" fill="#C76A1D"/>
<path d="M22.3501 21.3362C21.9133 21.3362 21.5591 21.6903 21.5591 22.1272V24.4639C21.5591 24.9007 21.9133 25.2549 22.3501 25.2549C22.787 25.2549 23.1411 24.9007 23.1411 24.4639V22.1272C23.1411 21.6903 22.787 21.3362 22.3501 21.3362Z" fill="#C76A1D"/>
<path d="M30.8047 21.3362C30.3678 21.3362 30.0137 21.6903 30.0137 22.1272V24.4639C30.0137 24.9007 30.3678 25.2549 30.8047 25.2549C31.2415 25.2549 31.5957 24.9007 31.5957 24.4639V22.1272C31.5957 21.6903 31.2415 21.3362 30.8047 21.3362Z" fill="#C76A1D"/>
<path d="M47.222 33.9016C45.3851 32.9832 41.9412 32.9727 41.7955 32.9727C41.3587 32.9727 41.0047 33.3266 41.0046 33.7635C41.0045 34.2002 41.3584 34.5545 41.7953 34.5547C42.6851 34.5552 45.2676 34.6932 46.5145 35.3167C46.6281 35.3734 46.7487 35.4003 46.8676 35.4003C47.1577 35.4003 47.4371 35.24 47.5757 34.9629C47.7711 34.5721 47.6127 34.097 47.222 33.9016Z" fill="#C76A1D"/>
<path d="M51.164 45.1591L48.3116 44.3441C47.9273 44.2343 47.659 43.8785 47.659 43.4788L47.6591 42.819C47.9248 42.6349 48.1781 42.4289 48.415 42.199C49.5631 41.0848 50.1954 39.5902 50.1954 37.9907V36.4865L50.5111 35.8552C50.8578 35.162 51.0409 34.386 51.0409 33.6109V29.5361C51.0409 29.0993 50.6867 28.7451 50.2498 28.7451H42.6408C39.8737 28.7451 37.6225 30.9963 37.6225 33.7634V33.8106C37.6225 34.455 37.7748 35.1002 38.063 35.6767L38.4679 36.4865V37.778C38.4679 39.8247 39.4765 41.6612 41.0042 42.7664V43.4789C41.0042 43.8785 40.7359 44.2343 40.3516 44.3441L37.4994 45.1591C36.0785 45.565 35.0862 46.8808 35.0862 48.3585V53.2088C35.0862 53.6456 35.4403 53.9998 35.8772 53.9998C36.314 53.9998 36.6682 53.6456 36.6682 53.2088V48.3584C36.6682 47.5832 37.1888 46.8931 37.934 46.6802L40.7861 45.8652C41.0337 45.7944 41.2629 45.6855 41.4702 45.5479L41.9788 46.0565C42.6274 46.7052 43.4795 47.0295 44.3316 47.0295C45.1837 47.0295 46.0357 46.7052 46.6844 46.0565L47.1928 45.5481C47.4001 45.6857 47.6293 45.7946 47.8768 45.8654L50.7292 46.6804C51.4744 46.8933 51.995 47.5834 51.995 48.3586V53.2088C51.995 53.6456 52.3492 53.9998 52.786 53.9998C53.2229 53.9998 53.5771 53.6456 53.5771 53.2088V48.3584C53.5774 46.8806 52.585 45.5649 51.164 45.1591ZM45.5661 44.9378C44.8855 45.6183 43.7783 45.6183 43.0977 44.9378L42.4486 44.2888C42.5277 44.0618 42.573 43.8212 42.5826 43.5738C43.0814 43.7379 43.6076 43.8353 44.1522 43.8516C44.213 43.8534 44.2736 43.8543 44.3342 43.8543C44.9358 43.8543 45.5231 43.7632 46.0817 43.5894C46.0927 43.8313 46.1375 44.0666 46.215 44.2889L45.5661 44.9378ZM44.1996 42.2703C41.9116 42.2016 40.0502 40.1865 40.0502 37.778V36.2997C40.0502 36.177 40.0216 36.0558 39.9666 35.946L39.4783 34.9691C39.2993 34.6112 39.2047 34.2106 39.2047 33.8105V33.7633C39.2047 31.8686 40.7463 30.327 42.641 30.327H49.459V33.6108C49.459 34.1414 49.3336 34.6729 49.0963 35.1476L48.6971 35.946C48.6422 36.0559 48.6136 36.177 48.6136 36.2997V37.9906C48.6136 39.1587 48.1519 40.25 47.3134 41.0636C46.4754 41.8769 45.3683 42.3053 44.1996 42.2703Z" fill="#C76A1D"/>
<path d="M39.2592 49.0361C38.8223 49.0361 38.4681 49.3903 38.4681 49.8272V53.2089C38.4681 53.6458 38.8223 53.9999 39.2592 53.9999C39.696 53.9999 40.0502 53.6458 40.0502 53.2089V49.8272C40.0502 49.3902 39.696 49.0361 39.2592 49.0361Z" fill="#C76A1D"/>
<path d="M49.4045 49.0361C48.9677 49.0361 48.6135 49.3903 48.6135 49.8272V53.2089C48.6135 53.6458 48.9677 53.9999 49.4045 53.9999C49.8414 53.9999 50.1956 53.6458 50.1956 53.2089V49.8272C50.1956 49.3902 49.8414 49.0361 49.4045 49.0361Z" fill="#C76A1D"/>
</g>
<defs>
<clipPath id="clip0">
<rect width="54" height="54" fill="white"/>
</clipPath>
</defs>
</svg>
