<svg width="0" height="0" style="display:none;">
    <symbol viewBox="0 0 25 25" xmlns="http://www.w3.org/2000/svg" id="icon-edit">
        <path d="M3.5 0.5C2.70435 0.5 1.94129 0.81607 1.37868 1.37868C0.81607 1.94129 0.5 2.70435 0.5 3.5V18.5C0.5 19.2956 0.81607 20.0587 1.37868 20.6213C1.94129 21.1839 2.70435 21.5 3.5 21.5H9.83L10.148 20.2325C10.358 19.3895 10.793 18.62 11.408 18.005L12.413 17H10.25C10.0511 17 9.86032 16.921 9.71967 16.7803C9.57902 16.6397 9.5 16.4489 9.5 16.25C9.5 16.0511 9.57902 15.8603 9.71967 15.7197C9.86032 15.579 10.0511 15.5 10.25 15.5H13.9145L18.653 10.76C19.4117 10.0005 20.4275 9.55307 21.5 9.506V3.5C21.5 2.70435 21.1839 1.94129 20.6213 1.37868C20.0587 0.81607 19.2956 0.5 18.5 0.5H3.5ZM7.25 6.875C7.25 7.17337 7.13147 7.45952 6.9205 7.6705C6.70952 7.88147 6.42337 8 6.125 8C5.82663 8 5.54048 7.88147 5.3295 7.6705C5.11853 7.45952 5 7.17337 5 6.875C5 6.57663 5.11853 6.29048 5.3295 6.0795C5.54048 5.86853 5.82663 5.75 6.125 5.75C6.42337 5.75 6.70952 5.86853 6.9205 6.0795C7.13147 6.29048 7.25 6.57663 7.25 6.875ZM6.125 12.5C5.82663 12.5 5.54048 12.3815 5.3295 12.1705C5.11853 11.9595 5 11.6734 5 11.375C5 11.0766 5.11853 10.7905 5.3295 10.5795C5.54048 10.3685 5.82663 10.25 6.125 10.25C6.42337 10.25 6.70952 10.3685 6.9205 10.5795C7.13147 10.7905 7.25 11.0766 7.25 11.375C7.25 11.6734 7.13147 11.9595 6.9205 12.1705C6.70952 12.3815 6.42337 12.5 6.125 12.5ZM7.25 15.875C7.25 16.1734 7.13147 16.4595 6.9205 16.6705C6.70952 16.8815 6.42337 17 6.125 17C5.82663 17 5.54048 16.8815 5.3295 16.6705C5.11853 16.4595 5 16.1734 5 15.875C5 15.5766 5.11853 15.2905 5.3295 15.0795C5.54048 14.8685 5.82663 14.75 6.125 14.75C6.42337 14.75 6.70952 14.8685 6.9205 15.0795C7.13147 15.2905 7.25 15.5766 7.25 15.875ZM10.25 6.5H16.25C16.4489 6.5 16.6397 6.57902 16.7803 6.71967C16.921 6.86032 17 7.05109 17 7.25C17 7.44891 16.921 7.63968 16.7803 7.78033C16.6397 7.92098 16.4489 8 16.25 8H10.25C10.0511 8 9.86032 7.92098 9.71967 7.78033C9.57902 7.63968 9.5 7.44891 9.5 7.25C9.5 7.05109 9.57902 6.86032 9.71967 6.71967C9.86032 6.57902 10.0511 6.5 10.25 6.5ZM9.5 11.75C9.5 11.5511 9.57902 11.3603 9.71967 11.2197C9.86032 11.079 10.0511 11 10.25 11H16.25C16.4489 11 16.6397 11.079 16.7803 11.2197C16.921 11.3603 17 11.5511 17 11.75C17 11.9489 16.921 12.1397 16.7803 12.2803C16.6397 12.421 16.4489 12.5 16.25 12.5H10.25C10.0511 12.5 9.86032 12.421 9.71967 12.2803C9.57902 12.1397 9.5 11.9489 9.5 11.75ZM12.47 19.0655L19.715 11.8205C19.9756 11.5601 20.285 11.3536 20.6254 11.2127C20.9658 11.0718 21.3306 10.9994 21.6991 10.9996C22.0675 10.9997 22.4323 11.0724 22.7726 11.2135C23.1129 11.3546 23.4221 11.5614 23.6825 11.822C23.9429 12.0826 24.1494 12.392 24.2903 12.7324C24.4312 13.0728 24.5036 13.4376 24.5034 13.8061C24.5033 14.1745 24.4306 14.5393 24.2895 14.8796C24.1484 15.2199 23.9416 15.5291 23.681 15.7895L16.436 23.033C16.0139 23.4553 15.4851 23.7549 14.906 23.9L12.659 24.461C12.4356 24.5167 12.2015 24.5136 11.9796 24.4521C11.7577 24.3906 11.5555 24.2728 11.3926 24.11C11.2297 23.9473 11.1117 23.7452 11.05 23.5233C10.9883 23.3015 10.985 23.0675 11.0405 22.844L11.603 20.597C11.747 20.018 12.047 19.487 12.47 19.067V19.0655Z"/>
    </symbol>
    <symbol viewBox="0 0 18 24" xmlns="http://www.w3.org/2000/svg" id="icon-delete">
        <path d="M1.5 23.25H16.5V5.75H1.5V23.25ZM4.575 11.85L6.3375 10.0875L9 12.7375L11.65 10.0875L13.4125 11.85L10.7625 14.5L13.4125 17.15L11.65 18.9125L9 16.2625L6.35 18.9125L4.5875 17.15L7.2375 14.5L4.575 11.85ZM13.375 2L12.125 0.75H5.875L4.625 2H0.25V4.5H17.75V2H13.375Z" />
    </symbol>
    <symbol viewBox="0 0 20 20" xmlns="http://www.w3.org/2000/svg" id="icon-plus">
        <path d="M11.2478 8.7522V0H8.7522V8.7522H0V11.2478H8.7522V20H11.2478V11.2478H20V8.7522H11.2478Z" fill="#181B20"/>
    </symbol>
    <symbol viewBox="0 0 20 20" xmlns="http://www.w3.org/2000/svg" id="icon-magnify">
        <path d="M19.7556 18.5775L14.0682 12.8901C15.1699 11.5293 15.8332 9.80011 15.8332 7.91681C15.8332 3.55185 12.2815 0.000205994 7.91656 0.000205994C3.55161 0.000205994 0 3.55181 0 7.91677C0 12.2817 3.55165 15.8334 7.9166 15.8334C9.7999 15.8334 11.5291 15.1701 12.8899 14.0684L18.5773 19.7558C18.7398 19.9183 18.9531 20 19.1665 20C19.3798 20 19.5932 19.9183 19.7557 19.7558C20.0815 19.43 20.0815 18.9033 19.7556 18.5775ZM7.9166 14.1667C4.46996 14.1667 1.66666 11.3634 1.66666 7.91677C1.66666 4.47012 4.46996 1.66683 7.9166 1.66683C11.3632 1.66683 14.1665 4.47012 14.1665 7.91677C14.1665 11.3634 11.3632 14.1667 7.9166 14.1667Z" />
    </symbol>
</svg>