<svg width="16" height="16" viewBox="0 0 16 16" fill="none" xmlns="http://www.w3.org/2000/svg">
<g clip-path="url(#clip0)">
<path d="M7.0604 0.598662L14.4667 8.00427L7.0604 15.4099C6.92694 15.548 6.93079 15.7682 7.06895 15.9017C7.20375 16.0319 7.41742 16.0319 7.55219 15.9017L15.204 8.24984C15.3398 8.11403 15.3398 7.89387 15.204 7.75802L7.55219 0.106161C7.41403 -0.0272999 7.19383 -0.0234528 7.06037 0.114704C6.93017 0.249503 6.93017 0.46318 7.06037 0.597978L7.0604 0.598662Z" fill="#607D8B"/>
<path d="M0.799821 0.598683L8.20611 8.00429L0.799822 15.4099C0.666361 15.548 0.670208 15.7682 0.808365 15.9017C0.943164 16.0319 1.15684 16.0319 1.29164 15.9017L8.94349 8.24985C9.07926 8.11404 9.07926 7.89388 8.94349 7.75803L1.29164 0.106183C1.15818 -0.0319729 0.938011 -0.0357895 0.799821 0.09764C0.661664 0.231102 0.657849 0.451266 0.791278 0.589457C0.794083 0.592359 0.796919 0.595195 0.799821 0.597999L0.799821 0.598683Z" fill="#607D8B"/>
<path d="M15.3064 8.00426C15.3065 8.09657 15.27 8.18517 15.2048 8.25051L7.55294 15.9024C7.41478 16.0358 7.19458 16.032 7.06112 15.8938C6.93095 15.759 6.93095 15.5453 7.06112 15.4106L14.4667 8.0043L7.06044 0.598701C6.92697 0.460544 6.93082 0.240346 7.06898 0.106885C7.20378 -0.0233154 7.41745 -0.0233154 7.55225 0.106885L15.2041 7.7587C15.2693 7.82378 15.3061 7.91208 15.3064 8.00426Z" fill="#C76A1D"/>
<path d="M9.04575 8.00426C9.04591 8.09657 9.00939 8.18516 8.94417 8.25051L1.29232 15.9024C1.15417 16.0358 0.933968 16.032 0.800507 15.8938C0.670339 15.759 0.670339 15.5453 0.800507 15.4105L8.20611 8.00426L0.799821 0.598659C0.661664 0.465197 0.657849 0.245032 0.791278 0.106843C0.924707 -0.0313473 1.1449 -0.0351296 1.28309 0.0983C1.286 0.101104 1.28883 0.103941 1.29164 0.106843L8.94349 7.75869C9.00874 7.82378 9.04552 7.91208 9.04575 8.00426Z" fill="#C76A1D"/>
</g>
<defs>
<clipPath id="clip0">
<rect width="16" height="16" fill="white" transform="translate(0 16) rotate(-90)"/>
</clipPath>
</defs>
</svg>
