<svg width="16" height="16" viewBox="0 0 16 16" fill="none" xmlns="http://www.w3.org/2000/svg">
<g clip-path="url(#clip0)">
<path d="M7.06033 0.598632L14.4666 8.00424L7.06033 15.4099C6.92687 15.548 6.93072 15.7682 7.06887 15.9017C7.20367 16.0318 7.41735 16.0318 7.55211 15.9017L15.204 8.24981C15.3397 8.114 15.3397 7.89383 15.204 7.75799L7.55211 0.106131C7.41395 -0.0273304 7.19376 -0.0234833 7.0603 0.114674C6.9301 0.249473 6.9301 0.463149 7.0603 0.597947L7.06033 0.598632Z" fill="#607D8B"/>
<path d="M0.799772 0.598653L8.20606 8.00425L0.799772 15.4099C0.666311 15.548 0.670159 15.7682 0.808316 15.9017C0.943114 16.0318 1.15679 16.0318 1.29159 15.9017L8.94344 8.24982C9.07921 8.11401 9.07921 7.89385 8.94344 7.758L1.29159 0.106153C1.15813 -0.0320034 0.937961 -0.03582 0.799772 0.0976095C0.661615 0.231071 0.6578 0.451236 0.791229 0.589426C0.794033 0.592328 0.79687 0.595164 0.799772 0.597968L0.799772 0.598653Z" fill="#607D8B"/>
<path d="M15.3065 8.00426C15.3066 8.09657 15.2701 8.18517 15.2049 8.25051L7.55303 15.9024C7.41487 16.0358 7.19468 16.032 7.06121 15.8938C6.93105 15.759 6.93105 15.5453 7.06121 15.4106L14.4668 8.0043L7.06053 0.598701C6.92707 0.460544 6.93091 0.240346 7.06907 0.106885C7.20387 -0.0233154 7.41755 -0.0233154 7.55234 0.106885L15.2042 7.7587C15.2694 7.82378 15.3062 7.91208 15.3065 8.00426Z" fill="white"/>
<path d="M9.0457 8.00429C9.04586 8.0966 9.00934 8.1852 8.94412 8.25054L1.29227 15.9024C1.15412 16.0359 0.933919 16.032 0.800457 15.8938C0.670289 15.7591 0.670289 15.5454 0.800457 15.4106L8.20606 8.00429L0.799772 0.598689C0.661615 0.465227 0.6578 0.245063 0.791229 0.106874C0.924658 -0.0313168 1.14485 -0.035099 1.28304 0.0983305C1.28595 0.101134 1.28878 0.103971 1.29159 0.106873L8.94344 7.75872C9.00869 7.82381 9.04547 7.91211 9.0457 8.00429Z" fill="white"/>
</g>
<defs>
<clipPath id="clip0">
<rect width="16" height="16" fill="white" transform="translate(0 16) rotate(-90)"/>
</clipPath>
</defs>
</svg>
