<svg width="40" height="40" viewBox="0 0 40 40" fill="none" xmlns="http://www.w3.org/2000/svg">
<g clip-path="url(#clip0)">
<path d="M25.0906 12.7998H14.9094C13.7464 12.7998 12.8 13.7462 12.8 14.9092V25.0904C12.8 26.2534 13.7464 27.1998 14.9094 27.1998H25.0906C26.2536 27.1998 27.2 26.2534 27.2 25.0904V14.9092C27.2 13.7462 26.2536 12.7998 25.0906 12.7998ZM20.0281 23.7686C17.9344 23.7686 16.2312 22.0653 16.2312 19.9717C16.2312 17.878 17.9344 16.1748 20.0281 16.1748C22.1218 16.1748 23.825 17.878 23.825 19.9717C23.825 22.0653 22.1218 23.7686 20.0281 23.7686ZM24.2469 17.0186C23.549 17.0186 22.9812 16.4508 22.9812 15.7529C22.9812 15.0551 23.549 14.4873 24.2469 14.4873C24.9447 14.4873 25.5125 15.0551 25.5125 15.7529C25.5125 16.4508 24.9447 17.0186 24.2469 17.0186Z" fill="#878787"/>
<path d="M24.2469 15.3311C24.0141 15.3311 23.825 15.5201 23.825 15.7529C23.825 15.9857 24.0141 16.1748 24.2469 16.1748C24.4797 16.1748 24.6688 15.9857 24.6688 15.7529C24.6688 15.5201 24.4797 15.3311 24.2469 15.3311Z" fill="#878787"/>
<path d="M20.0281 17.0186C18.4 17.0186 17.075 18.3435 17.075 19.9717C17.075 21.5999 18.4 22.9248 20.0281 22.9248C21.6563 22.9248 22.9813 21.5999 22.9813 19.9717C22.9813 18.3435 21.6563 17.0186 20.0281 17.0186Z" fill="#878787"/>
</g>
<circle cx="20" cy="20" r="19.5" stroke="#878787"/>
<defs>
<clipPath id="clip0">
<rect width="14.4" height="14.4" fill="white" transform="translate(12.8 12.7998)"/>
</clipPath>
</defs>
</svg>
