<svg width="66" height="14" viewBox="0 0 66 14" fill="none" xmlns="http://www.w3.org/2000/svg">
<path d="M2.078 2.38C3.302 1.144 4.784 0.526 6.524 0.526C8.264 0.526 9.752 1.144 10.988 2.38C12.224 3.604 12.842 5.086 12.842 6.826C12.842 8.566 12.224 10.054 10.988 11.29C9.764 12.514 8.276 13.126 6.524 13.126C4.784 13.126 3.302 12.514 2.078 11.29C0.854 10.054 0.242 8.566 0.242 6.826C0.242 5.086 0.854 3.604 2.078 2.38ZM9.998 3.28C9.062 2.332 7.91 1.858 6.542 1.858C5.174 1.858 4.016 2.332 3.068 3.28C2.132 4.228 1.664 5.41 1.664 6.826C1.664 8.242 2.132 9.424 3.068 10.372C4.016 11.32 5.174 11.794 6.542 11.794C7.91 11.794 9.062 11.32 9.998 10.372C10.946 9.424 11.42 8.242 11.42 6.826C11.42 5.41 10.946 4.228 9.998 3.28ZM18.834 13H17.43V3.244L15.846 5.152L14.91 4.432L18.042 0.669999H18.834V13ZM33.6177 0.399999L28.6137 13H27.7317L32.7357 0.399999H33.6177ZM43.5624 2.38C44.7864 1.144 46.2684 0.526 48.0084 0.526C49.7484 0.526 51.2364 1.144 52.4724 2.38C53.7084 3.604 54.3264 5.086 54.3264 6.826C54.3264 8.566 53.7084 10.054 52.4724 11.29C51.2484 12.514 49.7604 13.126 48.0084 13.126C46.2684 13.126 44.7864 12.514 43.5624 11.29C42.3384 10.054 41.7264 8.566 41.7264 6.826C41.7264 5.086 42.3384 3.604 43.5624 2.38ZM51.4824 3.28C50.5464 2.332 49.3944 1.858 48.0264 1.858C46.6584 1.858 45.5004 2.332 44.5524 3.28C43.6164 4.228 43.1484 5.41 43.1484 6.826C43.1484 8.242 43.6164 9.424 44.5524 10.372C45.5004 11.32 46.6584 11.794 48.0264 11.794C49.3944 11.794 50.5464 11.32 51.4824 10.372C52.4304 9.424 52.9044 8.242 52.9044 6.826C52.9044 5.41 52.4304 4.228 51.4824 3.28ZM65.9164 13H56.5744V12.208L62.1184 7.42C62.9104 6.736 63.4624 6.172 63.7744 5.728C64.0864 5.284 64.2424 4.792 64.2424 4.252C64.2424 3.52 63.9604 2.938 63.3964 2.506C62.8324 2.074 62.1544 1.858 61.3624 1.858L61.2004 1.84C59.8324 1.84 58.6864 2.41 57.7624 3.55L56.8444 2.704C58.0084 1.252 59.4904 0.526 61.2904 0.526H61.4884C62.6884 0.538 63.6784 0.879999 64.4584 1.552C65.2384 2.212 65.6284 3.034 65.6284 4.018C65.6284 4.81 65.3884 5.536 64.9084 6.196C64.4404 6.856 63.6364 7.66 62.4964 8.608L59.0044 11.686H65.9164V13Z" fill="white"/>
</svg>
