<svg width="16" height="16" viewBox="0 0 16 16" fill="none" xmlns="http://www.w3.org/2000/svg">
<path d="M15.9654 12.3971C15.9202 12.2607 15.6322 12.0598 15.1018 11.7949C14.9582 11.7114 14.7534 11.5979 14.4885 11.454C14.2233 11.31 13.9827 11.1774 13.7669 11.0561C13.5507 10.9349 13.3482 10.8175 13.1589 10.7041C13.1287 10.6813 13.034 10.6151 12.8749 10.505C12.7156 10.3953 12.5813 10.3138 12.4713 10.2607C12.3615 10.2079 12.2535 10.1813 12.1474 10.1813C11.9959 10.1813 11.8067 10.2893 11.5795 10.505C11.3523 10.7211 11.1439 10.9558 10.9546 11.2098C10.7653 11.4637 10.5645 11.6983 10.3526 11.9142C10.1404 12.1302 9.96601 12.2382 9.82981 12.2382C9.76144 12.2382 9.67618 12.2191 9.57401 12.1815C9.47188 12.1436 9.39419 12.1112 9.34086 12.085C9.288 12.0583 9.1973 12.0055 9.06842 11.9257C8.9393 11.8461 8.8675 11.8025 8.85238 11.7949C7.81456 11.219 6.92449 10.5599 6.182 9.81776C5.43975 9.07515 4.78056 8.18516 4.20483 7.14722C4.19727 7.13206 4.15361 7.06006 4.07413 6.93134C3.99452 6.8025 3.94147 6.71172 3.91496 6.65854C3.88845 6.60557 3.85626 6.52787 3.81844 6.42562C3.78063 6.32337 3.76165 6.2382 3.76165 6.16994C3.76165 6.03366 3.86963 5.85933 4.08555 5.64719C4.30143 5.43517 4.53634 5.23433 4.79003 5.04508C5.04392 4.85583 5.27859 4.64743 5.49455 4.42024C5.71043 4.19294 5.81837 4.00364 5.81837 3.85216C5.81837 3.74617 5.79187 3.63811 5.73889 3.5283C5.68588 3.41825 5.60444 3.28396 5.49455 3.12479C5.38462 2.96571 5.31835 2.8711 5.29559 2.84065C5.18207 2.6514 5.06478 2.44877 4.94342 2.23285C4.82207 2.01697 4.68961 1.77633 4.54561 1.51121C4.40173 1.24622 4.28818 1.0416 4.20475 0.897676C3.93976 0.367484 3.73904 0.079483 3.60264 0.0341892C3.54959 0.0114627 3.46998 0 3.36403 0C3.15938 0 2.89239 0.0378111 2.56288 0.113672C2.23324 0.189414 1.97386 0.268857 1.78444 0.35232C1.40566 0.511326 1.00418 0.973418 0.579902 1.73844C0.193552 2.4504 0.000396729 3.15508 0.000396729 3.85196C0.000396729 4.05634 0.0136505 4.25519 0.0401581 4.44854C0.0666657 4.6417 0.114029 4.85953 0.182288 5.102C0.250428 5.34439 0.305393 5.52445 0.346946 5.6417C0.388538 5.75903 0.46619 5.96922 0.579862 6.27235C0.693375 6.5754 0.761634 6.76091 0.784361 6.82909C1.04948 7.57154 1.36387 8.23435 1.72745 8.81772C2.32566 9.78735 3.14202 10.7894 4.17606 11.8235C5.21013 12.8576 6.21201 13.6739 7.18172 14.2724C7.76501 14.6359 8.42806 14.9502 9.17039 15.2156C9.23861 15.2382 9.42412 15.3063 9.72705 15.4202C10.0301 15.5338 10.2404 15.6114 10.3577 15.6531C10.4751 15.6948 10.6552 15.7498 10.8974 15.8181C11.1401 15.8863 11.3577 15.9337 11.5509 15.9604C11.7441 15.9865 11.943 16 12.1474 16C12.8443 16 13.549 15.8068 14.2611 15.4205C15.026 14.9963 15.488 14.5948 15.6471 14.2157C15.7307 14.0265 15.81 13.767 15.8857 13.4374C15.9617 13.1079 15.9994 12.841 15.9994 12.6364C15.9997 12.53 15.9883 12.4506 15.9654 12.3971Z" fill="white"/>
</svg>
