<svg width="34" height="34" viewBox="0 0 34 34" fill="none" xmlns="http://www.w3.org/2000/svg">
<path d="M32.8367 9.20105L24.1747 0.200414C24.0514 0.0723828 23.8813 0 23.7036 0H10.7935C9.34874 0 8.17329 1.17499 8.17329 2.6192V11.7692H2.94134C1.86038 11.7692 0.980957 12.6484 0.980957 13.7291V23.5402C0.980957 24.6208 1.86038 25.5 2.94134 25.5H8.17329V31.3854C8.17329 32.8271 9.34874 34 10.7935 34H30.3992C31.844 34 33.0195 32.8277 33.0195 31.3868V9.65447C33.0195 9.4854 32.9539 9.32291 32.8367 9.20105ZM23.8656 1.76514L30.9763 9.15384H23.8656V1.76514ZM2.94134 24.1923C2.58141 24.1923 2.2887 23.8998 2.2887 23.5402V13.7291C2.2887 13.3695 2.58148 13.0769 2.94134 13.0769H20.5976C20.9575 13.0769 21.2502 13.3695 21.2502 13.7291V23.5402C21.2502 23.8998 20.9574 24.1923 20.5976 24.1923H2.94134ZM31.7117 31.3868C31.7117 32.1067 31.1229 32.6923 30.3991 32.6923H10.7935C10.0698 32.6923 9.48096 32.1061 9.48096 31.3855V25.5H20.5976C21.6785 25.5 22.5579 24.6208 22.5579 23.5402V13.7291C22.5579 12.6484 21.6785 11.7692 20.5976 11.7692H9.48096V2.6192C9.48096 1.89596 10.0698 1.30767 10.7935 1.30767H22.5579V9.80767C22.5579 10.1688 22.8507 10.4615 23.2117 10.4615H31.7117V31.3868Z" fill="#C76A1D"/>
<path d="M8.79753 16.5946C8.58045 16.3124 8.31097 16.1291 7.98917 16.0448C7.77973 15.9887 7.33022 15.9606 6.64059 15.9606H4.8208V21.577H5.95482V19.4584H6.69425C7.20764 19.4584 7.5997 19.4316 7.87044 19.3779C8.06965 19.3345 8.26569 19.2457 8.45853 19.1116C8.65137 18.9775 8.81035 18.793 8.93552 18.558C9.0607 18.3231 9.12325 18.0332 9.12325 17.6884C9.12319 17.2414 9.01461 16.8768 8.79753 16.5946ZM7.82634 18.1405C7.74081 18.2657 7.62267 18.3576 7.47193 18.4163C7.32119 18.4751 7.02243 18.5045 6.57545 18.5045H5.95482V16.9107H6.50267C6.91133 16.9107 7.18333 16.9235 7.31867 16.949C7.50255 16.9822 7.65455 17.0652 7.77455 17.198C7.89461 17.3309 7.95464 17.4995 7.95464 17.7037C7.95471 17.8697 7.91187 18.0153 7.82634 18.1405Z" fill="#C76A1D"/>
<path d="M14.5749 17.495C14.4523 17.1361 14.2735 16.8328 14.0385 16.5851C13.8036 16.3373 13.5213 16.1649 13.1918 16.0678C12.9467 15.9963 12.5903 15.9606 12.123 15.9606H10.0503V21.577H12.1843C12.6031 21.577 12.9377 21.5374 13.188 21.4582C13.5226 21.351 13.7882 21.2015 13.9849 21.01C14.2454 20.7571 14.4459 20.4264 14.5864 20.0177C14.7013 19.6831 14.7588 19.2847 14.7588 18.8224C14.7588 18.2963 14.6975 17.8538 14.5749 17.495ZM13.4715 19.8013C13.3948 20.0529 13.2959 20.2336 13.1746 20.3434C13.0533 20.4532 12.9006 20.5311 12.7168 20.5771C12.5763 20.6128 12.3477 20.6307 12.031 20.6307H11.1843V16.9107H11.6938C12.1561 16.9107 12.4665 16.9286 12.6248 16.9644C12.8368 17.0103 13.0117 17.0984 13.1497 17.2287C13.2876 17.359 13.3948 17.5403 13.4715 17.7727C13.5481 18.0051 13.5864 18.3384 13.5864 18.7727C13.5864 19.2068 13.5481 19.5497 13.4715 19.8013Z" fill="#C76A1D"/>
<path d="M19.5783 16.9107V15.9606H15.728V21.577H16.862V19.1902H19.2067V18.2401H16.862V16.9107H19.5783Z" fill="#C76A1D"/>
</svg>
