<svg width="147" height="111" viewBox="0 0 147 111" fill="none" xmlns="http://www.w3.org/2000/svg">
<path d="M15.2846 101H12.6926V86.648H5.10863V101H2.51663V84.2H15.2846V101ZM24.9741 88.832C26.6861 88.832 28.1421 89.44 29.3421 90.656C30.5421 91.856 31.1421 93.304 31.1421 95C31.1421 96.696 30.5421 98.144 29.3421 99.344C28.1421 100.544 26.6861 101.144 24.9741 101.144C23.2621 101.144 21.8061 100.544 20.6061 99.344C19.4221 98.144 18.8301 96.696 18.8301 95C18.8301 93.288 19.4301 91.832 20.6301 90.632C21.8301 89.432 23.2781 88.832 24.9741 88.832ZM27.6141 92.24C26.8781 91.504 25.9981 91.136 24.9741 91.136C23.9501 91.136 23.0701 91.504 22.3341 92.24C21.5981 92.96 21.2301 93.88 21.2301 95C21.2301 96.12 21.5981 97.04 22.3341 97.76C23.0701 98.48 23.9501 98.84 24.9741 98.84C25.9981 98.84 26.8781 98.48 27.6141 97.76C28.3661 97.024 28.7421 96.104 28.7421 95C28.7421 93.88 28.3661 92.96 27.6141 92.24ZM40.1147 88.856C42.0347 88.856 43.6107 89.592 44.8427 91.064L43.4027 92.624C42.4747 91.648 41.3787 91.16 40.1147 91.16C39.0907 91.16 38.2107 91.52 37.4747 92.24C36.7387 92.96 36.3707 93.88 36.3707 95C36.3707 96.12 36.7387 97.04 37.4747 97.76C38.2107 98.48 39.0907 98.84 40.1147 98.84C41.3467 98.84 42.4427 98.352 43.4027 97.376L44.8427 98.936C43.6107 100.408 42.0347 101.144 40.1147 101.144C38.4027 101.144 36.9467 100.544 35.7467 99.344C34.5627 98.144 33.9707 96.696 33.9707 95C33.9707 93.304 34.5627 91.856 35.7467 90.656C36.9467 89.456 38.4027 88.856 40.1147 88.856ZM60.8604 101H58.4604V92.936L54.5724 97.376L50.6844 92.936V101H48.2844V89H49.7964L54.5724 94.472L59.3484 89H60.8604V101ZM70.56 88.832C72.272 88.832 73.728 89.44 74.928 90.656C76.128 91.856 76.728 93.304 76.728 95C76.728 96.696 76.128 98.144 74.928 99.344C73.728 100.544 72.272 101.144 70.56 101.144C68.848 101.144 67.392 100.544 66.192 99.344C65.008 98.144 64.416 96.696 64.416 95C64.416 93.288 65.016 91.832 66.216 90.632C67.416 89.432 68.864 88.832 70.56 88.832ZM73.2 92.24C72.464 91.504 71.584 91.136 70.56 91.136C69.536 91.136 68.656 91.504 67.92 92.24C67.184 92.96 66.816 93.88 66.816 95C66.816 96.12 67.184 97.04 67.92 97.76C68.656 98.48 69.536 98.84 70.56 98.84C71.584 98.84 72.464 98.48 73.2 97.76C73.952 97.024 74.328 96.104 74.328 95C74.328 93.88 73.952 92.96 73.2 92.24ZM85.2017 91.304V101H82.8017V91.304H78.7457V89H89.2817V91.304H85.2017ZM98.5652 88.856C100.261 88.856 101.669 89.456 102.789 90.656C103.925 91.84 104.493 93.288 104.493 95C104.493 96.728 103.925 98.192 102.789 99.392C101.669 100.576 100.261 101.168 98.5652 101.168C97.7812 101.168 97.0532 100.992 96.3812 100.64C95.7092 100.272 95.1732 99.784 94.7732 99.176V105.416H92.3732V89H94.0052L94.1492 91.208C94.5972 90.488 95.2132 89.92 95.9972 89.504C96.7812 89.072 97.6372 88.856 98.5652 88.856ZM101.013 92.24C100.277 91.52 99.3972 91.16 98.3732 91.16C97.3492 91.16 96.4612 91.528 95.7092 92.264C94.9732 92.984 94.6052 93.896 94.6052 95C94.6052 96.104 94.9732 97.024 95.7092 97.76C96.4612 98.48 97.3492 98.84 98.3732 98.84C99.3972 98.84 100.277 98.48 101.013 97.76C101.749 97.04 102.117 96.12 102.117 95C102.117 93.88 101.749 92.96 101.013 92.24ZM113.402 88.832C114.682 88.832 115.778 89.128 116.69 89.72C117.602 90.312 118.282 91.144 118.73 92.216C118.954 92.712 119.082 93.296 119.114 93.968C119.146 94.624 119.09 95.176 118.946 95.624H109.802C109.802 96.648 110.146 97.464 110.834 98.072C111.538 98.664 112.442 98.96 113.546 98.96C114.938 98.96 116.226 98.608 117.41 97.904L118.706 99.296C117.09 100.528 115.37 101.144 113.546 101.144C111.706 101.144 110.21 100.568 109.058 99.416C107.906 98.264 107.33 96.792 107.33 95C107.33 93.256 107.882 91.792 108.986 90.608C110.106 89.424 111.578 88.832 113.402 88.832ZM113.426 91.016C112.434 91.016 111.61 91.32 110.954 91.928C110.298 92.52 109.946 93.24 109.898 94.088H116.786C116.786 93.672 116.69 93.28 116.498 92.912C116.242 92.336 115.842 91.88 115.298 91.544C114.77 91.192 114.146 91.016 113.426 91.016ZM127.764 91.304V101H125.364V91.304H121.308V89H131.844V91.304H127.764ZM137.216 92.672H140.672C141.616 92.672 142.424 92.8 143.096 93.056C143.768 93.296 144.272 93.632 144.608 94.064C144.96 94.496 145.208 94.936 145.352 95.384C145.496 95.832 145.568 96.312 145.568 96.824C145.568 97.336 145.496 97.824 145.352 98.288C145.208 98.736 144.96 99.176 144.608 99.608C144.272 100.04 143.768 100.384 143.096 100.64C142.424 100.88 141.616 101 140.672 101H134.816V89H137.216V92.672ZM137.216 98.768H140.936C142.424 98.768 143.168 98.12 143.168 96.824C143.168 95.544 142.424 94.904 140.936 94.904H137.216V98.768Z" fill="white"/>
<g clip-path="url(#clip0)">
<path d="M100.34 50.1593L84.9841 34.8032C87.9586 31.129 89.7495 26.4602 89.7495 21.3753C89.7495 9.58993 80.1601 0.000488281 68.3747 0.000488281C56.5893 0.000488281 47 9.58982 47 21.3752C47 33.1606 56.5894 42.75 68.3748 42.75C73.4597 42.75 78.1285 40.9591 81.8027 37.9846L97.1588 53.3407C97.5975 53.7794 98.1735 54 98.7495 54C99.3256 54 99.9016 53.7794 100.34 53.3407C101.22 52.461 101.22 51.039 100.34 50.1593ZM68.3748 38.25C59.0689 38.25 51.5 30.6812 51.5 21.3752C51.5 12.0693 59.0689 4.50037 68.3748 4.50037C77.6808 4.50037 85.2497 12.0693 85.2497 21.3752C85.2497 30.6812 77.6807 38.25 68.3748 38.25Z" fill="white"/>
</g>
<defs>
<clipPath id="clip0">
<rect width="54" height="54" fill="white" transform="translate(47)"/>
</clipPath>
</defs>
</svg>
