<svg width="1145" height="458" viewBox="0 0 1145 458" fill="none" xmlns="http://www.w3.org/2000/svg">
<rect x="352.5" y="0.5" width="439" height="85" stroke="#E0E0E0"/>
<rect x="352.5" y="115.5" width="440" height="85" stroke="#E0E0E0"/>
<path d="M461.74 37H459.58V30.96H453.14V37H450.98V23H453.14V28.92H459.58V23H461.74V37ZM474.792 37H473.432L473.312 35.16C472.938 35.76 472.425 36.24 471.772 36.6C471.118 36.9467 470.405 37.12 469.632 37.12C468.218 37.12 467.038 36.6267 466.092 35.64C465.158 34.64 464.692 33.4267 464.692 32C464.692 30.56 465.158 29.3467 466.092 28.36C467.038 27.36 468.218 26.86 469.632 26.86C470.405 26.86 471.118 27.04 471.772 27.4C472.425 27.76 472.938 28.24 473.312 28.84L473.432 27H474.792V37ZM467.612 34.3C468.225 34.9 468.958 35.2 469.812 35.2C470.665 35.2 471.398 34.9 472.012 34.3C472.638 33.6867 472.952 32.92 472.952 32C472.952 31.0667 472.638 30.3 472.012 29.7C471.398 29.0867 470.665 28.78 469.812 28.78C468.958 28.78 468.225 29.0867 467.612 29.7C466.998 30.3 466.692 31.0667 466.692 32C466.692 32.9333 466.998 33.7 467.612 34.3ZM485.754 23H487.734C487.734 23.88 487.454 24.5333 486.894 24.96C486.347 25.3867 485.434 25.6 484.154 25.6H483.634C482.474 25.6 481.567 25.86 480.914 26.38C480.261 26.8867 479.934 27.64 479.934 28.64V29.2C480.241 28.6 480.707 28.12 481.334 27.76C481.961 27.3867 482.654 27.2 483.414 27.2C484.814 27.2 485.961 27.66 486.854 28.58C487.747 29.4867 488.194 30.6267 488.194 32C488.194 33.4667 487.714 34.6933 486.754 35.68C485.807 36.6667 484.574 37.16 483.054 37.16C481.587 37.16 480.367 36.6667 479.394 35.68C478.421 34.6933 477.934 33.4133 477.934 31.84V29.32C477.934 27.5733 478.441 26.2333 479.454 25.3C480.481 24.3667 481.921 23.9 483.774 23.9C484.547 23.9 485.067 23.84 485.334 23.72C485.614 23.5867 485.754 23.3467 485.754 23ZM483.074 29.04C482.221 29.04 481.481 29.34 480.854 29.94C480.241 30.5267 479.934 31.26 479.934 32.14C479.934 33.0333 480.234 33.7733 480.834 34.36C481.447 34.9467 482.194 35.24 483.074 35.24C483.941 35.24 484.674 34.9467 485.274 34.36C485.887 33.7733 486.194 33.0333 486.194 32.14C486.194 31.26 485.881 30.5267 485.254 29.94C484.641 29.34 483.914 29.04 483.074 29.04ZM494.725 29.98L491.605 37H489.485L494.105 27H495.345L499.965 37H497.865L494.725 29.98ZM511.18 26.86C512.593 26.86 513.8 27.3667 514.8 28.38C515.813 29.38 516.32 30.5867 516.32 32C516.32 33.4133 515.82 34.62 514.82 35.62C513.82 36.62 512.607 37.12 511.18 37.12C509.927 37.12 508.827 36.72 507.88 35.92C506.947 35.12 506.38 34.1133 506.18 32.9H504.44V37H502.44V27H504.44V30.98H506.22C506.433 29.8067 507.007 28.8267 507.94 28.04C508.873 27.2533 509.953 26.86 511.18 26.86ZM508.98 34.3C509.593 34.9 510.327 35.2 511.18 35.2C512.033 35.2 512.767 34.9 513.38 34.3C514.007 33.6867 514.32 32.92 514.32 32C514.32 31.0667 514.007 30.3 513.38 29.7C512.767 29.0867 512.033 28.78 511.18 28.78C510.327 28.78 509.593 29.0867 508.98 29.7C508.367 30.3 508.06 31.0667 508.06 32C508.06 32.9333 508.367 33.7 508.98 34.3ZM529.58 39.04H527.6V37H520V39.04H518V35.08H519.44L523.16 27H524.42L528.14 35.08H529.58V39.04ZM523.8 29.98L521.5 35.08H526.12L523.8 29.98ZM541.081 37H539.721L539.601 35.16C539.227 35.76 538.714 36.24 538.061 36.6C537.407 36.9467 536.694 37.12 535.921 37.12C534.507 37.12 533.327 36.6267 532.381 35.64C531.447 34.64 530.981 33.4267 530.981 32C530.981 30.56 531.447 29.3467 532.381 28.36C533.327 27.36 534.507 26.86 535.921 26.86C536.694 26.86 537.407 27.04 538.061 27.4C538.714 27.76 539.227 28.24 539.601 28.84L539.721 27H541.081V37ZM533.901 34.3C534.514 34.9 535.247 35.2 536.101 35.2C536.954 35.2 537.687 34.9 538.301 34.3C538.927 33.6867 539.241 32.92 539.241 32C539.241 31.0667 538.927 30.3 538.301 29.7C537.687 29.0867 536.954 28.78 536.101 28.78C535.247 28.78 534.514 29.0867 533.901 29.7C533.287 30.3 532.981 31.0667 532.981 32C532.981 32.9333 533.287 33.7 533.901 34.3ZM548.927 28.92V37H546.927V28.92H543.547V27H552.327V28.92H548.927ZM559.263 26.86C560.33 26.86 561.243 27.1067 562.003 27.6C562.763 28.0933 563.33 28.7867 563.703 29.68C563.89 30.0933 563.997 30.58 564.023 31.14C564.05 31.6867 564.003 32.1467 563.883 32.52H556.263C556.263 33.3733 556.55 34.0533 557.123 34.56C557.71 35.0533 558.463 35.3 559.383 35.3C560.543 35.3 561.617 35.0067 562.603 34.42L563.683 35.58C562.337 36.6067 560.903 37.12 559.383 37.12C557.85 37.12 556.603 36.64 555.643 35.68C554.683 34.72 554.203 33.4933 554.203 32C554.203 30.5467 554.663 29.3267 555.583 28.34C556.517 27.3533 557.743 26.86 559.263 26.86ZM559.283 28.68C558.457 28.68 557.77 28.9333 557.223 29.44C556.677 29.9333 556.383 30.5333 556.343 31.24H562.083C562.083 30.8933 562.003 30.5667 561.843 30.26C561.63 29.78 561.297 29.4 560.843 29.12C560.403 28.8267 559.883 28.68 559.283 28.68ZM570.936 29.98L567.816 37H565.696L570.316 27H571.556L576.176 37H574.076L570.936 29.98ZM580.651 30.06H583.531C584.318 30.06 584.991 30.1667 585.551 30.38C586.111 30.58 586.531 30.86 586.811 31.22C587.104 31.58 587.311 31.9467 587.431 32.32C587.551 32.6933 587.611 33.0933 587.611 33.52C587.611 33.9467 587.551 34.3533 587.431 34.74C587.311 35.1133 587.104 35.48 586.811 35.84C586.531 36.2 586.111 36.4867 585.551 36.7C584.991 36.9 584.318 37 583.531 37H578.651V27H580.651V30.06ZM580.651 35.14H583.751C584.991 35.14 585.611 34.6 585.611 33.52C585.611 32.4533 584.991 31.92 583.751 31.92H580.651V35.14ZM599.728 37H597.728V32.9H592.468V37H590.468V27H592.468V30.98H597.728V27H599.728V37ZM605.28 30.06H608.16C608.947 30.06 609.62 30.1667 610.18 30.38C610.74 30.58 611.16 30.86 611.44 31.22C611.733 31.58 611.94 31.9467 612.06 32.32C612.18 32.6933 612.24 33.0933 612.24 33.52C612.24 33.9467 612.18 34.3533 612.06 34.74C611.94 35.1133 611.733 35.48 611.44 35.84C611.16 36.2 610.74 36.4867 610.18 36.7C609.62 36.9 608.947 37 608.16 37H603.28V27H605.28V30.06ZM615.34 37H613.34V27H615.34V37ZM605.28 35.14H608.38C609.62 35.14 610.24 34.6 610.24 33.52C610.24 32.4533 609.62 31.92 608.38 31.92H605.28V35.14ZM625.605 25.18C625.032 25.7133 624.325 25.98 623.485 25.98C622.645 25.98 621.932 25.7133 621.345 25.18C620.772 24.6467 620.485 23.9733 620.485 23.16H621.885C621.885 23.56 622.038 23.9 622.345 24.18C622.652 24.4467 623.032 24.58 623.485 24.58C623.938 24.58 624.318 24.4467 624.625 24.18C624.932 23.9 625.085 23.56 625.085 23.16H626.485C626.485 23.9733 626.192 24.6467 625.605 25.18ZM628.045 37H626.045V30.28L620.165 37H618.905V27H620.905V33.72L626.785 27H628.045V37ZM642.683 26.88C644.283 26.88 645.596 27.4933 646.623 28.72L645.423 30.02C644.649 29.2067 643.736 28.8 642.683 28.8C641.829 28.8 641.096 29.1 640.483 29.7C639.869 30.3 639.563 31.0667 639.563 32C639.563 32.9333 639.869 33.7 640.483 34.3C641.096 34.9 641.829 35.2 642.683 35.2C643.709 35.2 644.623 34.7933 645.423 33.98L646.623 35.28C645.596 36.5067 644.283 37.12 642.683 37.12C641.256 37.12 640.043 36.62 639.043 35.62C638.056 34.62 637.563 33.4133 637.563 32C637.563 30.5867 638.056 29.38 639.043 28.38C640.043 27.38 641.256 26.88 642.683 26.88ZM654.011 26.86C655.438 26.86 656.651 27.3667 657.651 28.38C658.651 29.38 659.151 30.5867 659.151 32C659.151 33.4133 658.651 34.62 657.651 35.62C656.651 36.62 655.438 37.12 654.011 37.12C652.584 37.12 651.371 36.62 650.371 35.62C649.384 34.62 648.891 33.4133 648.891 32C648.891 30.5733 649.391 29.36 650.391 28.36C651.391 27.36 652.598 26.86 654.011 26.86ZM656.211 29.7C655.598 29.0867 654.864 28.78 654.011 28.78C653.158 28.78 652.424 29.0867 651.811 29.7C651.198 30.3 650.891 31.0667 650.891 32C650.891 32.9333 651.198 33.7 651.811 34.3C652.424 34.9 653.158 35.2 654.011 35.2C654.864 35.2 655.598 34.9 656.211 34.3C656.838 33.6867 657.151 32.92 657.151 32C657.151 31.0667 656.838 30.3 656.211 29.7ZM662.108 27H667.348C668.481 27 669.315 27.2333 669.848 27.7C670.395 28.1667 670.668 28.82 670.668 29.66C670.668 30.74 670.201 31.4467 669.268 31.78C669.881 31.9133 670.348 32.1867 670.668 32.6C670.988 33 671.148 33.5 671.148 34.1C671.148 35.1 670.841 35.8333 670.228 36.3C669.628 36.7667 668.675 37 667.368 37H662.108V27ZM664.108 28.7V31.1H667.248C668.208 31.1 668.688 30.7 668.688 29.9C668.688 29.1 668.201 28.7 667.228 28.7H664.108ZM664.108 35.3H667.428C668.575 35.3 669.148 34.8467 669.148 33.94C669.148 33.0333 668.581 32.58 667.448 32.58L664.108 32.56V35.3ZM678.599 26.86C679.666 26.86 680.579 27.1067 681.339 27.6C682.099 28.0933 682.666 28.7867 683.039 29.68C683.226 30.0933 683.333 30.58 683.359 31.14C683.386 31.6867 683.339 32.1467 683.219 32.52H675.599C675.599 33.3733 675.886 34.0533 676.459 34.56C677.046 35.0533 677.799 35.3 678.719 35.3C679.879 35.3 680.953 35.0067 681.939 34.42L683.019 35.58C681.673 36.6067 680.239 37.12 678.719 37.12C677.186 37.12 675.939 36.64 674.979 35.68C674.019 34.72 673.539 33.4933 673.539 32C673.539 30.5467 673.999 29.3267 674.919 28.34C675.853 27.3533 677.079 26.86 678.599 26.86ZM678.619 28.68C677.793 28.68 677.106 28.9333 676.559 29.44C676.013 29.9333 675.719 30.5333 675.679 31.24H681.419C681.419 30.8933 681.339 30.5667 681.179 30.26C680.966 29.78 680.633 29.4 680.179 29.12C679.739 28.8267 679.219 28.68 678.619 28.68ZM690.568 28.92V37H688.568V28.92H685.188V27H693.968V28.92H690.568Z" fill="#4F4F4F"/>
<path d="M556.384 55.656H551.232V58.52C551.84 58.0613 552.688 57.832 553.776 57.832C554.928 57.832 555.819 58.1627 556.448 58.824C557.088 59.4747 557.408 60.3387 557.408 61.416C557.408 62.4293 557.051 63.2987 556.336 64.024C555.621 64.7387 554.624 65.1013 553.344 65.112H553.2C551.365 65.1013 549.92 64.3707 548.864 62.92L549.984 61.88C550.485 62.4453 550.987 62.856 551.488 63.112C552 63.3573 552.581 63.48 553.232 63.48H553.328C554.021 63.4693 554.603 63.2667 555.072 62.872C555.541 62.4773 555.776 61.9493 555.776 61.288C555.776 60.584 555.552 60.0453 555.104 59.672C554.667 59.2987 554.043 59.112 553.232 59.112C552.709 59.112 552.197 59.208 551.696 59.4C551.205 59.592 550.816 59.8053 550.528 60.04L549.696 59.4V54.04H556.384V55.656ZM572.491 65H570.891V62.152C570.379 62.8773 569.569 63.24 568.459 63.24C566.07 63.24 564.875 61.9067 564.875 59.24V57H566.475V59.144C566.475 60.0187 566.646 60.664 566.987 61.08C567.329 61.496 567.899 61.704 568.699 61.704C570.161 61.704 570.891 60.92 570.891 59.352V57H572.491V65ZM578.914 56.888C579.767 56.888 580.498 57.0853 581.106 57.48C581.714 57.8747 582.167 58.4293 582.466 59.144C582.615 59.4747 582.701 59.864 582.722 60.312C582.743 60.7493 582.706 61.1173 582.61 61.416H576.514C576.514 62.0987 576.743 62.6427 577.202 63.048C577.671 63.4427 578.274 63.64 579.01 63.64C579.938 63.64 580.797 63.4053 581.586 62.936L582.45 63.864C581.373 64.6853 580.226 65.096 579.01 65.096C577.783 65.096 576.786 64.712 576.018 63.944C575.25 63.176 574.866 62.1947 574.866 61C574.866 59.8373 575.234 58.8613 575.97 58.072C576.717 57.2827 577.698 56.888 578.914 56.888ZM578.93 58.344C578.269 58.344 577.719 58.5467 577.282 58.952C576.845 59.3467 576.61 59.8267 576.578 60.392H581.17C581.17 60.1147 581.106 59.8533 580.978 59.608C580.807 59.224 580.541 58.92 580.178 58.696C579.826 58.4613 579.41 58.344 578.93 58.344ZM588.252 59.384L585.756 65H584.06L587.756 57H588.748L592.444 65H590.764L588.252 59.384ZM594.232 63.592C594.424 63.4213 594.659 63.336 594.936 63.336C595.213 63.336 595.443 63.4213 595.624 63.592C595.816 63.7627 595.912 63.976 595.912 64.232C595.912 64.4773 595.816 64.6853 595.624 64.856C595.443 65.0267 595.213 65.112 594.936 65.112C594.659 65.112 594.424 65.0267 594.232 64.856C594.04 64.6853 593.944 64.4773 593.944 64.232C593.944 63.976 594.04 63.7627 594.232 63.592Z" fill="#828282"/>
<path d="M537.46 154.58H535.3V152H524.86V154.58H522.7V149.96H524.54L529.48 138H530.74L535.64 149.96H537.46V154.58ZM530.1 141.98L526.86 149.96H533.32L530.1 141.98ZM549.092 152H547.092V145.28L541.212 152H539.952V142H541.952V148.72L547.832 142H549.092V152ZM557.907 141.88C559.321 141.88 560.494 142.38 561.427 143.38C562.374 144.367 562.847 145.573 562.847 147C562.847 148.44 562.374 149.66 561.427 150.66C560.494 151.647 559.321 152.14 557.907 152.14C557.254 152.14 556.647 151.993 556.087 151.7C555.527 151.393 555.081 150.987 554.747 150.48V155.68H552.747V142H554.107L554.227 143.84C554.601 143.24 555.114 142.767 555.767 142.42C556.421 142.06 557.134 141.88 557.907 141.88ZM559.947 144.7C559.334 144.1 558.601 143.8 557.747 143.8C556.894 143.8 556.154 144.107 555.527 144.72C554.914 145.32 554.607 146.08 554.607 147C554.607 147.92 554.914 148.687 555.527 149.3C556.154 149.9 556.894 150.2 557.747 150.2C558.601 150.2 559.334 149.9 559.947 149.3C560.561 148.7 560.867 147.933 560.867 147C560.867 146.067 560.561 145.3 559.947 144.7ZM570.271 141.86C571.338 141.86 572.251 142.107 573.011 142.6C573.771 143.093 574.338 143.787 574.711 144.68C574.898 145.093 575.005 145.58 575.031 146.14C575.058 146.687 575.011 147.147 574.891 147.52H567.271C567.271 148.373 567.558 149.053 568.131 149.56C568.718 150.053 569.471 150.3 570.391 150.3C571.551 150.3 572.625 150.007 573.611 149.42L574.691 150.58C573.345 151.607 571.911 152.12 570.391 152.12C568.858 152.12 567.611 151.64 566.651 150.68C565.691 149.72 565.211 148.493 565.211 147C565.211 145.547 565.671 144.327 566.591 143.34C567.525 142.353 568.751 141.86 570.271 141.86ZM570.291 143.68C569.465 143.68 568.778 143.933 568.231 144.44C567.685 144.933 567.391 145.533 567.351 146.24H573.091C573.091 145.893 573.011 145.567 572.851 145.26C572.638 144.78 572.305 144.4 571.851 144.12C571.411 143.827 570.891 143.68 570.291 143.68ZM585.335 152L583.655 149.4C583.242 148.773 582.895 148.353 582.615 148.14C582.335 147.927 581.915 147.82 581.355 147.82H580.235V152H578.235V142H580.235V145.88H581.195C581.769 145.88 582.189 145.773 582.455 145.56C582.735 145.347 583.082 144.92 583.495 144.28L584.995 142H587.215L585.175 145.12C584.522 146.08 583.982 146.647 583.555 146.82C584.075 146.98 584.662 147.567 585.315 148.58L587.555 152H585.335ZM594.193 143.92V152H592.193V143.92H588.813V142H597.593V143.92H594.193ZM604.316 141.86C605.742 141.86 606.956 142.367 607.956 143.38C608.956 144.38 609.456 145.587 609.456 147C609.456 148.413 608.956 149.62 607.956 150.62C606.956 151.62 605.742 152.12 604.316 152.12C602.889 152.12 601.676 151.62 600.676 150.62C599.689 149.62 599.196 148.413 599.196 147C599.196 145.573 599.696 144.36 600.696 143.36C601.696 142.36 602.902 141.86 604.316 141.86ZM606.516 144.7C605.902 144.087 605.169 143.78 604.316 143.78C603.462 143.78 602.729 144.087 602.116 144.7C601.502 145.3 601.196 146.067 601.196 147C601.196 147.933 601.502 148.7 602.116 149.3C602.729 149.9 603.462 150.2 604.316 150.2C605.169 150.2 605.902 149.9 606.516 149.3C607.142 148.687 607.456 147.92 607.456 147C607.456 146.067 607.142 145.3 606.516 144.7ZM617.731 141.88C619.145 141.88 620.318 142.38 621.251 143.38C622.198 144.367 622.671 145.573 622.671 147C622.671 148.44 622.198 149.66 621.251 150.66C620.318 151.647 619.145 152.14 617.731 152.14C617.078 152.14 616.471 151.993 615.911 151.7C615.351 151.393 614.905 150.987 614.571 150.48V155.68H612.571V142H613.931L614.051 143.84C614.425 143.24 614.938 142.767 615.591 142.42C616.245 142.06 616.958 141.88 617.731 141.88ZM619.771 144.7C619.158 144.1 618.425 143.8 617.571 143.8C616.718 143.8 615.978 144.107 615.351 144.72C614.738 145.32 614.431 146.08 614.431 147C614.431 147.92 614.738 148.687 615.351 149.3C615.978 149.9 616.718 150.2 617.571 150.2C618.425 150.2 619.158 149.9 619.771 149.3C620.385 148.7 620.691 147.933 620.691 147C620.691 146.067 620.385 145.3 619.771 144.7Z" fill="#4F4F4F"/>
<path d="M554.832 180H553.104V172.128L551.824 173.664L550.704 172.8L553.84 169.04H554.832V180ZM570.804 180H569.204V177.152C568.692 177.877 567.881 178.24 566.772 178.24C564.382 178.24 563.188 176.907 563.188 174.24V172H564.788V174.144C564.788 175.019 564.958 175.664 565.3 176.08C565.641 176.496 566.212 176.704 567.012 176.704C568.473 176.704 569.204 175.92 569.204 174.352V172H570.804V180ZM577.226 171.888C578.08 171.888 578.81 172.085 579.418 172.48C580.026 172.875 580.48 173.429 580.778 174.144C580.928 174.475 581.013 174.864 581.034 175.312C581.056 175.749 581.018 176.117 580.922 176.416H574.826C574.826 177.099 575.056 177.643 575.514 178.048C575.984 178.443 576.586 178.64 577.322 178.64C578.25 178.64 579.109 178.405 579.898 177.936L580.762 178.864C579.685 179.685 578.538 180.096 577.322 180.096C576.096 180.096 575.098 179.712 574.33 178.944C573.562 178.176 573.178 177.195 573.178 176C573.178 174.837 573.546 173.861 574.282 173.072C575.029 172.283 576.01 171.888 577.226 171.888ZM577.242 173.344C576.581 173.344 576.032 173.547 575.594 173.952C575.157 174.347 574.922 174.827 574.89 175.392H579.482C579.482 175.115 579.418 174.853 579.29 174.608C579.12 174.224 578.853 173.92 578.49 173.696C578.138 173.461 577.722 173.344 577.242 173.344ZM586.564 174.384L584.068 180H582.372L586.068 172H587.06L590.756 180H589.076L586.564 174.384ZM592.545 178.592C592.737 178.421 592.971 178.336 593.249 178.336C593.526 178.336 593.755 178.421 593.937 178.592C594.129 178.763 594.225 178.976 594.225 179.232C594.225 179.477 594.129 179.685 593.937 179.856C593.755 180.027 593.526 180.112 593.249 180.112C592.971 180.112 592.737 180.027 592.545 179.856C592.353 179.685 592.257 179.477 592.257 179.232C592.257 178.976 592.353 178.763 592.545 178.592Z" fill="#828282"/>
<rect x="822.5" y="271.5" width="322" height="110" stroke="#E0E0E0"/>
<path d="M878.224 308H876.064V298.04L871.364 303.96L866.644 298.04V308H864.484V294H865.744L871.364 301.1L876.984 294H878.224V308ZM886.635 297.86C887.701 297.86 888.615 298.107 889.375 298.6C890.135 299.093 890.701 299.787 891.075 300.68C891.261 301.093 891.368 301.58 891.395 302.14C891.421 302.687 891.375 303.147 891.255 303.52H883.635C883.635 304.373 883.921 305.053 884.495 305.56C885.081 306.053 885.835 306.3 886.755 306.3C887.915 306.3 888.988 306.007 889.975 305.42L891.055 306.58C889.708 307.607 888.275 308.12 886.755 308.12C885.221 308.12 883.975 307.64 883.015 306.68C882.055 305.72 881.575 304.493 881.575 303C881.575 301.547 882.035 300.327 882.955 299.34C883.888 298.353 885.115 297.86 886.635 297.86ZM886.655 299.68C885.828 299.68 885.141 299.933 884.595 300.44C884.048 300.933 883.755 301.533 883.715 302.24H889.455C889.455 301.893 889.375 301.567 889.215 301.26C889.001 300.78 888.668 300.4 888.215 300.12C887.775 299.827 887.255 299.68 886.655 299.68ZM903.759 308H901.759V303.9H896.499V308H894.499V298H896.499V301.98H901.759V298H903.759V308ZM911.771 297.86C912.838 297.86 913.751 298.107 914.511 298.6C915.271 299.093 915.838 299.787 916.211 300.68C916.398 301.093 916.505 301.58 916.531 302.14C916.558 302.687 916.511 303.147 916.391 303.52H908.771C908.771 304.373 909.058 305.053 909.631 305.56C910.218 306.053 910.971 306.3 911.891 306.3C913.051 306.3 914.125 306.007 915.111 305.42L916.191 306.58C914.845 307.607 913.411 308.12 911.891 308.12C910.358 308.12 909.111 307.64 908.151 306.68C907.191 305.72 906.711 304.493 906.711 303C906.711 301.547 907.171 300.327 908.091 299.34C909.025 298.353 910.251 297.86 911.771 297.86ZM911.791 299.68C910.965 299.68 910.278 299.933 909.731 300.44C909.185 300.933 908.891 301.533 908.851 302.24H914.591C914.591 301.893 914.511 301.567 914.351 301.26C914.138 300.78 913.805 300.4 913.351 300.12C912.911 299.827 912.391 299.68 911.791 299.68ZM930.115 310.04H928.135V308H920.535V310.04H918.535V306.08H919.975L923.695 298H924.955L928.675 306.08H930.115V310.04ZM924.335 300.98L922.035 306.08H926.655L924.335 300.98ZM945.564 308L943.884 305.4C943.471 304.76 943.124 304.34 942.844 304.14C942.578 303.927 942.158 303.82 941.584 303.82H940.644V308H938.644V303.82H937.724C937.151 303.82 936.724 303.927 936.444 304.14C936.164 304.353 935.818 304.773 935.404 305.4L933.724 308H931.504L933.744 304.58C934.398 303.567 934.984 302.98 935.504 302.82C935.078 302.647 934.538 302.08 933.884 301.12L931.844 298H934.064L935.564 300.28C935.978 300.92 936.318 301.347 936.584 301.56C936.864 301.773 937.291 301.88 937.864 301.88H938.644V298H940.644V301.88H941.424C941.998 301.88 942.418 301.78 942.684 301.58C942.964 301.367 943.318 300.933 943.744 300.28L945.224 298H947.464L945.404 301.12C944.778 302.067 944.238 302.633 943.784 302.82C944.291 302.98 944.884 303.567 945.564 304.58L947.784 308H945.564ZM954.506 297.86C955.572 297.86 956.486 298.107 957.246 298.6C958.006 299.093 958.572 299.787 958.946 300.68C959.132 301.093 959.239 301.58 959.266 302.14C959.292 302.687 959.246 303.147 959.126 303.52H951.506C951.506 304.373 951.792 305.053 952.366 305.56C952.952 306.053 953.706 306.3 954.626 306.3C955.786 306.3 956.859 306.007 957.846 305.42L958.926 306.58C957.579 307.607 956.146 308.12 954.626 308.12C953.092 308.12 951.846 307.64 950.886 306.68C949.926 305.72 949.446 304.493 949.446 303C949.446 301.547 949.906 300.327 950.826 299.34C951.759 298.353 952.986 297.86 954.506 297.86ZM954.526 299.68C953.699 299.68 953.012 299.933 952.466 300.44C951.919 300.933 951.626 301.533 951.586 302.24H957.326C957.326 301.893 957.246 301.567 957.086 301.26C956.872 300.78 956.539 300.4 956.086 300.12C955.646 299.827 955.126 299.68 954.526 299.68ZM967.981 297.88C969.395 297.88 970.568 298.38 971.501 299.38C972.448 300.367 972.921 301.573 972.921 303C972.921 304.44 972.448 305.66 971.501 306.66C970.568 307.647 969.395 308.14 967.981 308.14C967.328 308.14 966.721 307.993 966.161 307.7C965.601 307.393 965.155 306.987 964.821 306.48V311.68H962.821V298H964.181L964.301 299.84C964.675 299.24 965.188 298.767 965.841 298.42C966.495 298.06 967.208 297.88 967.981 297.88ZM970.021 300.7C969.408 300.1 968.675 299.8 967.821 299.8C966.968 299.8 966.228 300.107 965.601 300.72C964.988 301.32 964.681 302.08 964.681 303C964.681 303.92 964.988 304.687 965.601 305.3C966.228 305.9 966.968 306.2 967.821 306.2C968.675 306.2 969.408 305.9 970.021 305.3C970.635 304.7 970.941 303.933 970.941 303C970.941 302.067 970.635 301.3 970.021 300.7ZM991.708 308H989.708V299.92H984.448V308H982.448V298H991.708V308ZM999.78 297.86C1001.21 297.86 1002.42 298.367 1003.42 299.38C1004.42 300.38 1004.92 301.587 1004.92 303C1004.92 304.413 1004.42 305.62 1003.42 306.62C1002.42 307.62 1001.21 308.12 999.78 308.12C998.354 308.12 997.14 307.62 996.14 306.62C995.154 305.62 994.66 304.413 994.66 303C994.66 301.573 995.16 300.36 996.16 299.36C997.16 298.36 998.367 297.86 999.78 297.86ZM1001.98 300.7C1001.37 300.087 1000.63 299.78 999.78 299.78C998.927 299.78 998.194 300.087 997.58 300.7C996.967 301.3 996.66 302.067 996.66 303C996.66 303.933 996.967 304.7 997.58 305.3C998.194 305.9 998.927 306.2 999.78 306.2C1000.63 306.2 1001.37 305.9 1001.98 305.3C1002.61 304.687 1002.92 303.92 1002.92 303C1002.92 302.067 1002.61 301.3 1001.98 300.7ZM1019.7 297.88C1021.11 297.88 1022.29 298.38 1023.22 299.38C1024.17 300.367 1024.64 301.573 1024.64 303C1024.64 304.44 1024.17 305.66 1023.22 306.66C1022.29 307.647 1021.11 308.14 1019.7 308.14C1019.05 308.14 1018.44 307.993 1017.88 307.7C1017.32 307.393 1016.87 306.987 1016.54 306.48V311.68H1014.54V298H1015.9L1016.02 299.84C1016.39 299.24 1016.91 298.767 1017.56 298.42C1018.21 298.06 1018.93 297.88 1019.7 297.88ZM1021.74 300.7C1021.13 300.1 1020.39 299.8 1019.54 299.8C1018.69 299.8 1017.95 300.107 1017.32 300.72C1016.71 301.32 1016.4 302.08 1016.4 303C1016.4 303.92 1016.71 304.687 1017.32 305.3C1017.95 305.9 1018.69 306.2 1019.54 306.2C1020.39 306.2 1021.13 305.9 1021.74 305.3C1022.35 304.7 1022.66 303.933 1022.66 303C1022.66 302.067 1022.35 301.3 1021.74 300.7ZM1037.1 308H1035.74L1035.62 306.16C1035.25 306.76 1034.74 307.24 1034.08 307.6C1033.43 307.947 1032.72 308.12 1031.94 308.12C1030.53 308.12 1029.35 307.627 1028.4 306.64C1027.47 305.64 1027 304.427 1027 303C1027 301.56 1027.47 300.347 1028.4 299.36C1029.35 298.36 1030.53 297.86 1031.94 297.86C1032.72 297.86 1033.43 298.04 1034.08 298.4C1034.74 298.76 1035.25 299.24 1035.62 299.84L1035.74 298H1037.1V308ZM1029.92 305.3C1030.54 305.9 1031.27 306.2 1032.12 306.2C1032.98 306.2 1033.71 305.9 1034.32 305.3C1034.95 304.687 1035.26 303.92 1035.26 303C1035.26 302.067 1034.95 301.3 1034.32 300.7C1033.71 300.087 1032.98 299.78 1032.12 299.78C1031.27 299.78 1030.54 300.087 1029.92 300.7C1029.31 301.3 1029 302.067 1029 303C1029 303.933 1029.31 304.7 1029.92 305.3ZM1048.07 294H1050.05C1050.05 294.88 1049.77 295.533 1049.21 295.96C1048.66 296.387 1047.75 296.6 1046.47 296.6H1045.95C1044.79 296.6 1043.88 296.86 1043.23 297.38C1042.57 297.887 1042.25 298.64 1042.25 299.64V300.2C1042.55 299.6 1043.02 299.12 1043.65 298.76C1044.27 298.387 1044.97 298.2 1045.73 298.2C1047.13 298.2 1048.27 298.66 1049.17 299.58C1050.06 300.487 1050.51 301.627 1050.51 303C1050.51 304.467 1050.03 305.693 1049.07 306.68C1048.12 307.667 1046.89 308.16 1045.37 308.16C1043.9 308.16 1042.68 307.667 1041.71 306.68C1040.73 305.693 1040.25 304.413 1040.25 302.84V300.32C1040.25 298.573 1040.75 297.233 1041.77 296.3C1042.79 295.367 1044.23 294.9 1046.09 294.9C1046.86 294.9 1047.38 294.84 1047.65 294.72C1047.93 294.587 1048.07 294.347 1048.07 294ZM1045.39 300.04C1044.53 300.04 1043.79 300.34 1043.17 300.94C1042.55 301.527 1042.25 302.26 1042.25 303.14C1042.25 304.033 1042.55 304.773 1043.15 305.36C1043.76 305.947 1044.51 306.24 1045.39 306.24C1046.25 306.24 1046.99 305.947 1047.59 305.36C1048.2 304.773 1048.51 304.033 1048.51 303.14C1048.51 302.26 1048.19 301.527 1047.57 300.94C1046.95 300.34 1046.23 300.04 1045.39 300.04ZM1057.98 297.86C1059.41 297.86 1060.62 298.367 1061.62 299.38C1062.62 300.38 1063.12 301.587 1063.12 303C1063.12 304.413 1062.62 305.62 1061.62 306.62C1060.62 307.62 1059.41 308.12 1057.98 308.12C1056.56 308.12 1055.34 307.62 1054.34 306.62C1053.36 305.62 1052.86 304.413 1052.86 303C1052.86 301.573 1053.36 300.36 1054.36 299.36C1055.36 298.36 1056.57 297.86 1057.98 297.86ZM1060.18 300.7C1059.57 300.087 1058.84 299.78 1057.98 299.78C1057.13 299.78 1056.4 300.087 1055.78 300.7C1055.17 301.3 1054.86 302.067 1054.86 303C1054.86 303.933 1055.17 304.7 1055.78 305.3C1056.4 305.9 1057.13 306.2 1057.98 306.2C1058.84 306.2 1059.57 305.9 1060.18 305.3C1060.81 304.687 1061.12 303.92 1061.12 303C1061.12 302.067 1060.81 301.3 1060.18 300.7ZM1070.19 299.92V308H1068.19V299.92H1064.81V298H1073.59V299.92H1070.19ZM1080.52 297.86C1081.59 297.86 1082.5 298.107 1083.26 298.6C1084.02 299.093 1084.59 299.787 1084.96 300.68C1085.15 301.093 1085.25 301.58 1085.28 302.14C1085.31 302.687 1085.26 303.147 1085.14 303.52H1077.52C1077.52 304.373 1077.81 305.053 1078.38 305.56C1078.97 306.053 1079.72 306.3 1080.64 306.3C1081.8 306.3 1082.87 306.007 1083.86 305.42L1084.94 306.58C1083.59 307.607 1082.16 308.12 1080.64 308.12C1079.11 308.12 1077.86 307.64 1076.9 306.68C1075.94 305.72 1075.46 304.493 1075.46 303C1075.46 301.547 1075.92 300.327 1076.84 299.34C1077.77 298.353 1079 297.86 1080.52 297.86ZM1080.54 299.68C1079.71 299.68 1079.03 299.933 1078.48 300.44C1077.93 300.933 1077.64 301.533 1077.6 302.24H1083.34C1083.34 301.893 1083.26 301.567 1083.1 301.26C1082.89 300.78 1082.55 300.4 1082.1 300.12C1081.66 299.827 1081.14 299.68 1080.54 299.68ZM1099.47 297.88C1101.07 297.88 1102.38 298.493 1103.41 299.72L1102.21 301.02C1101.43 300.207 1100.52 299.8 1099.47 299.8C1098.61 299.8 1097.88 300.1 1097.27 300.7C1096.65 301.3 1096.35 302.067 1096.35 303C1096.35 303.933 1096.65 304.7 1097.27 305.3C1097.88 305.9 1098.61 306.2 1099.47 306.2C1100.49 306.2 1101.41 305.793 1102.21 304.98L1103.41 306.28C1102.38 307.507 1101.07 308.12 1099.47 308.12C1098.04 308.12 1096.83 307.62 1095.83 306.62C1094.84 305.62 1094.35 304.413 1094.35 303C1094.35 301.587 1094.84 300.38 1095.83 299.38C1096.83 298.38 1098.04 297.88 1099.47 297.88ZM936.962 338L935.282 335.4C934.869 334.773 934.522 334.353 934.242 334.14C933.962 333.927 933.542 333.82 932.982 333.82H931.862V338H929.862V328H931.862V331.88H932.822C933.396 331.88 933.816 331.773 934.082 331.56C934.362 331.347 934.709 330.92 935.122 330.28L936.622 328H938.842L936.802 331.12C936.149 332.08 935.609 332.647 935.182 332.82C935.702 332.98 936.289 333.567 936.942 334.58L939.182 338H936.962ZM945.68 330.98L942.56 338H940.44L945.06 328H946.3L950.92 338H948.82L945.68 330.98ZM962.32 338H960.32V331.28L954.44 338H953.18V328H955.18V334.72L961.06 328H962.32V338ZM970.336 327.86C971.402 327.86 972.316 328.107 973.076 328.6C973.836 329.093 974.402 329.787 974.776 330.68C974.962 331.093 975.069 331.58 975.096 332.14C975.122 332.687 975.076 333.147 974.956 333.52H967.336C967.336 334.373 967.622 335.053 968.196 335.56C968.782 336.053 969.536 336.3 970.456 336.3C971.616 336.3 972.689 336.007 973.676 335.42L974.756 336.58C973.409 337.607 971.976 338.12 970.456 338.12C968.922 338.12 967.676 337.64 966.716 336.68C965.756 335.72 965.276 334.493 965.276 333C965.276 331.547 965.736 330.327 966.656 329.34C967.589 328.353 968.816 327.86 970.336 327.86ZM970.356 329.68C969.529 329.68 968.842 329.933 968.296 330.44C967.749 330.933 967.456 331.533 967.416 332.24H973.156C973.156 331.893 973.076 331.567 972.916 331.26C972.702 330.78 972.369 330.4 971.916 330.12C971.476 329.827 970.956 329.68 970.356 329.68ZM987.46 338H985.46V333.9H980.2V338H978.2V328H980.2V331.98H985.46V328H987.46V338ZM995.292 329.92V338H993.292V329.92H989.912V328H998.692V329.92H995.292ZM1010.49 338H1009.13L1009.01 336.16C1008.64 336.76 1008.13 337.24 1007.47 337.6C1006.82 337.947 1006.11 338.12 1005.33 338.12C1003.92 338.12 1002.74 337.627 1001.79 336.64C1000.86 335.64 1000.39 334.427 1000.39 333C1000.39 331.56 1000.86 330.347 1001.79 329.36C1002.74 328.36 1003.92 327.86 1005.33 327.86C1006.11 327.86 1006.82 328.04 1007.47 328.4C1008.13 328.76 1008.64 329.24 1009.01 329.84L1009.13 328H1010.49V338ZM1003.31 335.3C1003.93 335.9 1004.66 336.2 1005.51 336.2C1006.37 336.2 1007.1 335.9 1007.71 335.3C1008.34 334.687 1008.65 333.92 1008.65 333C1008.65 332.067 1008.34 331.3 1007.71 330.7C1007.1 330.087 1006.37 329.78 1005.51 329.78C1004.66 329.78 1003.93 330.087 1003.31 330.7C1002.7 331.3 1002.39 332.067 1002.39 333C1002.39 333.933 1002.7 334.7 1003.31 335.3ZM1024.54 338H1022.54V331.28L1019.3 334.98L1016.06 331.28V338H1014.06V328H1015.32L1019.3 332.56L1023.28 328H1024.54V338ZM1037.24 338H1035.24V331.28L1029.36 338H1028.1V328H1030.1V334.72L1035.98 328H1037.24V338Z" fill="#4F4F4F"/>
<path d="M965.832 361H964.104V353.128L962.824 354.664L961.704 353.8L964.84 350.04H965.832V361ZM981.804 361H980.204V358.152C979.692 358.877 978.881 359.24 977.772 359.24C975.382 359.24 974.188 357.907 974.188 355.24V353H975.788V355.144C975.788 356.019 975.958 356.664 976.3 357.08C976.641 357.496 977.212 357.704 978.012 357.704C979.473 357.704 980.204 356.92 980.204 355.352V353H981.804V361ZM988.226 352.888C989.08 352.888 989.81 353.085 990.418 353.48C991.026 353.875 991.48 354.429 991.778 355.144C991.928 355.475 992.013 355.864 992.034 356.312C992.056 356.749 992.018 357.117 991.922 357.416H985.826C985.826 358.099 986.056 358.643 986.514 359.048C986.984 359.443 987.586 359.64 988.322 359.64C989.25 359.64 990.109 359.405 990.898 358.936L991.762 359.864C990.685 360.685 989.538 361.096 988.322 361.096C987.096 361.096 986.098 360.712 985.33 359.944C984.562 359.176 984.178 358.195 984.178 357C984.178 355.837 984.546 354.861 985.282 354.072C986.029 353.283 987.01 352.888 988.226 352.888ZM988.242 354.344C987.581 354.344 987.032 354.547 986.594 354.952C986.157 355.347 985.922 355.827 985.89 356.392H990.482C990.482 356.115 990.418 355.853 990.29 355.608C990.12 355.224 989.853 354.92 989.49 354.696C989.138 354.461 988.722 354.344 988.242 354.344ZM997.564 355.384L995.068 361H993.372L997.068 353H998.06L1001.76 361H1000.08L997.564 355.384ZM1003.54 359.592C1003.74 359.421 1003.97 359.336 1004.25 359.336C1004.53 359.336 1004.76 359.421 1004.94 359.592C1005.13 359.763 1005.22 359.976 1005.22 360.232C1005.22 360.477 1005.13 360.685 1004.94 360.856C1004.76 361.027 1004.53 361.112 1004.25 361.112C1003.97 361.112 1003.74 361.027 1003.54 360.856C1003.35 360.685 1003.26 360.477 1003.26 360.232C1003.26 359.976 1003.35 359.763 1003.54 359.592Z" fill="#828282"/>
<rect x="404.5" y="271.5" width="322" height="186" stroke="#E0E0E0"/>
<path d="M434.985 295.96C436.371 294.56 438.051 293.86 440.025 293.86C441.998 293.86 443.678 294.56 445.065 295.96C446.465 297.347 447.165 299.027 447.165 301C447.165 302.973 446.465 304.66 445.065 306.06C443.678 307.447 441.998 308.14 440.025 308.14C438.051 308.14 436.371 307.447 434.985 306.06C433.598 304.66 432.905 302.973 432.905 301C432.905 299.027 433.598 297.347 434.985 295.96ZM443.565 297.36C442.605 296.387 441.425 295.9 440.025 295.9C438.625 295.9 437.445 296.387 436.485 297.36C435.538 298.32 435.065 299.533 435.065 301C435.065 302.48 435.538 303.7 436.485 304.66C437.445 305.62 438.625 306.1 440.025 306.1C441.425 306.1 442.605 305.62 443.565 304.66C444.525 303.7 445.005 302.48 445.005 301C445.005 299.533 444.525 298.32 443.565 297.36ZM454.501 299.92V308H452.501V299.92H449.121V298H457.901V299.92H454.501ZM470.057 310.04H468.077V308H460.477V310.04H458.477V306.08H459.917L463.637 298H464.897L468.617 306.08H470.057V310.04ZM464.277 300.98L461.977 306.08H466.597L464.277 300.98ZM476.83 297.86C477.897 297.86 478.81 298.107 479.57 298.6C480.33 299.093 480.897 299.787 481.27 300.68C481.457 301.093 481.563 301.58 481.59 302.14C481.617 302.687 481.57 303.147 481.45 303.52H473.83C473.83 304.373 474.117 305.053 474.69 305.56C475.277 306.053 476.03 306.3 476.95 306.3C478.11 306.3 479.183 306.007 480.17 305.42L481.25 306.58C479.903 307.607 478.47 308.12 476.95 308.12C475.417 308.12 474.17 307.64 473.21 306.68C472.25 305.72 471.77 304.493 471.77 303C471.77 301.547 472.23 300.327 473.15 299.34C474.083 298.353 475.31 297.86 476.83 297.86ZM476.85 299.68C476.023 299.68 475.337 299.933 474.79 300.44C474.243 300.933 473.95 301.533 473.91 302.24H479.65C479.65 301.893 479.57 301.567 479.41 301.26C479.197 300.78 478.863 300.4 478.41 300.12C477.97 299.827 477.45 299.68 476.85 299.68ZM488.502 300.98L485.382 308H483.262L487.882 298H489.122L493.742 308H491.642L488.502 300.98ZM512.04 308H510.04V299.92H504.78V308H502.78V298H512.04V308ZM520.113 297.86C521.539 297.86 522.753 298.367 523.753 299.38C524.753 300.38 525.253 301.587 525.253 303C525.253 304.413 524.753 305.62 523.753 306.62C522.753 307.62 521.539 308.12 520.113 308.12C518.686 308.12 517.473 307.62 516.473 306.62C515.486 305.62 514.993 304.413 514.993 303C514.993 301.573 515.493 300.36 516.493 299.36C517.493 298.36 518.699 297.86 520.113 297.86ZM522.313 300.7C521.699 300.087 520.966 299.78 520.113 299.78C519.259 299.78 518.526 300.087 517.913 300.7C517.299 301.3 516.993 302.067 516.993 303C516.993 303.933 517.299 304.7 517.913 305.3C518.526 305.9 519.259 306.2 520.113 306.2C520.966 306.2 521.699 305.9 522.313 305.3C522.939 304.687 523.253 303.92 523.253 303C523.253 302.067 522.939 301.3 522.313 300.7ZM539.292 297.86C540.719 297.86 541.932 298.367 542.932 299.38C543.932 300.38 544.432 301.587 544.432 303C544.432 304.413 543.932 305.62 542.932 306.62C541.932 307.62 540.719 308.12 539.292 308.12C537.866 308.12 536.652 307.62 535.652 306.62C534.666 305.62 534.172 304.413 534.172 303C534.172 301.573 534.672 300.36 535.672 299.36C536.672 298.36 537.879 297.86 539.292 297.86ZM541.492 300.7C540.879 300.087 540.146 299.78 539.292 299.78C538.439 299.78 537.706 300.087 537.092 300.7C536.479 301.3 536.172 302.067 536.172 303C536.172 303.933 536.479 304.7 537.092 305.3C537.706 305.9 538.439 306.2 539.292 306.2C540.146 306.2 540.879 305.9 541.492 305.3C542.119 304.687 542.432 303.92 542.432 303C542.432 302.067 542.119 301.3 541.492 300.7ZM551.909 297.88C553.509 297.88 554.823 298.493 555.849 299.72L554.649 301.02C553.876 300.207 552.963 299.8 551.909 299.8C551.056 299.8 550.323 300.1 549.709 300.7C549.096 301.3 548.789 302.067 548.789 303C548.789 303.933 549.096 304.7 549.709 305.3C550.323 305.9 551.056 306.2 551.909 306.2C552.936 306.2 553.849 305.793 554.649 304.98L555.849 306.28C554.823 307.507 553.509 308.12 551.909 308.12C550.483 308.12 549.269 307.62 548.269 306.62C547.283 305.62 546.789 304.413 546.789 303C546.789 301.587 547.283 300.38 548.269 299.38C549.269 298.38 550.483 297.88 551.909 297.88ZM568.278 298V306.74C568.278 308.247 567.838 309.467 566.958 310.4C566.091 311.347 564.891 311.82 563.358 311.82C561.678 311.82 560.224 311.307 558.998 310.28L560.138 309.06C561.178 309.687 562.251 310 563.358 310C564.278 310 564.991 309.753 565.498 309.26C566.018 308.767 566.278 308.067 566.278 307.16V306.24C565.944 306.8 565.484 307.22 564.898 307.5C564.324 307.767 563.718 307.9 563.078 307.9C561.691 307.9 560.618 307.473 559.858 306.62C559.098 305.767 558.718 304.593 558.718 303.1V298H560.718V302.98C560.718 304.98 561.604 305.98 563.378 305.98C564.284 305.98 564.998 305.693 565.518 305.12C566.038 304.533 566.298 303.693 566.298 302.6V298H568.278ZM588.225 310.04H586.225V308H571.745V298H573.745V306.08H578.125V298H580.125V306.08H584.525V298H586.505V306.08H588.225V310.04ZM595.072 297.86C596.139 297.86 597.052 298.107 597.812 298.6C598.572 299.093 599.139 299.787 599.512 300.68C599.699 301.093 599.805 301.58 599.832 302.14C599.859 302.687 599.812 303.147 599.692 303.52H592.072C592.072 304.373 592.359 305.053 592.932 305.56C593.519 306.053 594.272 306.3 595.192 306.3C596.352 306.3 597.425 306.007 598.412 305.42L599.492 306.58C598.145 307.607 596.712 308.12 595.192 308.12C593.659 308.12 592.412 307.64 591.452 306.68C590.492 305.72 590.012 304.493 590.012 303C590.012 301.547 590.472 300.327 591.392 299.34C592.325 298.353 593.552 297.86 595.072 297.86ZM595.092 299.68C594.265 299.68 593.579 299.933 593.032 300.44C592.485 300.933 592.192 301.533 592.152 302.24H597.892C597.892 301.893 597.812 301.567 597.652 301.26C597.439 300.78 597.105 300.4 596.652 300.12C596.212 299.827 595.692 299.68 595.092 299.68ZM607.456 297.88C609.056 297.88 610.37 298.493 611.396 299.72L610.196 301.02C609.423 300.207 608.51 299.8 607.456 299.8C606.603 299.8 605.87 300.1 605.256 300.7C604.643 301.3 604.336 302.067 604.336 303C604.336 303.933 604.643 304.7 605.256 305.3C605.87 305.9 606.603 306.2 607.456 306.2C608.483 306.2 609.396 305.793 610.196 304.98L611.396 306.28C610.37 307.507 609.056 308.12 607.456 308.12C606.03 308.12 604.816 307.62 603.816 306.62C602.83 305.62 602.336 304.413 602.336 303C602.336 301.587 602.83 300.38 603.816 299.38C604.816 298.38 606.03 297.88 607.456 297.88ZM618.544 299.92V308H616.544V299.92H613.164V298H621.944V299.92H618.544ZM624.421 298H629.661C630.794 298 631.627 298.233 632.161 298.7C632.707 299.167 632.981 299.82 632.981 300.66C632.981 301.74 632.514 302.447 631.581 302.78C632.194 302.913 632.661 303.187 632.981 303.6C633.301 304 633.461 304.5 633.461 305.1C633.461 306.1 633.154 306.833 632.541 307.3C631.941 307.767 630.987 308 629.681 308H624.421V298ZM626.421 299.7V302.1H629.561C630.521 302.1 631.001 301.7 631.001 300.9C631.001 300.1 630.514 299.7 629.541 299.7H626.421ZM626.421 306.3H629.741C630.887 306.3 631.461 305.847 631.461 304.94C631.461 304.033 630.894 303.58 629.761 303.58L626.421 303.56V306.3ZM640.377 300.98L637.257 308H635.137L639.757 298H640.997L645.617 308H643.517L640.377 300.98ZM651.928 297.86C652.994 297.86 653.908 298.107 654.668 298.6C655.428 299.093 655.994 299.787 656.368 300.68C656.554 301.093 656.661 301.58 656.688 302.14C656.714 302.687 656.668 303.147 656.548 303.52H648.928C648.928 304.373 649.214 305.053 649.788 305.56C650.374 306.053 651.128 306.3 652.048 306.3C653.208 306.3 654.281 306.007 655.268 305.42L656.348 306.58C655.001 307.607 653.568 308.12 652.048 308.12C650.514 308.12 649.268 307.64 648.308 306.68C647.348 305.72 646.868 304.493 646.868 303C646.868 301.547 647.328 300.327 648.248 299.34C649.181 298.353 650.408 297.86 651.928 297.86ZM651.948 299.68C651.121 299.68 650.434 299.933 649.888 300.44C649.341 300.933 649.048 301.533 649.008 302.24H654.748C654.748 301.893 654.668 301.567 654.508 301.26C654.294 300.78 653.961 300.4 653.508 300.12C653.068 299.827 652.548 299.68 651.948 299.68ZM669.052 308H667.052V303.9H661.792V308H659.792V298H661.792V301.98H667.052V298H669.052V308ZM681.744 308H679.744V301.28L673.864 308H672.604V298H674.604V304.72L680.484 298H681.744V308ZM694.04 297.86C695.453 297.86 696.66 298.367 697.66 299.38C698.673 300.38 699.18 301.587 699.18 303C699.18 304.413 698.68 305.62 697.68 306.62C696.68 307.62 695.466 308.12 694.04 308.12C692.786 308.12 691.686 307.72 690.74 306.92C689.806 306.12 689.24 305.113 689.04 303.9H687.3V308H685.3V298H687.3V301.98H689.08C689.293 300.807 689.866 299.827 690.8 299.04C691.733 298.253 692.813 297.86 694.04 297.86ZM691.84 305.3C692.453 305.9 693.186 306.2 694.04 306.2C694.893 306.2 695.626 305.9 696.24 305.3C696.866 304.687 697.18 303.92 697.18 303C697.18 302.067 696.866 301.3 696.24 300.7C695.626 300.087 694.893 299.78 694.04 299.78C693.186 299.78 692.453 300.087 691.84 300.7C691.226 301.3 690.92 302.067 690.92 303C690.92 303.933 691.226 304.7 691.84 305.3ZM447.739 327.88C449.339 327.88 450.653 328.493 451.679 329.72L450.479 331.02C449.706 330.207 448.793 329.8 447.739 329.8C446.886 329.8 446.153 330.1 445.539 330.7C444.926 331.3 444.619 332.067 444.619 333C444.619 333.933 444.926 334.7 445.539 335.3C446.153 335.9 446.886 336.2 447.739 336.2C448.766 336.2 449.679 335.793 450.479 334.98L451.679 336.28C450.653 337.507 449.339 338.12 447.739 338.12C446.313 338.12 445.099 337.62 444.099 336.62C443.113 335.62 442.619 334.413 442.619 333C442.619 331.587 443.113 330.38 444.099 329.38C445.099 328.38 446.313 327.88 447.739 327.88ZM458.828 329.92V338H456.828V329.92H453.448V328H462.228V329.92H458.828ZM469.964 327.88C471.377 327.88 472.55 328.38 473.484 329.38C474.43 330.367 474.904 331.573 474.904 333C474.904 334.44 474.43 335.66 473.484 336.66C472.55 337.647 471.377 338.14 469.964 338.14C469.31 338.14 468.704 337.993 468.144 337.7C467.584 337.393 467.137 336.987 466.804 336.48V341.68H464.804V328H466.164L466.284 329.84C466.657 329.24 467.17 328.767 467.824 328.42C468.477 328.06 469.19 327.88 469.964 327.88ZM472.004 330.7C471.39 330.1 470.657 329.8 469.804 329.8C468.95 329.8 468.21 330.107 467.584 330.72C466.97 331.32 466.664 332.08 466.664 333C466.664 333.92 466.97 334.687 467.584 335.3C468.21 335.9 468.95 336.2 469.804 336.2C470.657 336.2 471.39 335.9 472.004 335.3C472.617 334.7 472.924 333.933 472.924 333C472.924 332.067 472.617 331.3 472.004 330.7ZM482.388 327.86C483.815 327.86 485.028 328.367 486.028 329.38C487.028 330.38 487.528 331.587 487.528 333C487.528 334.413 487.028 335.62 486.028 336.62C485.028 337.62 483.815 338.12 482.388 338.12C480.961 338.12 479.748 337.62 478.748 336.62C477.761 335.62 477.268 334.413 477.268 333C477.268 331.573 477.768 330.36 478.768 329.36C479.768 328.36 480.975 327.86 482.388 327.86ZM484.588 330.7C483.975 330.087 483.241 329.78 482.388 329.78C481.535 329.78 480.801 330.087 480.188 330.7C479.575 331.3 479.268 332.067 479.268 333C479.268 333.933 479.575 334.7 480.188 335.3C480.801 335.9 481.535 336.2 482.388 336.2C483.241 336.2 483.975 335.9 484.588 335.3C485.215 334.687 485.528 333.92 485.528 333C485.528 332.067 485.215 331.3 484.588 330.7ZM499.625 338H497.625V331.28L491.745 338H490.485V328H492.485V334.72L498.365 328H499.625V338ZM507.46 329.92V338H505.46V329.92H502.08V328H510.86V329.92H507.46ZM517.797 327.86C518.863 327.86 519.777 328.107 520.537 328.6C521.297 329.093 521.863 329.787 522.237 330.68C522.423 331.093 522.53 331.58 522.557 332.14C522.583 332.687 522.537 333.147 522.417 333.52H514.797C514.797 334.373 515.083 335.053 515.657 335.56C516.243 336.053 516.997 336.3 517.917 336.3C519.077 336.3 520.15 336.007 521.137 335.42L522.217 336.58C520.87 337.607 519.437 338.12 517.917 338.12C516.383 338.12 515.137 337.64 514.177 336.68C513.217 335.72 512.737 334.493 512.737 333C512.737 331.547 513.197 330.327 514.117 329.34C515.05 328.353 516.277 327.86 517.797 327.86ZM517.817 329.68C516.99 329.68 516.303 329.933 515.757 330.44C515.21 330.933 514.917 331.533 514.877 332.24H520.617C520.617 331.893 520.537 331.567 520.377 331.26C520.163 330.78 519.83 330.4 519.377 330.12C518.937 329.827 518.417 329.68 517.817 329.68ZM529.469 330.98L526.349 338H524.229L528.849 328H530.089L534.709 338H532.609L529.469 330.98ZM539.184 331.06H542.064C542.851 331.06 543.524 331.167 544.084 331.38C544.644 331.58 545.064 331.86 545.344 332.22C545.638 332.58 545.844 332.947 545.964 333.32C546.084 333.693 546.144 334.093 546.144 334.52C546.144 334.947 546.084 335.353 545.964 335.74C545.844 336.113 545.638 336.48 545.344 336.84C545.064 337.2 544.644 337.487 544.084 337.7C543.524 337.9 542.851 338 542.064 338H537.184V328H539.184V331.06ZM539.184 336.14H542.284C543.524 336.14 544.144 335.6 544.144 334.52C544.144 333.453 543.524 332.92 542.284 332.92H539.184V336.14ZM558.261 338H556.261V333.9H551.001V338H549.001V328H551.001V331.98H556.261V328H558.261V338ZM566.333 327.86C567.76 327.86 568.973 328.367 569.973 329.38C570.973 330.38 571.473 331.587 571.473 333C571.473 334.413 570.973 335.62 569.973 336.62C568.973 337.62 567.76 338.12 566.333 338.12C564.907 338.12 563.693 337.62 562.693 336.62C561.707 335.62 561.213 334.413 561.213 333C561.213 331.573 561.713 330.36 562.713 329.36C563.713 328.36 564.92 327.86 566.333 327.86ZM568.533 330.7C567.92 330.087 567.187 329.78 566.333 329.78C565.48 329.78 564.747 330.087 564.133 330.7C563.52 331.3 563.213 332.067 563.213 333C563.213 333.933 563.52 334.7 564.133 335.3C564.747 335.9 565.48 336.2 566.333 336.2C567.187 336.2 567.92 335.9 568.533 335.3C569.16 334.687 569.473 333.92 569.473 333C569.473 332.067 569.16 331.3 568.533 330.7ZM576.43 329.92V338H574.43V328H582.03V329.92H576.43ZM588.853 327.86C590.279 327.86 591.493 328.367 592.493 329.38C593.493 330.38 593.993 331.587 593.993 333C593.993 334.413 593.493 335.62 592.493 336.62C591.493 337.62 590.279 338.12 588.853 338.12C587.426 338.12 586.213 337.62 585.213 336.62C584.226 335.62 583.733 334.413 583.733 333C583.733 331.573 584.233 330.36 585.233 329.36C586.233 328.36 587.439 327.86 588.853 327.86ZM591.053 330.7C590.439 330.087 589.706 329.78 588.853 329.78C587.999 329.78 587.266 330.087 586.653 330.7C586.039 331.3 585.733 332.067 585.733 333C585.733 333.933 586.039 334.7 586.653 335.3C587.266 335.9 587.999 336.2 588.853 336.2C589.706 336.2 590.439 335.9 591.053 335.3C591.679 334.687 591.993 333.92 591.993 333C591.993 332.067 591.679 331.3 591.053 330.7ZM612.772 338H610.772V333.9H605.512V338H603.512V328H605.512V331.98H610.772V328H612.772V338ZM625.825 338H624.465L624.345 336.16C623.972 336.76 623.458 337.24 622.805 337.6C622.152 337.947 621.438 338.12 620.665 338.12C619.252 338.12 618.072 337.627 617.125 336.64C616.192 335.64 615.725 334.427 615.725 333C615.725 331.56 616.192 330.347 617.125 329.36C618.072 328.36 619.252 327.86 620.665 327.86C621.438 327.86 622.152 328.04 622.805 328.4C623.458 328.76 623.972 329.24 624.345 329.84L624.465 328H625.825V338ZM618.645 335.3C619.258 335.9 619.992 336.2 620.845 336.2C621.698 336.2 622.432 335.9 623.045 335.3C623.672 334.687 623.985 333.92 623.985 333C623.985 332.067 623.672 331.3 623.045 330.7C622.432 330.087 621.698 329.78 620.845 329.78C619.992 329.78 619.258 330.087 618.645 330.7C618.032 331.3 617.725 332.067 617.725 333C617.725 333.933 618.032 334.7 618.645 335.3ZM639.871 340.04H637.891V338H630.291V340.04H628.291V336.08H629.731L633.451 328H634.711L638.431 336.08H639.871V340.04ZM634.091 330.98L631.791 336.08H636.411L634.091 330.98ZM648.48 332.78C649.76 333.06 650.4 333.833 650.4 335.1C650.4 336.073 650.027 336.82 649.28 337.34C648.547 337.86 647.567 338.127 646.34 338.14H646.08C645.12 338.14 644.22 337.947 643.38 337.56C642.553 337.16 641.98 336.7 641.66 336.18L642.76 335C643.107 335.4 643.573 335.72 644.16 335.96C644.747 336.2 645.373 336.32 646.04 336.32H646.28C646.92 336.32 647.433 336.193 647.82 335.94C648.207 335.673 648.4 335.3 648.4 334.82C648.4 333.927 647.833 333.473 646.7 333.46H645.02V332.22H646.5C647.46 332.207 647.94 331.807 647.94 331.02C647.94 330.58 647.767 330.247 647.42 330.02C647.087 329.793 646.653 329.68 646.12 329.68H645.94C644.833 329.68 643.873 330.073 643.06 330.86L642 329.7C642.44 329.167 643.027 328.727 643.76 328.38C644.493 328.033 645.273 327.86 646.1 327.86H646.28C647.307 327.86 648.167 328.107 648.86 328.6C649.567 329.08 649.92 329.74 649.92 330.58C649.92 331.7 649.44 332.433 648.48 332.78ZM657.954 327.86C659.381 327.86 660.594 328.367 661.594 329.38C662.594 330.38 663.094 331.587 663.094 333C663.094 334.413 662.594 335.62 661.594 336.62C660.594 337.62 659.381 338.12 657.954 338.12C656.528 338.12 655.314 337.62 654.314 336.62C653.328 335.62 652.834 334.413 652.834 333C652.834 331.573 653.334 330.36 654.334 329.36C655.334 328.36 656.541 327.86 657.954 327.86ZM660.154 330.7C659.541 330.087 658.808 329.78 657.954 329.78C657.101 329.78 656.368 330.087 655.754 330.7C655.141 331.3 654.834 332.067 654.834 333C654.834 333.933 655.141 334.7 655.754 335.3C656.368 335.9 657.101 336.2 657.954 336.2C658.808 336.2 659.541 335.9 660.154 335.3C660.781 334.687 661.094 333.92 661.094 333C661.094 332.067 660.781 331.3 660.154 330.7ZM671.37 327.88C672.783 327.88 673.957 328.38 674.89 329.38C675.837 330.367 676.31 331.573 676.31 333C676.31 334.44 675.837 335.66 674.89 336.66C673.957 337.647 672.783 338.14 671.37 338.14C670.717 338.14 670.11 337.993 669.55 337.7C668.99 337.393 668.543 336.987 668.21 336.48V341.68H666.21V328H667.57L667.69 329.84C668.063 329.24 668.577 328.767 669.23 328.42C669.883 328.06 670.597 327.88 671.37 327.88ZM673.41 330.7C672.797 330.1 672.063 329.8 671.21 329.8C670.357 329.8 669.617 330.107 668.99 330.72C668.377 331.32 668.07 332.08 668.07 333C668.07 333.92 668.377 334.687 668.99 335.3C669.617 335.9 670.357 336.2 671.21 336.2C672.063 336.2 672.797 335.9 673.41 335.3C674.023 334.7 674.33 333.933 674.33 333C674.33 332.067 674.023 331.3 673.41 330.7ZM688.774 338H687.414L687.294 336.16C686.921 336.76 686.407 337.24 685.754 337.6C685.101 337.947 684.387 338.12 683.614 338.12C682.201 338.12 681.021 337.627 680.074 336.64C679.141 335.64 678.674 334.427 678.674 333C678.674 331.56 679.141 330.347 680.074 329.36C681.021 328.36 682.201 327.86 683.614 327.86C684.387 327.86 685.101 328.04 685.754 328.4C686.407 328.76 686.921 329.24 687.294 329.84L687.414 328H688.774V338ZM681.594 335.3C682.207 335.9 682.941 336.2 683.794 336.2C684.647 336.2 685.381 335.9 685.994 335.3C686.621 334.687 686.934 333.92 686.934 333C686.934 332.067 686.621 331.3 685.994 330.7C685.381 330.087 684.647 329.78 683.794 329.78C682.941 329.78 682.207 330.087 681.594 330.7C680.981 331.3 680.674 332.067 680.674 333C680.674 333.933 680.981 334.7 681.594 335.3Z" fill="#4F4F4F"/>
<path d="M533.152 357.096V358.728C532.416 359.347 531.824 360.141 531.376 361.112C530.928 362.072 530.693 363.043 530.672 364.024V364.248C530.672 365.229 530.896 366.211 531.344 367.192C531.803 368.163 532.405 368.968 533.152 369.608V371.24C531.883 370.536 530.864 369.544 530.096 368.264C529.328 366.984 528.944 365.645 528.944 364.248V364.024C528.955 362.637 529.344 361.304 530.112 360.024C530.88 358.744 531.893 357.768 533.152 357.096ZM543.118 359.032L539.454 362.408C539.699 362.355 540.035 362.328 540.462 362.328C541.454 362.424 542.216 362.76 542.75 363.336C543.283 363.912 543.55 364.627 543.55 365.48C543.55 366.525 543.198 367.389 542.494 368.072C541.8 368.755 540.808 369.101 539.518 369.112H539.39C537.491 369.101 536.014 368.371 534.958 366.92L536.078 365.88C537.027 366.947 538.131 367.48 539.39 367.48H539.486C540.2 367.469 540.782 367.256 541.23 366.84C541.688 366.424 541.918 365.891 541.918 365.24C541.918 363.917 541.086 363.256 539.422 363.256C538.878 363.256 538.307 363.4 537.71 363.688L536.862 363.048L540.542 359.656H535.95V358.04H543.118V359.032ZM547.078 359.56C548.176 358.461 549.499 357.912 551.046 357.912C552.592 357.912 553.91 358.461 554.998 359.56C556.096 360.648 556.646 361.965 556.646 363.512C556.646 365.059 556.096 366.381 554.998 367.48C553.91 368.568 552.592 369.112 551.046 369.112C549.499 369.112 548.176 368.568 547.078 367.48C545.99 366.381 545.446 365.059 545.446 363.512C545.446 361.965 545.99 360.648 547.078 359.56ZM553.798 360.68C553.051 359.923 552.134 359.544 551.046 359.544C549.958 359.544 549.04 359.923 548.294 360.68C547.558 361.427 547.19 362.371 547.19 363.512C547.19 364.664 547.558 365.613 548.294 366.36C549.04 367.107 549.958 367.48 551.046 367.48C552.134 367.48 553.051 367.107 553.798 366.36C554.544 365.613 554.918 364.664 554.918 363.512C554.918 362.371 554.544 361.427 553.798 360.68ZM571.882 369H570.282V366.152C569.77 366.877 568.959 367.24 567.85 367.24C565.461 367.24 564.266 365.907 564.266 363.24V361H565.866V363.144C565.866 364.019 566.037 364.664 566.378 365.08C566.719 365.496 567.29 365.704 568.09 365.704C569.551 365.704 570.282 364.92 570.282 363.352V361H571.882V369ZM578.305 360.888C579.158 360.888 579.889 361.085 580.497 361.48C581.105 361.875 581.558 362.429 581.857 363.144C582.006 363.475 582.091 363.864 582.113 364.312C582.134 364.749 582.097 365.117 582.001 365.416H575.905C575.905 366.099 576.134 366.643 576.593 367.048C577.062 367.443 577.665 367.64 578.401 367.64C579.329 367.64 580.187 367.405 580.977 366.936L581.841 367.864C580.763 368.685 579.617 369.096 578.401 369.096C577.174 369.096 576.177 368.712 575.409 367.944C574.641 367.176 574.257 366.195 574.257 365C574.257 363.837 574.625 362.861 575.361 362.072C576.107 361.283 577.089 360.888 578.305 360.888ZM578.321 362.344C577.659 362.344 577.11 362.547 576.673 362.952C576.235 363.347 576.001 363.827 575.969 364.392H580.561C580.561 364.115 580.497 363.853 580.369 363.608C580.198 363.224 579.931 362.92 579.569 362.696C579.217 362.461 578.801 362.344 578.321 362.344ZM587.642 363.384L585.146 369H583.45L587.146 361H588.138L591.834 369H590.154L587.642 363.384ZM593.623 367.592C593.815 367.421 594.049 367.336 594.327 367.336C594.604 367.336 594.833 367.421 595.015 367.592C595.207 367.763 595.303 367.976 595.303 368.232C595.303 368.477 595.207 368.685 595.015 368.856C594.833 369.027 594.604 369.112 594.327 369.112C594.049 369.112 593.815 369.027 593.623 368.856C593.431 368.685 593.335 368.477 593.335 368.232C593.335 367.976 593.431 367.763 593.623 367.592ZM597.194 358.728V357.096C598.453 357.768 599.461 358.744 600.218 360.024C600.986 361.304 601.381 362.637 601.402 364.024V364.248C601.402 365.645 601.018 366.984 600.25 368.264C599.482 369.544 598.463 370.536 597.194 371.24V369.608C597.941 368.968 598.538 368.163 598.986 367.192C599.434 366.221 599.658 365.24 599.658 364.248V364.024C599.647 363.043 599.418 362.072 598.97 361.112C598.522 360.141 597.93 359.347 597.194 358.728Z" fill="#828282"/>
<path d="M444.192 404H442.464V399.168H437.312V404H435.584V392.8H437.312V397.536H442.464V392.8H444.192V404ZM454.633 404H453.545L453.449 402.528C453.151 403.008 452.74 403.392 452.217 403.68C451.695 403.957 451.124 404.096 450.505 404.096C449.375 404.096 448.431 403.701 447.673 402.912C446.927 402.112 446.553 401.141 446.553 400C446.553 398.848 446.927 397.877 447.673 397.088C448.431 396.288 449.375 395.888 450.505 395.888C451.124 395.888 451.695 396.032 452.217 396.32C452.74 396.608 453.151 396.992 453.449 397.472L453.545 396H454.633V404ZM448.889 401.84C449.38 402.32 449.967 402.56 450.649 402.56C451.332 402.56 451.919 402.32 452.409 401.84C452.911 401.349 453.161 400.736 453.161 400C453.161 399.253 452.911 398.64 452.409 398.16C451.919 397.669 451.332 397.424 450.649 397.424C449.967 397.424 449.38 397.669 448.889 398.16C448.399 398.64 448.153 399.253 448.153 400C448.153 400.747 448.399 401.36 448.889 401.84ZM465.023 404H463.423V401.152C462.911 401.877 462.1 402.24 460.991 402.24C458.601 402.24 457.407 400.907 457.407 398.24V396H459.007V398.144C459.007 399.019 459.177 399.664 459.519 400.08C459.86 400.496 460.431 400.704 461.231 400.704C462.692 400.704 463.423 399.92 463.423 398.352V396H465.023V404ZM475.477 404H474.389L474.293 402.528C473.994 403.008 473.584 403.392 473.061 403.68C472.538 403.957 471.968 404.096 471.349 404.096C470.218 404.096 469.274 403.701 468.517 402.912C467.77 402.112 467.397 401.141 467.397 400C467.397 398.848 467.77 397.877 468.517 397.088C469.274 396.288 470.218 395.888 471.349 395.888C471.968 395.888 472.538 396.032 473.061 396.32C473.584 396.608 473.994 396.992 474.293 397.472L474.389 396H475.477V404ZM469.733 401.84C470.224 402.32 470.81 402.56 471.493 402.56C472.176 402.56 472.762 402.32 473.253 401.84C473.754 401.349 474.005 400.736 474.005 400C474.005 399.253 473.754 398.64 473.253 398.16C472.762 397.669 472.176 397.424 471.493 397.424C470.81 397.424 470.224 397.669 469.733 398.16C469.242 398.64 468.997 399.253 468.997 400C468.997 400.747 469.242 401.36 469.733 401.84ZM481.642 398.384L479.146 404H477.45L481.146 396H482.138L485.834 404H484.154L481.642 398.384ZM489.415 398.448H491.719C492.348 398.448 492.887 398.533 493.335 398.704C493.783 398.864 494.119 399.088 494.343 399.376C494.577 399.664 494.743 399.957 494.839 400.256C494.935 400.555 494.983 400.875 494.983 401.216C494.983 401.557 494.935 401.883 494.839 402.192C494.743 402.491 494.577 402.784 494.343 403.072C494.119 403.36 493.783 403.589 493.335 403.76C492.887 403.92 492.348 404 491.719 404H487.815V396H489.415V398.448ZM489.415 402.512H491.895C492.887 402.512 493.383 402.08 493.383 401.216C493.383 400.363 492.887 399.936 491.895 399.936H489.415V402.512ZM504.676 404H503.076V400.72H498.868V404H497.268V396H498.868V399.184H503.076V396H504.676V404ZM514.83 404H513.23V398.624L508.526 404H507.518V396H509.118V401.376L513.822 396H514.83V404ZM523.434 404L522.09 401.92C521.759 401.419 521.482 401.083 521.258 400.912C521.034 400.741 520.698 400.656 520.25 400.656H519.354V404H517.754V396H519.354V399.104H520.122C520.581 399.104 520.917 399.019 521.13 398.848C521.354 398.677 521.631 398.336 521.962 397.824L523.162 396H524.938L523.306 398.496C522.783 399.264 522.351 399.717 522.01 399.856C522.426 399.984 522.895 400.453 523.418 401.264L525.21 404H523.434ZM535.962 395.888C537.103 395.888 538.074 396.293 538.874 397.104C539.674 397.904 540.074 398.869 540.074 400C540.074 401.131 539.674 402.096 538.874 402.896C538.074 403.696 537.103 404.096 535.962 404.096C534.821 404.096 533.85 403.696 533.05 402.896C532.261 402.096 531.866 401.131 531.866 400C531.866 398.859 532.266 397.888 533.066 397.088C533.866 396.288 534.831 395.888 535.962 395.888ZM537.722 398.16C537.231 397.669 536.645 397.424 535.962 397.424C535.279 397.424 534.693 397.669 534.202 398.16C533.711 398.64 533.466 399.253 533.466 400C533.466 400.747 533.711 401.36 534.202 401.84C534.693 402.32 535.279 402.56 535.962 402.56C536.645 402.56 537.231 402.32 537.722 401.84C538.223 401.349 538.474 400.736 538.474 400C538.474 399.253 538.223 398.64 537.722 398.16ZM545.723 397.536V404H544.123V397.536H541.419V396H548.443V397.536H545.723ZM558.167 405.632H556.583V404H550.503V405.632H548.903V402.464H550.055L553.031 396H554.039L557.015 402.464H558.167V405.632ZM553.543 398.384L551.703 402.464H555.399L553.543 398.384ZM563.586 395.888C564.439 395.888 565.17 396.085 565.778 396.48C566.386 396.875 566.839 397.429 567.138 398.144C567.287 398.475 567.372 398.864 567.394 399.312C567.415 399.749 567.378 400.117 567.282 400.416H561.186C561.186 401.099 561.415 401.643 561.874 402.048C562.343 402.443 562.946 402.64 563.682 402.64C564.61 402.64 565.468 402.405 566.258 401.936L567.122 402.864C566.044 403.685 564.898 404.096 563.682 404.096C562.455 404.096 561.458 403.712 560.69 402.944C559.922 402.176 559.538 401.195 559.538 400C559.538 398.837 559.906 397.861 560.642 397.072C561.388 396.283 562.37 395.888 563.586 395.888ZM563.602 397.344C562.94 397.344 562.391 397.547 561.954 397.952C561.516 398.347 561.282 398.827 561.25 399.392H565.842C565.842 399.115 565.778 398.853 565.65 398.608C565.479 398.224 565.212 397.92 564.85 397.696C564.498 397.461 564.082 397.344 563.602 397.344ZM572.924 398.384L570.428 404H568.732L572.428 396H573.42L577.116 404H575.436L572.924 398.384ZM586.274 404H585.186L585.09 402.528C584.791 403.008 584.381 403.392 583.858 403.68C583.335 403.957 582.765 404.096 582.146 404.096C581.015 404.096 580.071 403.701 579.314 402.912C578.567 402.112 578.194 401.141 578.194 400C578.194 398.848 578.567 397.877 579.314 397.088C580.071 396.288 581.015 395.888 582.146 395.888C582.765 395.888 583.335 396.032 583.858 396.32C584.381 396.608 584.791 396.992 585.09 397.472L585.186 396H586.274V404ZM580.53 401.84C581.021 402.32 581.607 402.56 582.29 402.56C582.973 402.56 583.559 402.32 584.05 401.84C584.551 401.349 584.802 400.736 584.802 400C584.802 399.253 584.551 398.64 584.05 398.16C583.559 397.669 582.973 397.424 582.29 397.424C581.607 397.424 581.021 397.669 580.53 398.16C580.039 398.64 579.794 399.253 579.794 400C579.794 400.747 580.039 401.36 580.53 401.84ZM597.865 399.904H593.897V398.88H597.865V399.904ZM608.895 404H607.167V396.128L605.887 397.664L604.767 396.8L607.903 393.04H608.895V404ZM624.866 404H623.266V401.152C622.754 401.877 621.944 402.24 620.834 402.24C618.445 402.24 617.25 400.907 617.25 398.24V396H618.85V398.144C618.85 399.019 619.021 399.664 619.362 400.08C619.704 400.496 620.274 400.704 621.074 400.704C622.536 400.704 623.266 399.92 623.266 398.352V396H624.866V404ZM631.289 395.888C632.142 395.888 632.873 396.085 633.481 396.48C634.089 396.875 634.542 397.429 634.841 398.144C634.99 398.475 635.076 398.864 635.097 399.312C635.118 399.749 635.081 400.117 634.985 400.416H628.889C628.889 401.099 629.118 401.643 629.577 402.048C630.046 402.443 630.649 402.64 631.385 402.64C632.313 402.64 633.172 402.405 633.961 401.936L634.825 402.864C633.748 403.685 632.601 404.096 631.385 404.096C630.158 404.096 629.161 403.712 628.393 402.944C627.625 402.176 627.241 401.195 627.241 400C627.241 398.837 627.609 397.861 628.345 397.072C629.092 396.283 630.073 395.888 631.289 395.888ZM631.305 397.344C630.644 397.344 630.094 397.547 629.657 397.952C629.22 398.347 628.985 398.827 628.953 399.392H633.545C633.545 399.115 633.481 398.853 633.353 398.608C633.182 398.224 632.916 397.92 632.553 397.696C632.201 397.461 631.785 397.344 631.305 397.344ZM640.627 398.384L638.131 404H636.435L640.131 396H641.123L644.819 404H643.139L640.627 398.384ZM646.607 402.592C646.799 402.421 647.034 402.336 647.311 402.336C647.588 402.336 647.818 402.421 647.999 402.592C648.191 402.763 648.287 402.976 648.287 403.232C648.287 403.477 648.191 403.685 647.999 403.856C647.818 404.027 647.588 404.112 647.311 404.112C647.034 404.112 646.799 404.027 646.607 403.856C646.415 403.685 646.319 403.477 646.319 403.232C646.319 402.976 646.415 402.763 646.607 402.592Z" fill="#333333"/>
<path d="M444.24 433H442.512V425.096L436.592 433H435.584V421.8H437.312V429.704L443.232 421.8H444.24V433ZM454.66 433H453.06V429.72H448.852V433H447.252V425H448.852V428.184H453.06V425H454.66V433ZM467.87 433L466.526 430.92C466.195 430.408 465.918 430.072 465.694 429.912C465.481 429.741 465.145 429.656 464.686 429.656H463.934V433H462.334V429.656H461.598C461.139 429.656 460.798 429.741 460.574 429.912C460.35 430.083 460.073 430.419 459.742 430.92L458.398 433H456.622L458.414 430.264C458.937 429.453 459.406 428.984 459.822 428.856C459.481 428.717 459.049 428.264 458.526 427.496L456.894 425H458.67L459.87 426.824C460.201 427.336 460.473 427.677 460.686 427.848C460.91 428.019 461.251 428.104 461.71 428.104H462.334V425H463.934V428.104H464.558C465.017 428.104 465.353 428.024 465.566 427.864C465.79 427.693 466.073 427.347 466.414 426.824L467.598 425H469.39L467.742 427.496C467.241 428.253 466.809 428.707 466.446 428.856C466.851 428.984 467.326 429.453 467.87 430.264L469.646 433H467.87ZM475.023 424.888C475.877 424.888 476.607 425.085 477.215 425.48C477.823 425.875 478.277 426.429 478.575 427.144C478.725 427.475 478.81 427.864 478.831 428.312C478.853 428.749 478.815 429.117 478.719 429.416H472.623C472.623 430.099 472.853 430.643 473.311 431.048C473.781 431.443 474.383 431.64 475.119 431.64C476.047 431.64 476.906 431.405 477.695 430.936L478.559 431.864C477.482 432.685 476.335 433.096 475.119 433.096C473.893 433.096 472.895 432.712 472.127 431.944C471.359 431.176 470.975 430.195 470.975 429C470.975 427.837 471.343 426.861 472.079 426.072C472.826 425.283 473.807 424.888 475.023 424.888ZM475.039 426.344C474.378 426.344 473.829 426.547 473.391 426.952C472.954 427.347 472.719 427.827 472.687 428.392H477.279C477.279 428.115 477.215 427.853 477.087 427.608C476.917 427.224 476.65 426.92 476.287 426.696C475.935 426.461 475.519 426.344 475.039 426.344ZM488.723 433H487.123V429.72H482.915V433H481.315V425H482.915V428.184H487.123V425H488.723V433ZM495.133 424.888C495.986 424.888 496.717 425.085 497.325 425.48C497.933 425.875 498.386 426.429 498.685 427.144C498.834 427.475 498.919 427.864 498.941 428.312C498.962 428.749 498.925 429.117 498.829 429.416H492.733C492.733 430.099 492.962 430.643 493.421 431.048C493.89 431.443 494.493 431.64 495.229 431.64C496.157 431.64 497.015 431.405 497.805 430.936L498.669 431.864C497.591 432.685 496.445 433.096 495.229 433.096C494.002 433.096 493.005 432.712 492.237 431.944C491.469 431.176 491.085 430.195 491.085 429C491.085 427.837 491.453 426.861 492.189 426.072C492.935 425.283 493.917 424.888 495.133 424.888ZM495.149 426.344C494.487 426.344 493.938 426.547 493.501 426.952C493.063 427.347 492.829 427.827 492.797 428.392H497.389C497.389 428.115 497.325 427.853 497.197 427.608C497.026 427.224 496.759 426.92 496.397 426.696C496.045 426.461 495.629 426.344 495.149 426.344ZM505.913 424.904C507.044 424.904 507.983 425.304 508.729 426.104C509.487 426.893 509.865 427.859 509.865 429C509.865 430.152 509.487 431.128 508.729 431.928C507.983 432.717 507.044 433.112 505.913 433.112C505.391 433.112 504.905 432.995 504.457 432.76C504.009 432.515 503.652 432.189 503.385 431.784V435.944H501.785V425H502.873L502.969 426.472C503.268 425.992 503.679 425.613 504.201 425.336C504.724 425.048 505.295 424.904 505.913 424.904ZM507.545 427.16C507.055 426.68 506.468 426.44 505.785 426.44C505.103 426.44 504.511 426.685 504.009 427.176C503.519 427.656 503.273 428.264 503.273 429C503.273 429.736 503.519 430.349 504.009 430.84C504.511 431.32 505.103 431.56 505.785 431.56C506.468 431.56 507.055 431.32 507.545 430.84C508.036 430.36 508.281 429.747 508.281 429C508.281 428.253 508.036 427.64 507.545 427.16ZM513.837 427.448H516.141C516.77 427.448 517.309 427.533 517.757 427.704C518.205 427.864 518.541 428.088 518.765 428.376C518.999 428.664 519.165 428.957 519.26 429.256C519.356 429.555 519.405 429.875 519.405 430.216C519.405 430.557 519.356 430.883 519.26 431.192C519.165 431.491 518.999 431.784 518.765 432.072C518.541 432.36 518.205 432.589 517.757 432.76C517.309 432.92 516.77 433 516.141 433H512.237V425H513.837V427.448ZM521.885 433H520.285V425H521.885V433ZM513.837 431.512H516.317C517.309 431.512 517.805 431.08 517.805 430.216C517.805 429.363 517.309 428.936 516.317 428.936H513.837V431.512ZM533.475 428.904H529.507V427.88H533.475V428.904ZM548.696 423.032L545.032 426.408C545.277 426.355 545.613 426.328 546.04 426.328C547.032 426.424 547.795 426.76 548.328 427.336C548.861 427.912 549.128 428.627 549.128 429.48C549.128 430.525 548.776 431.389 548.072 432.072C547.379 432.755 546.387 433.101 545.096 433.112H544.968C543.069 433.101 541.592 432.371 540.536 430.92L541.656 429.88C542.605 430.947 543.709 431.48 544.968 431.48H545.064C545.779 431.469 546.36 431.256 546.808 430.84C547.267 430.424 547.496 429.891 547.496 429.24C547.496 427.917 546.664 427.256 545 427.256C544.456 427.256 543.885 427.4 543.288 427.688L542.44 427.048L546.12 423.656H541.528V422.04H548.696V423.032ZM552.656 423.56C553.754 422.461 555.077 421.912 556.624 421.912C558.17 421.912 559.488 422.461 560.576 423.56C561.674 424.648 562.224 425.965 562.224 427.512C562.224 429.059 561.674 430.381 560.576 431.48C559.488 432.568 558.17 433.112 556.624 433.112C555.077 433.112 553.754 432.568 552.656 431.48C551.568 430.381 551.024 429.059 551.024 427.512C551.024 425.965 551.568 424.648 552.656 423.56ZM559.376 424.68C558.629 423.923 557.712 423.544 556.624 423.544C555.536 423.544 554.618 423.923 553.872 424.68C553.136 425.427 552.768 426.371 552.768 427.512C552.768 428.664 553.136 429.613 553.872 430.36C554.618 431.107 555.536 431.48 556.624 431.48C557.712 431.48 558.629 431.107 559.376 430.36C560.122 429.613 560.496 428.664 560.496 427.512C560.496 426.371 560.122 425.427 559.376 424.68ZM577.46 433H575.86V430.152C575.348 430.877 574.537 431.24 573.428 431.24C571.039 431.24 569.844 429.907 569.844 427.24V425H571.444V427.144C571.444 428.019 571.615 428.664 571.956 429.08C572.297 429.496 572.868 429.704 573.668 429.704C575.129 429.704 575.86 428.92 575.86 427.352V425H577.46V433ZM583.883 424.888C584.736 424.888 585.467 425.085 586.075 425.48C586.683 425.875 587.136 426.429 587.435 427.144C587.584 427.475 587.669 427.864 587.691 428.312C587.712 428.749 587.675 429.117 587.579 429.416H581.483C581.483 430.099 581.712 430.643 582.171 431.048C582.64 431.443 583.243 431.64 583.979 431.64C584.907 431.64 585.765 431.405 586.555 430.936L587.419 431.864C586.341 432.685 585.195 433.096 583.979 433.096C582.752 433.096 581.755 432.712 580.987 431.944C580.219 431.176 579.835 430.195 579.835 429C579.835 427.837 580.203 426.861 580.939 426.072C581.685 425.283 582.667 424.888 583.883 424.888ZM583.899 426.344C583.237 426.344 582.688 426.547 582.251 426.952C581.813 427.347 581.579 427.827 581.547 428.392H586.139C586.139 428.115 586.075 427.853 585.947 427.608C585.776 427.224 585.509 426.92 585.147 426.696C584.795 426.461 584.379 426.344 583.899 426.344ZM593.22 427.384L590.724 433H589.028L592.724 425H593.716L597.412 433H595.732L593.22 427.384ZM599.201 431.592C599.393 431.421 599.627 431.336 599.905 431.336C600.182 431.336 600.411 431.421 600.593 431.592C600.785 431.763 600.881 431.976 600.881 432.232C600.881 432.477 600.785 432.685 600.593 432.856C600.411 433.027 600.182 433.112 599.905 433.112C599.627 433.112 599.393 433.027 599.201 432.856C599.009 432.685 598.913 432.477 598.913 432.232C598.913 431.976 599.009 431.763 599.201 431.592Z" fill="#333333"/>
<rect x="0.5" y="271.5" width="322" height="110" stroke="#E0E0E0"/>
<path d="M95.74 308H93.58V301.96H87.14V308H84.98V294H87.14V299.92H93.58V294H95.74V308ZM99.9066 294H104.547C106.4 294 107.867 294.48 108.947 295.44C110.04 296.387 110.587 297.627 110.587 299.16C110.587 300.253 110.293 301.18 109.707 301.94C109.133 302.7 108.327 303.26 107.287 303.62C107.94 303.94 108.673 304.733 109.487 306L110.787 308H108.367L107.327 306.4C106.767 305.547 106.3 304.993 105.927 304.74C105.553 304.487 105 304.347 104.267 304.32H102.067V308H99.9066V294ZM102.067 296.04V302.3H104.727C105.847 302.3 106.76 302.04 107.467 301.52C108.187 300.987 108.547 300.2 108.547 299.16C108.547 298.147 108.187 297.373 107.467 296.84C106.747 296.307 105.833 296.04 104.727 296.04H102.067ZM124.394 302.88H119.434V301.6H124.394V302.88ZM144.401 308H142.401V301.28L139.161 304.98L135.921 301.28V308H133.921V298H135.181L139.161 302.56L143.141 298H144.401V308ZM152.424 297.86C153.49 297.86 154.404 298.107 155.164 298.6C155.924 299.093 156.49 299.787 156.864 300.68C157.05 301.093 157.157 301.58 157.184 302.14C157.21 302.687 157.164 303.147 157.044 303.52H149.424C149.424 304.373 149.71 305.053 150.284 305.56C150.87 306.053 151.624 306.3 152.544 306.3C153.704 306.3 154.777 306.007 155.764 305.42L156.844 306.58C155.497 307.607 154.064 308.12 152.544 308.12C151.01 308.12 149.764 307.64 148.804 306.68C147.844 305.72 147.364 304.493 147.364 303C147.364 301.547 147.824 300.327 148.744 299.34C149.677 298.353 150.904 297.86 152.424 297.86ZM152.444 299.68C151.617 299.68 150.93 299.933 150.384 300.44C149.837 300.933 149.544 301.533 149.504 302.24H155.244C155.244 301.893 155.164 301.567 155.004 301.26C154.79 300.78 154.457 300.4 154.004 300.12C153.564 299.827 153.044 299.68 152.444 299.68ZM169.548 308H167.548V303.9H162.288V308H160.288V298H162.288V301.98H167.548V298H169.548V308ZM177.56 297.86C178.627 297.86 179.54 298.107 180.3 298.6C181.06 299.093 181.627 299.787 182 300.68C182.187 301.093 182.294 301.58 182.32 302.14C182.347 302.687 182.3 303.147 182.18 303.52H174.56C174.56 304.373 174.847 305.053 175.42 305.56C176.007 306.053 176.76 306.3 177.68 306.3C178.84 306.3 179.914 306.007 180.9 305.42L181.98 306.58C180.634 307.607 179.2 308.12 177.68 308.12C176.147 308.12 174.9 307.64 173.94 306.68C172.98 305.72 172.5 304.493 172.5 303C172.5 301.547 172.96 300.327 173.88 299.34C174.814 298.353 176.04 297.86 177.56 297.86ZM177.58 299.68C176.754 299.68 176.067 299.933 175.52 300.44C174.974 300.933 174.68 301.533 174.64 302.24H180.38C180.38 301.893 180.3 301.567 180.14 301.26C179.927 300.78 179.594 300.4 179.14 300.12C178.7 299.827 178.18 299.68 177.58 299.68ZM195.905 310.04H193.925V308H186.325V310.04H184.325V306.08H185.765L189.485 298H190.745L194.465 306.08H195.905V310.04ZM190.125 300.98L187.825 306.08H192.445L190.125 300.98ZM211.353 308L209.673 305.4C209.26 304.76 208.913 304.34 208.633 304.14C208.367 303.927 207.947 303.82 207.373 303.82H206.433V308H204.433V303.82H203.513C202.94 303.82 202.513 303.927 202.233 304.14C201.953 304.353 201.607 304.773 201.193 305.4L199.513 308H197.293L199.533 304.58C200.187 303.567 200.773 302.98 201.293 302.82C200.867 302.647 200.327 302.08 199.673 301.12L197.633 298H199.853L201.353 300.28C201.767 300.92 202.107 301.347 202.373 301.56C202.653 301.773 203.08 301.88 203.653 301.88H204.433V298H206.433V301.88H207.213C207.787 301.88 208.207 301.78 208.473 301.58C208.753 301.367 209.107 300.933 209.533 300.28L211.013 298H213.253L211.193 301.12C210.567 302.067 210.027 302.633 209.573 302.82C210.08 302.98 210.673 303.567 211.353 304.58L213.573 308H211.353ZM220.295 297.86C221.361 297.86 222.275 298.107 223.035 298.6C223.795 299.093 224.361 299.787 224.735 300.68C224.921 301.093 225.028 301.58 225.055 302.14C225.081 302.687 225.035 303.147 224.915 303.52H217.295C217.295 304.373 217.581 305.053 218.155 305.56C218.741 306.053 219.495 306.3 220.415 306.3C221.575 306.3 222.648 306.007 223.635 305.42L224.715 306.58C223.368 307.607 221.935 308.12 220.415 308.12C218.881 308.12 217.635 307.64 216.675 306.68C215.715 305.72 215.235 304.493 215.235 303C215.235 301.547 215.695 300.327 216.615 299.34C217.548 298.353 218.775 297.86 220.295 297.86ZM220.315 299.68C219.488 299.68 218.801 299.933 218.255 300.44C217.708 300.933 217.415 301.533 217.375 302.24H223.115C223.115 301.893 223.035 301.567 222.875 301.26C222.661 300.78 222.328 300.4 221.875 300.12C221.435 299.827 220.915 299.68 220.315 299.68ZM233.77 297.88C235.184 297.88 236.357 298.38 237.29 299.38C238.237 300.367 238.71 301.573 238.71 303C238.71 304.44 238.237 305.66 237.29 306.66C236.357 307.647 235.184 308.14 233.77 308.14C233.117 308.14 232.51 307.993 231.95 307.7C231.39 307.393 230.944 306.987 230.61 306.48V311.68H228.61V298H229.97L230.09 299.84C230.464 299.24 230.977 298.767 231.63 298.42C232.284 298.06 232.997 297.88 233.77 297.88ZM235.81 300.7C235.197 300.1 234.464 299.8 233.61 299.8C232.757 299.8 232.017 300.107 231.39 300.72C230.777 301.32 230.47 302.08 230.47 303C230.47 303.92 230.777 304.687 231.39 305.3C232.017 305.9 232.757 306.2 233.61 306.2C234.464 306.2 235.197 305.9 235.81 305.3C236.424 304.7 236.73 303.933 236.73 303C236.73 302.067 236.424 301.3 235.81 300.7Z" fill="#4F4F4F"/>
<path d="M143.832 336H142.104V328.128L140.824 329.664L139.704 328.8L142.84 325.04H143.832V336ZM159.804 336H158.204V333.152C157.692 333.877 156.881 334.24 155.772 334.24C153.382 334.24 152.188 332.907 152.188 330.24V328H153.788V330.144C153.788 331.019 153.958 331.664 154.3 332.08C154.641 332.496 155.212 332.704 156.012 332.704C157.473 332.704 158.204 331.92 158.204 330.352V328H159.804V336ZM166.226 327.888C167.08 327.888 167.81 328.085 168.418 328.48C169.026 328.875 169.48 329.429 169.778 330.144C169.928 330.475 170.013 330.864 170.034 331.312C170.056 331.749 170.018 332.117 169.922 332.416H163.826C163.826 333.099 164.056 333.643 164.514 334.048C164.984 334.443 165.586 334.64 166.322 334.64C167.25 334.64 168.109 334.405 168.898 333.936L169.762 334.864C168.685 335.685 167.538 336.096 166.322 336.096C165.096 336.096 164.098 335.712 163.33 334.944C162.562 334.176 162.178 333.195 162.178 332C162.178 330.837 162.546 329.861 163.282 329.072C164.029 328.283 165.01 327.888 166.226 327.888ZM166.242 329.344C165.581 329.344 165.032 329.547 164.594 329.952C164.157 330.347 163.922 330.827 163.89 331.392H168.482C168.482 331.115 168.418 330.853 168.29 330.608C168.12 330.224 167.853 329.92 167.49 329.696C167.138 329.461 166.722 329.344 166.242 329.344ZM175.564 330.384L173.068 336H171.372L175.068 328H176.06L179.756 336H178.076L175.564 330.384ZM181.545 334.592C181.737 334.421 181.971 334.336 182.249 334.336C182.526 334.336 182.755 334.421 182.937 334.592C183.129 334.763 183.225 334.976 183.225 335.232C183.225 335.477 183.129 335.685 182.937 335.856C182.755 336.027 182.526 336.112 182.249 336.112C181.971 336.112 181.737 336.027 181.545 335.856C181.353 335.685 181.257 335.477 181.257 335.232C181.257 334.976 181.353 334.763 181.545 334.592Z" fill="#828282"/>
<path d="M571.293 115.707C571.683 116.098 572.317 116.098 572.707 115.707L579.071 109.343C579.462 108.953 579.462 108.319 579.071 107.929C578.681 107.538 578.047 107.538 577.657 107.929L572 113.586L566.343 107.929C565.953 107.538 565.319 107.538 564.929 107.929C564.538 108.319 564.538 108.953 564.929 109.343L571.293 115.707ZM571 86L571 115L573 115L573 86L571 86Z" fill="#E0E0E0"/>
<line x1="792" y1="157" x2="984" y2="157" stroke="#E0E0E0" stroke-width="2"/>
<line y1="-1" x2="192" y2="-1" transform="matrix(1 0 0 -1 160 157)" stroke="#E0E0E0" stroke-width="2"/>
<path d="M982.293 271.707C982.683 272.098 983.317 272.098 983.707 271.707L990.071 265.343C990.462 264.953 990.462 264.319 990.071 263.929C989.681 263.538 989.047 263.538 988.657 263.929L983 269.586L977.343 263.929C976.953 263.538 976.319 263.538 975.929 263.929C975.538 264.319 975.538 264.953 975.929 265.343L982.293 271.707ZM982 157L982 271L984 271L984 157L982 157Z" fill="#E0E0E0"/>
<path d="M571.293 271.707C571.683 272.098 572.317 272.098 572.707 271.707L579.071 265.343C579.462 264.953 579.462 264.319 579.071 263.929C578.681 263.538 578.047 263.538 577.657 263.929L572 269.586L566.343 263.929C565.953 263.538 565.319 263.538 564.929 263.929C564.538 264.319 564.538 264.953 564.929 265.343L571.293 271.707ZM571 192L571 271L573 271L573 192L571 192Z" fill="#E0E0E0"/>
<path d="M160.293 271.707C160.683 272.098 161.317 272.098 161.707 271.707L168.071 265.343C168.462 264.953 168.462 264.319 168.071 263.929C167.681 263.538 167.047 263.538 166.657 263.929L161 269.586L155.343 263.929C154.953 263.538 154.319 263.538 153.929 263.929C153.538 264.319 153.538 264.953 153.929 265.343L160.293 271.707ZM160 157L160 271L162 271L162 157L160 157Z" fill="#E0E0E0"/>
</svg>
