<svg width="12" height="16" viewBox="0 0 12 16" fill="none" xmlns="http://www.w3.org/2000/svg">
<path d="M5.86432 0.492188C2.98938 0.492188 0.650391 2.83118 0.650391 5.70611C0.650391 9.31961 5.86945 15.4922 5.86945 15.4922C5.86945 15.4922 11.0782 9.14191 11.0782 5.70611C11.0782 2.83118 8.73935 0.492188 5.86432 0.492188ZM7.43747 7.23276C7.00369 7.66644 6.43405 7.88333 5.86432 7.88333C5.29468 7.88333 4.72485 7.66644 4.29126 7.23276C3.4238 6.36539 3.4238 4.95401 4.29126 4.08655C4.7113 3.66632 5.27005 3.43488 5.86432 3.43488C6.45859 3.43488 7.01724 3.66641 7.43747 4.08655C8.30493 4.95401 8.30493 6.36539 7.43747 7.23276Z" fill="#828282"/>
</svg>
