<svg width="40" height="40" viewBox="0 0 40 40" fill="none" xmlns="http://www.w3.org/2000/svg">
<circle cx="20" cy="20" r="19.5" stroke="#878787"/>
<g clip-path="url(#clip0)">
<path d="M25.9903 13H14.0097C13.452 13 13 13.452 13 14.0097V25.9903C13 26.548 13.452 27 14.0097 27H25.9903C26.548 27 27 26.548 27 25.9903V14.0097C27 13.452 26.548 13 25.9903 13V13ZM17.9659 23.582H16.2611V18.453H17.9659V23.582ZM17.1135 17.7527H17.1024C16.5303 17.7527 16.1603 17.3589 16.1603 16.8667C16.1603 16.3634 16.5417 15.9805 17.1248 15.9805C17.708 15.9805 18.0669 16.3634 18.078 16.8667C18.078 17.3589 17.708 17.7527 17.1135 17.7527ZM24.1131 23.582H22.4085V20.8382C22.4085 20.1486 22.1617 19.6783 21.5448 19.6783C21.0739 19.6783 20.7934 19.9955 20.6701 20.3017C20.6251 20.4113 20.6141 20.5645 20.6141 20.7178V23.582H18.9093C18.9093 23.582 18.9317 18.9342 18.9093 18.453H20.6141V19.1793C20.8406 18.8298 21.246 18.3327 22.1504 18.3327C23.2721 18.3327 24.1131 19.0657 24.1131 20.6411V23.582Z" fill="#878787"/>
</g>
<defs>
<clipPath id="clip0">
<rect width="14" height="14" fill="white" transform="translate(13 13)"/>
</clipPath>
</defs>
</svg>
