<svg width="16" height="16" viewBox="0 0 16 16" fill="none" xmlns="http://www.w3.org/2000/svg">
<path d="M15.9654 12.3971C15.9201 12.2607 15.6322 12.0598 15.1018 11.7949C14.9581 11.7114 14.7534 11.5979 14.4885 11.454C14.2233 11.31 13.9826 11.1774 13.7669 11.0561C13.5507 10.9349 13.3481 10.8175 13.1589 10.7041C13.1286 10.6813 13.0339 10.6151 12.8749 10.505C12.7156 10.3953 12.5813 10.3138 12.4713 10.2607C12.3615 10.2079 12.2534 10.1813 12.1474 10.1813C11.9959 10.1813 11.8067 10.2893 11.5795 10.505C11.3523 10.7211 11.1439 10.9558 10.9546 11.2098C10.7653 11.4637 10.5645 11.6983 10.3526 11.9142C10.1404 12.1302 9.96598 12.2382 9.82978 12.2382C9.76141 12.2382 9.67615 12.2191 9.57398 12.1815C9.47185 12.1436 9.39416 12.1112 9.34083 12.085C9.28797 12.0583 9.19726 12.0055 9.06839 11.9257C8.93927 11.8461 8.86747 11.8025 8.85235 11.7949C7.81453 11.219 6.92446 10.5599 6.18197 9.81776C5.43971 9.07515 4.78053 8.18516 4.2048 7.14722C4.19724 7.13206 4.15358 7.06006 4.0741 6.93134C3.99449 6.8025 3.94144 6.71172 3.91493 6.65854C3.88842 6.60557 3.85622 6.52787 3.81841 6.42562C3.7806 6.32337 3.76162 6.2382 3.76162 6.16994C3.76162 6.03366 3.8696 5.85933 4.08552 5.64719C4.3014 5.43517 4.53631 5.23433 4.79 5.04508C5.04389 4.85583 5.27856 4.64743 5.49452 4.42024C5.7104 4.19294 5.81834 4.00364 5.81834 3.85216C5.81834 3.74617 5.79184 3.63811 5.73886 3.5283C5.68584 3.41825 5.60441 3.28396 5.49452 3.12479C5.38459 2.96571 5.31832 2.8711 5.29555 2.84065C5.18204 2.6514 5.06475 2.44877 4.94339 2.23285C4.82204 2.01697 4.68958 1.77633 4.54558 1.51121C4.4017 1.24622 4.28815 1.0416 4.20472 0.897676C3.93973 0.367484 3.73901 0.079483 3.60261 0.0341892C3.54956 0.0114627 3.46995 0 3.364 0C3.15935 0 2.89236 0.0378111 2.56285 0.113672C2.23321 0.189414 1.97383 0.268857 1.78441 0.35232C1.40563 0.511326 1.00415 0.973418 0.579871 1.73844C0.193521 2.4504 0.000366211 3.15508 0.000366211 3.85196C0.000366211 4.05634 0.01362 4.25519 0.0401276 4.44854C0.0666352 4.6417 0.113999 4.85953 0.182258 5.102C0.250397 5.34439 0.305363 5.52445 0.346915 5.6417C0.388507 5.75903 0.466159 5.96922 0.579832 6.27235C0.693344 6.5754 0.761604 6.76091 0.78433 6.82909C1.04945 7.57154 1.36384 8.23435 1.72742 8.81772C2.32563 9.78735 3.14199 10.7894 4.17603 11.8235C5.2101 12.8576 6.21198 13.6739 7.18169 14.2724C7.76498 14.6359 8.42803 14.9502 9.17036 15.2156C9.23858 15.2382 9.42409 15.3063 9.72702 15.4202C10.0301 15.5338 10.2403 15.6114 10.3577 15.6531C10.475 15.6948 10.6551 15.7498 10.8973 15.8181C11.14 15.8863 11.3577 15.9337 11.5508 15.9604C11.7441 15.9865 11.943 16 12.1474 16C12.8442 16 13.549 15.8068 14.261 15.4205C15.026 14.9963 15.488 14.5948 15.647 14.2157C15.7307 14.0265 15.81 13.767 15.8857 13.4374C15.9617 13.1079 15.9994 12.841 15.9994 12.6364C15.9996 12.53 15.9882 12.4506 15.9654 12.3971Z" fill="#828282"/>
</svg>
