<svg width="44" height="44" viewBox="0 0 44 44" fill="none" xmlns="http://www.w3.org/2000/svg">
<circle cx="22" cy="22" r="21.5" stroke="#C76A1D"/>
<path d="M11.56 17.56C12.6587 16.4613 13.9813 15.912 15.528 15.912C17.0747 15.912 18.392 16.4613 19.48 17.56C20.5787 18.648 21.128 19.9653 21.128 21.512C21.128 23.0587 20.584 24.3813 19.496 25.48C18.408 26.568 17.0853 27.112 15.528 27.112C13.9707 27.112 12.648 26.568 11.56 25.48C10.472 24.3813 9.928 23.0587 9.928 21.512C9.928 19.9653 10.472 18.648 11.56 17.56ZM17.944 18.984C17.2933 18.3227 16.488 17.992 15.528 17.992C14.568 17.992 13.7627 18.3227 13.112 18.984C12.472 19.6453 12.152 20.488 12.152 21.512C12.152 22.5467 12.472 23.3893 13.112 24.04C13.7627 24.6907 14.568 25.016 15.528 25.016C16.4987 25.016 17.304 24.6907 17.944 24.04C18.5947 23.3893 18.92 22.5467 18.92 21.512C18.92 20.488 18.5947 19.6453 17.944 18.984ZM31.3905 27H22.9105V25.672L27.5185 21.816C28.0305 21.4 28.4092 21.032 28.6545 20.712C28.9105 20.392 29.0385 20.04 29.0385 19.656C29.0385 19.144 28.8625 18.744 28.5105 18.456C28.1692 18.1573 27.7318 18.0027 27.1985 17.992H27.1025C26.3452 17.992 25.4972 18.4027 24.5585 19.224L23.1185 17.912C24.4412 16.5787 25.8278 15.912 27.2785 15.912H27.4065C28.6118 15.9227 29.5452 16.2533 30.2065 16.904C30.8678 17.544 31.1985 18.312 31.1985 19.208C31.1985 19.976 30.9585 20.696 30.4785 21.368C29.9985 22.0293 29.2465 22.76 28.2225 23.56L26.6545 24.92H31.3905V27Z" fill="#C76A1D"/>
</svg>
