<svg width="44" height="44" viewBox="0 0 44 44" fill="none" xmlns="http://www.w3.org/2000/svg">
<circle cx="22" cy="22" r="21.5" stroke="#C76A1D"/>
<path d="M11.56 17.56C12.6587 16.4613 13.9813 15.912 15.528 15.912C17.0747 15.912 18.392 16.4613 19.48 17.56C20.5787 18.648 21.128 19.9653 21.128 21.512C21.128 23.0587 20.584 24.3813 19.496 25.48C18.408 26.568 17.0853 27.112 15.528 27.112C13.9707 27.112 12.648 26.568 11.56 25.48C10.472 24.3813 9.928 23.0587 9.928 21.512C9.928 19.9653 10.472 18.648 11.56 17.56ZM17.944 18.984C17.2933 18.3227 16.488 17.992 15.528 17.992C14.568 17.992 13.7627 18.3227 13.112 18.984C12.472 19.6453 12.152 20.488 12.152 21.512C12.152 22.5467 12.472 23.3893 13.112 24.04C13.7627 24.6907 14.568 25.016 15.528 25.016C16.4987 25.016 17.304 24.6907 17.944 24.04C18.5947 23.3893 18.92 22.5467 18.92 21.512C18.92 20.488 18.5947 19.6453 17.944 18.984ZM31.1505 17.336L27.9985 20.376C28.2972 20.3547 28.5478 20.3493 28.7505 20.36C29.6678 20.488 30.3772 20.8453 30.8785 21.432C31.3798 22.008 31.6305 22.7067 31.6305 23.528C31.6305 24.552 31.2838 25.4053 30.5905 26.088C29.9078 26.76 28.8892 27.1013 27.5345 27.112H27.4225C25.6518 27.1013 24.1478 26.4187 22.9105 25.064L24.3505 23.736C25.3532 24.6 26.3665 25.032 27.3905 25.032H27.5025C28.0998 25.0213 28.5905 24.8453 28.9745 24.504C29.3585 24.152 29.5505 23.72 29.5505 23.208C29.5505 22.0773 28.8358 21.512 27.4065 21.512C27.0012 21.512 26.4732 21.6507 25.8225 21.928L24.7825 21.144L27.9345 18.104H23.9185V16.04H31.1505V17.336Z" fill="#C76A1D"/>
</svg>
