<svg width="44" height="44" viewBox="0 0 44 44" fill="none" xmlns="http://www.w3.org/2000/svg">
<circle cx="22" cy="22" r="21.5" stroke="#C76A1D"/>
<path d="M12.56 16.56C13.6587 15.4613 14.9813 14.912 16.528 14.912C18.0747 14.912 19.392 15.4613 20.48 16.56C21.5787 17.648 22.128 18.9653 22.128 20.512C22.128 22.0587 21.584 23.3813 20.496 24.48C19.408 25.568 18.0853 26.112 16.528 26.112C14.9707 26.112 13.648 25.568 12.56 24.48C11.472 23.3813 10.928 22.0587 10.928 20.512C10.928 18.9653 11.472 17.648 12.56 16.56ZM18.944 17.984C18.2933 17.3227 17.488 16.992 16.528 16.992C15.568 16.992 14.7627 17.3227 14.112 17.984C13.472 18.6453 13.152 19.488 13.152 20.512C13.152 21.5467 13.472 22.3893 14.112 23.04C14.7627 23.6907 15.568 24.016 16.528 24.016C17.4987 24.016 18.304 23.6907 18.944 23.04C19.5947 22.3893 19.92 21.5467 19.92 20.512C19.92 19.488 19.5947 18.6453 18.944 17.984ZM28.5345 26H26.3265V18.928L25.1745 20.304L23.7505 19.216L27.2225 15.04H28.5345V26Z" fill="#C76A1D"/>
</svg>
