<svg width="54" height="54" viewBox="0 0 54 54" fill="none" xmlns="http://www.w3.org/2000/svg">
<path d="M51.8012 21.1621L40.5 16.319V6.75C40.5 6.52624 40.411 6.31167 40.2528 6.15347L36.034 1.93472C35.8758 1.77647 35.6613 1.68755 35.4375 1.6875H4.21875C3.54742 1.6875 2.90359 1.95418 2.42889 2.42889C1.95418 2.90359 1.6875 3.54742 1.6875 4.21875V49.7812C1.6875 50.4526 1.95418 51.0964 2.42889 51.5711C2.90359 52.0458 3.54742 52.3125 4.21875 52.3125H37.9688C38.6401 52.3125 39.2839 52.0458 39.7586 51.5711C40.2333 51.0964 40.5 50.4526 40.5 49.7812V47.6837L44.8926 44.55C47.186 42.9084 49.0553 40.7441 50.3456 38.2362C51.636 35.7283 52.3102 32.949 52.3125 30.1286V21.9375C52.3125 21.7724 52.264 21.6109 52.1731 21.4731C52.0823 21.3353 51.9529 21.2271 51.8012 21.1621ZM38.8125 7.09931V7.59375H34.5938V3.375H35.0882L38.8125 7.09931ZM37.9688 50.625H4.21875C3.99497 50.625 3.78036 50.5361 3.62213 50.3779C3.46389 50.2196 3.375 50.005 3.375 49.7812V4.21875C3.375 3.99497 3.46389 3.78036 3.62213 3.62213C3.78036 3.46389 3.99497 3.375 4.21875 3.375H32.9062V8.4375C32.9062 8.66128 32.9951 8.87589 33.1534 9.03412C33.3116 9.19236 33.5262 9.28125 33.75 9.28125H38.8125V16.319L27.5113 21.1621C27.3596 21.2271 27.2302 21.3353 27.1394 21.4731C27.0485 21.6109 27 21.7724 27 21.9375V30.1286C27.0023 32.949 27.6765 35.7283 28.9669 38.2362C30.2572 40.7441 32.1265 42.9084 34.4199 44.55L38.8125 47.6837V49.7812C38.8125 50.005 38.7236 50.2196 38.5654 50.3779C38.4071 50.5361 38.1925 50.625 37.9688 50.625ZM50.625 30.1286C50.6225 32.6799 50.0123 35.1939 48.845 37.4624C47.6776 39.731 45.9867 41.6888 43.9121 43.1738L39.6562 46.213L35.4004 43.1755C33.3256 41.6903 31.6345 39.7322 30.4672 37.4634C29.2998 35.1945 28.6897 32.6802 28.6875 30.1286V22.4935L39.6562 17.793L50.625 22.4935V30.1286Z" fill="white"/>
<path d="M39.3425 20.3099L30.905 23.6849C30.7485 23.7476 30.6143 23.8558 30.5199 23.9955C30.4254 24.1352 30.375 24.3001 30.3752 24.4687V29.7928C30.3702 31.9448 30.8518 34.07 31.7839 36.0097C32.7161 37.9493 34.0748 39.653 35.7583 40.9935L39.1291 43.6935C39.2787 43.8133 39.4647 43.8786 39.6564 43.8786C39.8481 43.8786 40.0341 43.8133 40.1838 43.6935L43.5545 40.9935C45.238 39.653 46.5967 37.9493 47.5289 36.0097C48.4611 34.07 48.9427 31.9448 48.9377 29.7928V24.4687C48.9378 24.3001 48.8874 24.1352 48.7929 23.9955C48.6985 23.8558 48.5643 23.7476 48.4078 23.6849L39.9703 20.3099C39.7687 20.2297 39.5441 20.2297 39.3425 20.3099ZM47.2502 25.0399V29.7928C47.2547 31.6914 46.8299 33.5665 46.0074 35.2778C45.185 36.9891 43.9861 38.4922 42.5007 39.6748L39.6564 41.9512L36.8121 39.6731C35.3269 38.4907 34.1282 36.9879 33.3058 35.2769C32.4833 33.5659 32.0583 31.6911 32.0627 29.7928V25.0399L39.6564 22.0024L47.2502 25.0399Z" fill="white"/>
<path d="M5.90625 16.875H29.5312C29.755 16.875 29.9696 16.7861 30.1279 16.6279C30.2861 16.4696 30.375 16.255 30.375 16.0312V5.90625C30.375 5.68247 30.2861 5.46786 30.1279 5.30963C29.9696 5.1514 29.755 5.0625 29.5312 5.0625H5.90625C5.68247 5.0625 5.46786 5.1514 5.30963 5.30963C5.1514 5.46786 5.0625 5.68247 5.0625 5.90625V16.0312C5.0625 16.255 5.1514 16.4696 5.30963 16.6279C5.46786 16.7861 5.68247 16.875 5.90625 16.875ZM6.75 6.75H28.6875V15.1875H6.75V6.75Z" fill="white"/>
<path d="M24.4688 37.125H5.90625C5.68247 37.125 5.46786 37.2139 5.30963 37.3721C5.1514 37.5304 5.0625 37.745 5.0625 37.9688V48.0938C5.0625 48.3175 5.1514 48.5321 5.30963 48.6904C5.46786 48.8486 5.68247 48.9375 5.90625 48.9375H24.4688C24.6925 48.9375 24.9071 48.8486 25.0654 48.6904C25.2236 48.5321 25.3125 48.3175 25.3125 48.0938V37.9688C25.3125 37.745 25.2236 37.5304 25.0654 37.3721C24.9071 37.2139 24.6925 37.125 24.4688 37.125ZM23.625 47.25H6.75V38.8125H23.625V47.25Z" fill="white"/>
<path d="M5.0625 21.0938H25.3125V22.7812H5.0625V21.0938Z" fill="white"/>
<path d="M5.0625 26.1562H25.3125V27.8438H5.0625V26.1562Z" fill="white"/>
<path d="M5.0625 31.2188H25.3125V32.9062H5.0625V31.2188Z" fill="white"/>
</svg>
