<svg width="54" height="42" viewBox="0 0 54 42" fill="none" xmlns="http://www.w3.org/2000/svg">
<path d="M4.09961 9.73694H12.442C12.8788 9.73694 13.233 9.38288 13.233 8.94592C13.233 8.50897 12.8788 8.15491 12.442 8.15491H4.09961C3.66276 8.15491 3.30859 8.50897 3.30859 8.94592C3.30859 9.38288 3.66265 9.73694 4.09961 9.73694Z" fill="white"/>
<path d="M12.1561 13.5452H8.8606C8.42374 13.5452 8.06958 13.8992 8.06958 14.3362C8.06958 14.7731 8.42374 15.1272 8.8606 15.1272H12.1561C12.5929 15.1272 12.9471 14.7731 12.9471 14.3362C12.9471 13.8992 12.5929 13.5452 12.1561 13.5452Z" fill="white"/>
<path d="M0.791016 19.0306H8.86064C9.29749 19.0306 9.65166 18.6766 9.65166 18.2396C9.65166 17.8027 9.29749 17.4486 8.86064 17.4486H0.791016C0.354164 17.4486 0 17.8027 0 18.2396C0 18.6766 0.354164 19.0306 0.791016 19.0306Z" fill="white"/>
<path d="M13.233 33.054C13.233 32.617 12.8788 32.2629 12.442 32.2629H4.09961C3.66276 32.2629 3.30859 32.617 3.30859 33.054C3.30859 33.4909 3.66276 33.845 4.09961 33.845H12.442C12.8788 33.845 13.233 33.4909 13.233 33.054Z" fill="white"/>
<path d="M12.1561 26.8728H8.8606C8.42374 26.8728 8.06958 27.2269 8.06958 27.6638C8.06958 28.1008 8.42374 28.4548 8.8606 28.4548H12.1561C12.5929 28.4548 12.9471 28.1008 12.9471 27.6638C12.9471 27.2269 12.5929 26.8728 12.1561 26.8728Z" fill="white"/>
<path d="M9.65166 23.7604C9.65166 23.3234 9.29749 22.9694 8.86064 22.9694H0.791016C0.354164 22.9694 0 23.3234 0 23.7604C0 24.1973 0.354164 24.5514 0.791016 24.5514H8.86064C9.29749 24.5514 9.65166 24.1973 9.65166 23.7604Z" fill="white"/>
<path d="M33.7002 11.4899C34.1372 11.4899 34.4912 11.1358 34.4912 10.6989V9.49146C34.4912 9.0545 34.1372 8.70044 33.7002 8.70044C33.2632 8.70044 32.9092 9.0545 32.9092 9.49146V10.6989C32.9092 11.1358 33.2632 11.4899 33.7002 11.4899Z" fill="white"/>
<path d="M42.3973 12.3028C42.0882 11.994 41.5875 11.994 41.2786 12.3028L40.4248 13.1565C40.1159 13.4656 40.1159 13.9663 40.4248 14.2752C40.7339 14.5842 41.2346 14.5841 41.5435 14.2752L42.3973 13.4215C42.7061 13.1126 42.7061 12.6118 42.3973 12.3028Z" fill="white"/>
<path d="M44.0015 20.209C43.5645 20.209 43.2104 20.563 43.2104 21C43.2104 21.437 43.5645 21.791 44.0015 21.791H45.2088C45.6457 21.791 45.9998 21.437 45.9998 21C45.9998 20.563 45.6457 20.209 45.2088 20.209H44.0015Z" fill="white"/>
<path d="M41.5435 27.7247C41.2345 27.4158 40.7337 27.4158 40.4248 27.7247C40.1159 28.0337 40.1159 28.5344 40.4248 28.8434L41.2786 29.6971C41.5877 30.006 42.0884 30.0059 42.3973 29.6971C42.7062 29.3881 42.7062 28.8873 42.3973 28.5784L41.5435 27.7247Z" fill="white"/>
<path d="M32.9092 31.3011V32.5084C32.9092 32.9454 33.2632 33.2995 33.7002 33.2995C34.1372 33.2995 34.4912 32.9454 34.4912 32.5084V31.3011C34.4912 30.8642 34.1372 30.5101 33.7002 30.5101C33.2632 30.5101 32.9092 30.8643 32.9092 31.3011Z" fill="white"/>
<path d="M25.8569 27.7247L25.0032 28.5784C24.6943 28.8874 24.6943 29.3882 25.0032 29.6971C25.3122 30.006 25.813 30.0059 26.1218 29.6971L26.9755 28.8434C27.2845 28.5343 27.2845 28.0336 26.9755 27.7247C26.6667 27.4158 26.1659 27.4158 25.8569 27.7247Z" fill="white"/>
<path d="M22.1919 20.209C21.755 20.209 21.4009 20.563 21.4009 21C21.4009 21.437 21.755 21.791 22.1919 21.791H23.3993C23.8362 21.791 24.1903 21.437 24.1903 21C24.1903 20.563 23.8362 20.209 23.3993 20.209H22.1919Z" fill="white"/>
<path d="M26.9755 13.1565L26.1218 12.3028C25.8129 11.994 25.312 11.994 25.0032 12.3028C24.6943 12.6118 24.6943 13.1126 25.0032 13.4215L25.8569 14.2752C26.166 14.5842 26.6667 14.5841 26.9755 14.2752C27.2845 13.9663 27.2845 13.4656 26.9755 13.1565Z" fill="white"/>
<path d="M37.9538 21C37.9538 20.563 37.5997 20.209 37.1627 20.209H34.4912V14.3361C34.4912 13.8991 34.1372 13.545 33.7002 13.545C33.2632 13.545 32.9092 13.8991 32.9092 14.3361V21C32.9092 21.4369 33.2632 21.791 33.7002 21.791H37.1627C37.5996 21.791 37.9538 21.4369 37.9538 21Z" fill="white"/>
<path d="M48.6992 20.8695C49.1353 20.843 49.4673 20.4681 49.4408 20.0321C48.9376 11.7314 42.0235 5.22913 33.7002 5.22913C25.004 5.22913 17.9292 12.304 17.9292 21.0002C17.9292 29.6963 25.004 36.7711 33.7002 36.7711C41.491 36.7711 48.1388 31.063 49.2953 23.36C49.3602 22.928 49.0625 22.5253 48.6304 22.4604C48.1995 22.3957 47.7956 22.6931 47.7308 23.1253C46.6919 30.0455 40.7165 35.1892 33.7002 35.1892C25.8764 35.1892 19.5112 28.8241 19.5112 21.0003C19.5112 13.1765 25.8764 6.81126 33.7002 6.81126C41.1885 6.81126 47.409 12.6607 47.8617 20.1281C47.888 20.5639 48.2626 20.8948 48.6992 20.8695Z" fill="white"/>
<path d="M33.7004 0.700317C30.918 0.700317 28.192 1.27755 25.6829 2.35702H11.7263C11.2895 2.35702 10.9353 2.71108 10.9353 3.14804C10.9353 3.58499 11.2895 3.93905 11.7263 3.93905H22.707C21.2223 4.8946 19.8555 6.04716 18.6504 7.37776C18.3572 7.70144 18.3819 8.20168 18.7057 8.49499C19.0296 8.78829 19.5296 8.76351 19.823 8.43972C23.367 4.52662 28.4252 2.28235 33.7004 2.28235C44.0214 2.28235 52.4182 10.679 52.4182 21C52.4182 31.3209 44.0215 39.7176 33.7004 39.7176C23.3795 39.7176 14.9828 31.321 14.9828 21C14.9828 17.3858 16.0152 13.8779 17.9683 10.8554C18.2054 10.4885 18.1001 9.99887 17.7332 9.76177C17.3663 9.52478 16.8767 9.62983 16.6395 9.99686C14.5206 13.2757 13.4007 17.0805 13.4007 21C13.4007 28.1472 17.1139 34.4428 22.712 38.0609H11.7264C11.2896 38.0609 10.9354 38.415 10.9354 38.852C10.9354 39.2889 11.2896 39.643 11.7264 39.643H25.672C28.1358 40.7081 30.8502 41.2997 33.7005 41.2997C44.8937 41.2997 54.0002 32.1933 54.0002 21C54.0002 9.8067 44.8937 0.700317 33.7004 0.700317Z" fill="white"/>
</svg>
