<svg width="54" height="54" viewBox="0 0 54 54" fill="none" xmlns="http://www.w3.org/2000/svg">
<g clip-path="url(#clip0)">
<path d="M3.44308 19.7859C3.44308 20.2224 3.09028 20.5751 2.65385 20.5751C2.21732 20.5751 1.86157 20.2223 1.86157 19.7859V13.4866C1.86157 12.3416 2.32796 11.3012 3.08142 10.5478C3.83479 9.79446 4.87524 9.32808 6.02021 9.32808C7.16233 9.32808 8.20267 9.79446 8.95603 10.5478C9.7094 11.3013 10.1758 12.3416 10.1758 13.4866V22.3361C10.684 22.1268 11.2252 22.0222 11.7633 22.0222C12.8306 22.0222 13.8949 22.4257 14.7051 23.236L20.9894 29.5203C21.7667 30.2977 22.2151 31.2364 22.4663 32.2022C22.6934 33.0752 22.7622 33.9721 22.7622 34.8719V42.8574H23.6172C24.7683 42.8574 25.7101 43.7962 25.7101 44.9503V51.9102C25.7101 53.0612 24.7683 54.0001 23.6172 54.0001H8.96204C7.80801 54.0001 6.86933 53.0613 6.86933 51.9102V44.9503C6.86933 43.7963 7.80801 42.8574 8.96204 42.8574H9.81413V40.4627C9.81413 40.2085 9.77827 39.9813 9.70349 39.7809C9.63177 39.5927 9.51818 39.4192 9.35966 39.2578L3.07541 32.9734C2.68075 32.5818 2.38174 32.1215 2.17851 31.6252C1.9662 31.1138 1.86157 30.5728 1.86157 30.0345V23.3677C1.86157 22.9311 2.21732 22.5783 2.65385 22.5783C3.09039 22.5783 3.44308 22.9312 3.44308 23.3677V30.0345C3.44308 30.3753 3.50889 30.7132 3.63745 31.0271C3.76001 31.3261 3.94532 31.6072 4.19349 31.8554L10.4777 38.1397C10.7976 38.4595 11.0279 38.8214 11.1804 39.225C11.3269 39.6136 11.3955 40.0292 11.3955 40.4627V42.8574H21.1867V34.8719C21.1867 34.1514 21.1359 33.3502 20.9385 32.5968C20.7532 31.8853 20.4303 31.1975 19.8712 30.6385L13.584 24.3542C13.0847 23.855 12.424 23.6038 11.7633 23.6038C11.0756 23.6038 10.4329 23.8699 9.94259 24.3542C9.45827 24.8416 9.19524 25.4874 9.19524 26.175C9.19524 26.8357 9.4434 27.4964 9.94259 27.9957L14.6334 32.6836C14.9414 32.9915 14.9414 33.4938 14.6334 33.8018C14.3225 34.1098 13.8232 34.1098 13.5123 33.8018L8.82451 29.1139C8.01736 28.3037 7.61078 27.2394 7.61078 26.1751C7.61078 25.2184 7.93963 24.2588 8.59438 23.4874V13.4868C8.59438 12.7782 8.30434 12.1356 7.83806 11.6661C7.36862 11.1996 6.7259 10.9097 6.02031 10.9097C5.31177 10.9097 4.66904 11.1996 4.1996 11.6661C3.73322 12.1354 3.44318 12.7782 3.44318 13.4868V19.7859H3.44308ZM41.5463 45.7902C42.2758 45.7902 42.9365 46.0863 43.4119 46.5615C43.8902 47.0399 44.1863 47.7006 44.1863 48.4301C44.1863 49.1566 43.8902 49.8173 43.4119 50.2957C42.9366 50.774 42.2759 51.0701 41.5463 51.0701C40.8168 51.0701 40.1592 50.774 39.6808 50.2957C39.2024 49.8173 38.9064 49.1565 38.9064 48.4301C38.9064 47.7006 39.2024 47.0399 39.6808 46.5615C40.1592 46.0863 40.8169 45.7902 41.5463 45.7902ZM42.2938 47.6827C42.1024 47.4914 41.8393 47.3719 41.5463 47.3719C41.2533 47.3719 40.9903 47.4914 40.799 47.6827C40.6076 47.8741 40.488 48.1372 40.488 48.4302C40.488 48.7201 40.6076 48.9862 40.799 49.1777C40.9903 49.369 41.2534 49.4856 41.5463 49.4856C41.8393 49.4856 42.1024 49.3691 42.2938 49.1777C42.4851 48.9863 42.6047 48.7201 42.6047 48.4302C42.6048 48.1371 42.4851 47.8741 42.2938 47.6827ZM12.454 45.7902C13.1805 45.7902 13.8411 46.0863 14.3195 46.5615C14.7979 47.0399 15.0908 47.7006 15.0908 48.4301C15.0908 49.1566 14.7978 49.8173 14.3195 50.2957C13.8411 50.774 13.1805 51.0701 12.454 51.0701C11.7245 51.0701 11.0638 50.774 10.5854 50.2957C10.1101 49.8173 9.81413 49.1565 9.81413 48.4301C9.81413 47.7006 10.1102 47.0399 10.5854 46.5615C11.0637 46.0863 11.7245 45.7902 12.454 45.7902ZM13.2014 47.6827C13.01 47.4914 12.7439 47.3719 12.454 47.3719C12.161 47.3719 11.8949 47.4914 11.7036 47.6827C11.5123 47.8741 11.3956 48.1372 11.3956 48.4302C11.3956 48.7201 11.5123 48.9862 11.7036 49.1777C11.8949 49.369 12.161 49.4856 12.454 49.4856C12.744 49.4856 13.01 49.3691 13.2014 49.1777C13.3927 48.9863 13.5092 48.7201 13.5092 48.4302C13.5092 48.1371 13.3927 47.8741 13.2014 47.6827ZM18.8996 7.4115C19.2075 7.10353 19.7068 7.10353 20.0178 7.4115C20.3257 7.71936 20.3257 8.22171 20.0178 8.52968L15.6081 12.9364C15.5901 12.9573 15.5901 12.9991 15.6081 13.0201L18.6216 16.0308C18.6395 16.0517 18.6844 16.0517 18.7023 16.0308L19.9879 14.7482C20.7084 14.0248 21.6591 13.666 22.6098 13.666C23.5575 13.666 24.5082 14.0247 25.2318 14.7482C25.9523 15.4688 26.3141 16.4195 26.3141 17.3702C26.3141 18.3209 25.9523 19.2686 25.2318 19.992L23.9462 21.2746C23.9283 21.2955 23.9283 21.3374 23.9462 21.3584L26.9598 24.3691C26.9777 24.387 27.0225 24.387 27.0405 24.3691C28.054 23.3736 29.0586 22.3688 30.0512 21.3584C30.072 21.3374 30.072 21.2955 30.0512 21.2746L28.7685 19.992C28.048 19.2686 27.6862 18.3208 27.6862 17.3702H27.6892C27.6892 16.4194 28.048 15.4688 28.7684 14.7482C29.4889 14.0278 30.4397 13.669 31.3903 13.669V13.6661C32.3411 13.6661 33.2918 14.0248 34.0122 14.7483C34.4397 15.1759 34.8583 15.6123 35.2947 16.0309C35.3157 16.0489 35.3576 16.0518 35.3785 16.0309L38.3891 13.0202C38.41 12.9992 38.41 12.9574 38.3891 12.9365L35.3128 9.86006C35.268 9.81524 35.229 9.76746 35.1992 9.71663C35.0048 9.42954 34.9093 9.09784 34.9093 8.76593C34.9093 8.41609 35.0169 8.06625 35.2321 7.76735C35.259 7.73445 35.2859 7.70154 35.3129 7.67169L36.6612 6.32338C37.0738 5.91079 37.2801 5.36667 37.2801 4.81961C37.2801 4.27528 37.0738 3.72811 36.6612 3.31562C36.2486 2.90303 35.7045 2.69673 35.1574 2.69673C34.6133 2.69673 34.0661 2.90303 33.6537 3.31562L32.3053 4.66404C32.0453 4.92708 31.5699 5.07062 31.2111 5.07062C30.8285 5.07062 30.374 4.92107 30.099 4.64611L27.0405 1.58762C27.0226 1.56959 26.9778 1.56959 26.9598 1.58762L22.55 5.99748C22.2421 6.30545 21.7398 6.30545 21.4318 5.99748C21.124 5.68656 21.124 5.18727 21.4318 4.87635L25.8925 0.415547C26.1616 0.146496 26.628 0 26.9987 0C27.3574 0 27.8328 0.143543 28.0929 0.403629L31.1723 3.48289C31.1902 3.50082 31.235 3.50082 31.253 3.48289L32.5356 2.19744C33.2591 1.47698 34.2098 1.11512 35.1575 1.11512C36.1082 1.11512 37.0589 1.47698 37.7795 2.19744C38.503 2.92096 38.8617 3.87165 38.8617 4.8195C38.8617 5.7702 38.503 6.72079 37.7795 7.44135L36.4969 8.7268C36.4789 8.74484 36.4789 8.78966 36.4969 8.80759L39.5433 11.8541C39.8274 12.1381 39.9768 12.5836 39.9768 12.9782C39.9768 13.3368 39.8334 13.8124 39.5732 14.0725L36.455 17.1907C36.177 17.4688 35.7256 17.6182 35.3368 17.6182C34.9781 17.6182 34.5027 17.4748 34.2426 17.2146L32.8943 15.8663C32.0661 15.0383 30.7148 15.0383 29.8866 15.8663C29.0585 16.6945 29.0585 18.0458 29.8866 18.8739L31.1841 20.1715C31.483 20.4704 31.6415 20.8949 31.6415 21.3165C31.6415 21.6752 31.495 22.1507 31.2349 22.4107L28.1526 25.4933C27.8476 25.7982 27.4322 25.9566 26.9986 25.9566C26.6399 25.9566 26.1644 25.8132 25.9043 25.5531L22.816 22.4648C22.517 22.1628 22.3586 21.7412 22.3586 21.3166C22.3586 20.9579 22.502 20.4825 22.7622 20.2224L24.1105 18.8741C24.5231 18.4615 24.7324 17.9143 24.7324 17.3703C24.7324 16.8231 24.5231 16.279 24.1105 15.8664C23.6979 15.4539 23.1538 15.2476 22.6097 15.2476C22.0626 15.2476 21.5185 15.4539 21.1059 15.8664L19.8085 17.164C19.5096 17.463 19.0849 17.6184 18.6635 17.6184C18.3047 17.6184 17.8293 17.475 17.5663 17.2148L14.4571 14.1056C14.173 13.8217 14.0206 13.379 14.0206 12.9785C14.0206 12.6197 14.1671 12.1443 14.4272 11.8842L18.8996 7.4115ZM45.0383 44.4389H30.383C30.102 44.4389 29.8718 44.6721 29.8718 44.9503V51.9102C29.8718 52.1884 30.102 52.4184 30.383 52.4184H45.0384C45.3164 52.4184 45.5496 52.1883 45.5496 51.9102V44.9503C45.5495 44.6721 45.3164 44.4389 45.0383 44.4389ZM30.383 42.8574H31.238V34.8719C31.238 34.0527 31.2918 33.1259 31.5339 32.2022C31.7851 31.2365 32.2335 30.2977 33.0108 29.5203L34.8853 27.6458C35.1933 27.3349 35.6955 27.3349 36.0035 27.6458C36.3115 27.9536 36.3115 28.456 36.0035 28.764L34.129 30.6384C33.5699 31.1974 33.2471 31.8852 33.0587 32.5967C32.8674 33.3322 32.8136 34.1125 32.8136 34.8718V42.8573H42.6048V40.4626C42.6048 40.0291 42.6735 39.6134 42.8199 39.2249C42.9724 38.8213 43.2026 38.4594 43.5226 38.1396L49.8068 31.8553C50.055 31.6071 50.2403 31.326 50.363 31.027C50.4915 30.713 50.5543 30.3752 50.5543 30.0344V13.4865C50.5543 12.7779 50.2642 12.1352 49.7979 11.6658C49.3315 11.1993 48.6886 10.9094 47.9802 10.9094C47.2746 10.9094 46.6289 11.1993 46.1625 11.6658C45.6961 12.1351 45.4061 12.7779 45.4061 13.4865V23.487C46.0609 24.2584 46.3867 25.2181 46.3867 26.1748C46.3867 27.2391 45.9831 28.3035 45.1729 29.1136L40.4852 33.8015C40.1772 34.1094 39.675 34.1094 39.367 33.8015C39.059 33.4935 39.059 32.9911 39.367 32.6833L44.0548 27.9954C44.5541 27.4962 44.8052 26.8354 44.8052 26.1747C44.8052 25.5139 44.557 24.8533 44.0578 24.3539C43.5705 23.8696 42.9188 23.6035 42.2341 23.6035C41.5733 23.6035 40.9126 23.8547 40.4134 24.3539L38.5389 26.2284C38.2279 26.5393 37.7286 26.5393 37.4207 26.2284C37.1098 25.9204 37.1098 25.4212 37.4207 25.1103L39.2952 23.2357C40.1054 22.4254 41.1697 22.0219 42.2341 22.0219C42.7751 22.0219 43.3163 22.1264 43.8245 22.3358V13.4863C43.8245 12.3413 44.2909 11.3009 45.0444 10.5475C45.7977 9.79414 46.8351 9.32776 47.9802 9.32776C49.1252 9.32776 50.1627 9.79414 50.916 10.5475C51.6695 11.301 52.1388 12.3413 52.1388 13.4863V30.0342C52.1388 30.5723 52.0312 31.1135 51.8219 31.6249C51.6156 32.1211 51.3167 32.5815 50.925 32.9731L44.6408 39.2575C44.4793 39.4188 44.3686 39.5923 44.2969 39.7806C44.2221 39.9809 44.1863 40.2082 44.1863 40.4623V42.8571H45.0384C46.1895 42.8571 47.1311 43.7959 47.1311 44.9499V51.9099C47.1311 53.0609 46.1894 53.9998 45.0384 53.9998H30.383C29.229 53.9998 28.2902 53.061 28.2902 51.9099V44.9499C28.2901 43.7962 29.2289 42.8574 30.383 42.8574ZM8.96204 44.4389C8.68097 44.4389 8.45084 44.6721 8.45084 44.9503V51.9102C8.45084 52.1884 8.68108 52.4184 8.96204 52.4184H23.6173C23.8954 52.4184 24.1286 52.1883 24.1286 51.9102V44.9503C24.1286 44.6721 23.8954 44.4389 23.6173 44.4389H8.96204Z" fill="white"/>
</g>
<defs>
<clipPath id="clip0">
<rect width="54" height="54" fill="white"/>
</clipPath>
</defs>
</svg>
