<svg width="42" height="54" viewBox="0 0 42 54" fill="none" xmlns="http://www.w3.org/2000/svg">
<path d="M27.0755 18.0322H18.4854C18.0485 18.0322 17.6943 17.6782 17.6943 17.2412C17.6943 16.8043 18.0485 16.4502 18.4854 16.4502H27.0755C27.5123 16.4502 27.8665 16.8043 27.8665 17.2412C27.8665 17.6782 27.5124 18.0322 27.0755 18.0322Z" fill="white"/>
<path d="M35.6657 13.9722H18.4854C18.0485 13.9722 17.6943 13.6181 17.6943 13.1812C17.6943 12.7442 18.0485 12.3901 18.4854 12.3901H35.6657C36.1025 12.3901 36.4567 12.7442 36.4567 13.1812C36.4567 13.6181 36.1025 13.9722 35.6657 13.9722Z" fill="white"/>
<path d="M27.0755 31.2883H18.4854C18.0485 31.2883 17.6943 30.9343 17.6943 30.4973C17.6943 30.0604 18.0485 29.7063 18.4854 29.7063H27.0755C27.5123 29.7063 27.8665 30.0604 27.8665 30.4973C27.8665 30.9343 27.5124 31.2883 27.0755 31.2883Z" fill="white"/>
<path d="M35.6657 27.228H18.4854C18.0485 27.228 17.6943 26.874 17.6943 26.437C17.6943 26.0001 18.0485 25.646 18.4854 25.646H35.6657C36.1025 25.646 36.4567 26.0001 36.4567 26.437C36.4567 26.874 36.1025 27.228 35.6657 27.228Z" fill="white"/>
<path d="M27.0755 44.5444H18.4854C18.0485 44.5444 17.6943 44.1904 17.6943 43.7534C17.6943 43.3165 18.0485 42.9624 18.4854 42.9624H27.0755C27.5123 42.9624 27.8665 43.3165 27.8665 43.7534C27.8665 44.1904 27.5124 44.5444 27.0755 44.5444Z" fill="white"/>
<path d="M35.6657 40.4841H18.4854C18.0485 40.4841 17.6943 40.1301 17.6943 39.6931C17.6943 39.2562 18.0485 38.9021 18.4854 38.9021H35.6657C36.1025 38.9021 36.4567 39.2562 36.4567 39.6931C36.4567 40.1301 36.1025 40.4841 35.6657 40.4841Z" fill="white"/>
<path d="M27.84 7.45147H14.1603C12.8601 7.45147 11.8022 6.39373 11.8022 5.09351V2.35807C11.8024 1.05785 12.8601 0 14.1603 0H27.8399C29.1402 0 30.198 1.05785 30.198 2.35807V5.09351C30.198 6.39373 29.1403 7.45147 27.84 7.45147ZM14.1603 1.58203C13.7324 1.58203 13.3843 1.93018 13.3843 2.35807V5.09351C13.3843 5.52139 13.7324 5.86944 14.1603 5.86944H27.8399C28.2678 5.86944 28.616 5.52129 28.616 5.09351V2.35807C28.616 1.93008 28.2678 1.58203 27.8399 1.58203H14.1603Z" fill="white"/>
<path d="M11.1828 19.0927H7.66718C6.49616 19.0927 5.54346 18.14 5.54346 16.969V13.4536C5.54346 12.2825 6.49616 11.3298 7.66718 11.3298H11.1828C12.3538 11.3298 13.3065 12.2825 13.3065 13.4536V16.9691C13.3065 18.14 12.3538 19.0927 11.1828 19.0927ZM7.66718 12.9119C7.36849 12.9119 7.12549 13.1549 7.12549 13.4536V16.9691C7.12549 17.2678 7.36849 17.5108 7.66718 17.5108H11.1828C11.4815 17.5108 11.7245 17.2678 11.7245 16.9691V13.4536C11.7245 13.1549 11.4815 12.9119 11.1828 12.9119H7.66718Z" fill="white"/>
<path d="M11.1828 32.3487H7.66718C6.49616 32.3487 5.54346 31.396 5.54346 30.225V26.7094C5.54346 25.5384 6.49616 24.5857 7.66718 24.5857H11.1828C12.3538 24.5857 13.3065 25.5384 13.3065 26.7094V30.225C13.3065 31.396 12.3538 32.3487 11.1828 32.3487ZM7.66718 26.1677C7.36849 26.1677 7.12549 26.4107 7.12549 26.7094V30.225C7.12549 30.5237 7.36849 30.7667 7.66718 30.7667H11.1828C11.4815 30.7667 11.7245 30.5237 11.7245 30.225V26.7094C11.7245 26.4107 11.4815 26.1677 11.1828 26.1677H7.66718Z" fill="white"/>
<path d="M11.1828 45.6047H7.66718C6.49616 45.6047 5.54346 44.652 5.54346 43.4809V39.9654C5.54346 38.7943 6.49616 37.8416 7.66718 37.8416H11.1828C12.3538 37.8416 13.3065 38.7943 13.3065 39.9654V43.4809C13.3065 44.652 12.3538 45.6047 11.1828 45.6047ZM7.66718 39.4237C7.36849 39.4237 7.12549 39.6668 7.12549 39.9655V43.481C7.12549 43.7797 7.36849 44.0228 7.66718 44.0228H11.1828C11.4815 44.0228 11.7245 43.7797 11.7245 43.481V39.9655C11.7245 39.6668 11.4815 39.4237 11.1828 39.4237H7.66718Z" fill="white"/>
<path d="M37.8277 54H4.17239C2.28281 54 0.745605 52.4628 0.745605 50.5733V6.36149C0.745605 4.47202 2.28292 2.93481 4.17239 2.93481H8.91268C9.34953 2.93481 9.7037 3.28887 9.7037 3.72583C9.7037 4.16279 9.34953 4.51685 8.91268 4.51685H4.17239C3.15514 4.51685 2.32764 5.34435 2.32764 6.36149V50.5732C2.32764 51.5904 3.15525 52.4179 4.17239 52.4179H37.8277C38.8449 52.4179 39.6724 51.5903 39.6724 50.5732V6.36149C39.6724 5.34425 38.8448 4.51685 37.8277 4.51685H33.0874C32.6505 4.51685 32.2964 4.16279 32.2964 3.72583C32.2964 3.28887 32.6505 2.93481 33.0874 2.93481H37.8277C39.7173 2.93481 41.2545 4.47202 41.2545 6.36149V50.5732C41.2545 52.4628 39.7172 54 37.8277 54Z" fill="white"/>
</svg>
